<?xml version="1.0" encoding="utf-8"?>
<!-- Generator: Adobe Illustrator 25.2.0, SVG Export Plug-In . SVG Version: 6.00 Build 0)  -->
<svg version="1.1"
	 id="svg3341" xmlns:cc="http://creativecommons.org/ns#" xmlns:dc="http://purl.org/dc/elements/1.1/" xmlns:inkscape="http://www.inkscape.org/namespaces/inkscape" xmlns:rdf="http://www.w3.org/1999/02/22-rdf-syntax-ns#" xmlns:sodipodi="http://sodipodi.sourceforge.net/DTD/sodipodi-0.dtd" xmlns:svg="http://www.w3.org/2000/svg"
	 xmlns="http://www.w3.org/2000/svg" xmlns:xlink="http://www.w3.org/1999/xlink" x="0px" y="0px" viewBox="0 0 624 96"
	 style="enable-background:new 0 0 624 96;" xml:space="preserve">
<sodipodi:namedview  bordercolor="#666666" borderopacity="1.0" id="base" inkscape:current-layer="layer1" inkscape:cx="144.97634" inkscape:cy="-0.056865311" inkscape:document-units="px" inkscape:pageopacity="0.0" inkscape:pageshadow="2" inkscape:snap-grids="true" inkscape:window-height="966" inkscape:window-maximized="1" inkscape:window-width="1680" inkscape:window-x="-8" inkscape:window-y="-8" inkscape:zoom="2.0875" pagecolor="#ffffff" showgrid="true" units="px">
	<inkscape:grid  id="grid3353" type="xygrid"></inkscape:grid>
</sodipodi:namedview>
<path id="path4159" inkscape:flatsided="true" inkscape:randomized="0" inkscape:rounded="0" inkscape:transform-center-x="-1.833329" inkscape:transform-center-y="-6.7848101e-005" sodipodi:arg1="2.0943951" sodipodi:arg2="3.1415927" sodipodi:cx="3" sodipodi:cy="1039.3621" sodipodi:r1="4.472136" sodipodi:r2="2.236068" sodipodi:sides="3" sodipodi:type="star" style="fill:#C8C8C8;" d="
	M4.5,67.5V51L21,59.2L4.5,67.5z"/>
<rect id="rect4161" x="30" y="52.5" style="fill:#C8C8C8;" width="4.5" height="13.5"/>
<rect id="rect4163" x="37.5" y="52.5" style="fill:#C8C8C8;" width="4.5" height="13.5"/>
<rect id="rect4165" x="54" y="52.5" style="fill:#C8C8C8;" width="12" height="13.5"/>
<rect id="rect4167" x="75" y="54" style="fill:#C8C8C8;" width="1.5" height="10.5"/>
<path id="path4169" inkscape:flatsided="true" inkscape:randomized="0" inkscape:rounded="0" inkscape:transform-center-x="0.66666139" inkscape:transform-center-y="-3.0343961e-005" sodipodi:arg1="3.1415927" sodipodi:arg2="4.1887902" sodipodi:cx="73" sodipodi:cy="1040.3621" sodipodi:r1="2" sodipodi:r2="1" sodipodi:sides="3" sodipodi:type="star" style="fill:#C8C8C8;" d="
	M78,59.2l6-5.2v10.5L78,59.2z"/>
<path id="path4171" inkscape:flatsided="true" inkscape:randomized="0" inkscape:rounded="0" inkscape:transform-center-x="0.66666139" inkscape:transform-center-y="-3.0343961e-005" sodipodi:arg1="3.1415927" sodipodi:arg2="4.1887902" sodipodi:cx="73" sodipodi:cy="1040.3621" sodipodi:r1="2" sodipodi:r2="1" sodipodi:sides="3" sodipodi:type="star" style="fill:#C8C8C8;" d="
	M85.5,59.2l6-5.2v10.5L85.5,59.2z"/>
<path id="path4173" inkscape:flatsided="true" inkscape:randomized="0" inkscape:rounded="0" inkscape:transform-center-x="0.66666139" inkscape:transform-center-y="-3.0343961e-005" sodipodi:arg1="3.1415927" sodipodi:arg2="4.1887902" sodipodi:cx="73" sodipodi:cy="1040.3621" sodipodi:r1="2" sodipodi:r2="1" sodipodi:sides="3" sodipodi:type="star" style="fill:#C8C8C8;" d="
	M172.5,59.2l6-5.2v10.5L172.5,59.2z"/>
<path id="path4175" inkscape:flatsided="true" inkscape:randomized="0" inkscape:rounded="0" inkscape:transform-center-x="0.66666139" inkscape:transform-center-y="-3.0343961e-005" sodipodi:arg1="3.1415927" sodipodi:arg2="4.1887902" sodipodi:cx="73" sodipodi:cy="1040.3621" sodipodi:r1="2" sodipodi:r2="1" sodipodi:sides="3" sodipodi:type="star" style="fill:#C8C8C8;" d="
	M180,59.2l6-5.2v10.5L180,59.2z"/>
<rect id="rect4177" x="114" y="54" style="fill:#C8C8C8;" width="1.5" height="10.5"/>
<path id="path4179" inkscape:flatsided="true" inkscape:randomized="0" inkscape:rounded="0" inkscape:transform-center-x="-0.666658" sodipodi:arg1="3.1415927" sodipodi:arg2="4.1887902" sodipodi:cx="73" sodipodi:cy="1040.3621" sodipodi:r1="2" sodipodi:r2="1" sodipodi:sides="3" sodipodi:type="star" style="fill:#C8C8C8;" d="
	M112.5,59.2l-6,5.2V54L112.5,59.2z"/>
<path id="path4181" inkscape:flatsided="true" inkscape:randomized="0" inkscape:rounded="0" inkscape:transform-center-x="-0.666658" sodipodi:arg1="3.1415927" sodipodi:arg2="4.1887902" sodipodi:cx="73" sodipodi:cy="1040.3621" sodipodi:r1="2" sodipodi:r2="1" sodipodi:sides="3" sodipodi:type="star" style="fill:#C8C8C8;" d="
	M105,59.2l-6,5.2V54L105,59.2z"/>
<path id="path4183" inkscape:flatsided="true" inkscape:randomized="0" inkscape:rounded="0" inkscape:transform-center-x="-0.666658" sodipodi:arg1="3.1415927" sodipodi:arg2="4.1887902" sodipodi:cx="73" sodipodi:cy="1040.3621" sodipodi:r1="2" sodipodi:r2="1" sodipodi:sides="3" sodipodi:type="star" style="fill:#C8C8C8;" d="
	M211.5,59.2l-6,5.2V54L211.5,59.2z"/>
<path id="path4185" inkscape:flatsided="true" inkscape:randomized="0" inkscape:rounded="0" inkscape:transform-center-x="-0.666658" sodipodi:arg1="3.1415927" sodipodi:arg2="4.1887902" sodipodi:cx="73" sodipodi:cy="1040.3621" sodipodi:r1="2" sodipodi:r2="1" sodipodi:sides="3" sodipodi:type="star" style="fill:#C8C8C8;" d="
	M204,59.2l-6,5.2V54L204,59.2z"/>
<rect id="rect4187" x="222" y="54" style="fill:#C8C8C8;" width="3" height="10.5"/>
<path style="fill:#C8C8C8;" d="M228,54h1.5v10.5H228V54z M235.5,59.2l-6,5.2V54L235.5,59.2z"/>
<path id="path4179-5" inkscape:flatsided="true" inkscape:randomized="0" inkscape:rounded="0" inkscape:transform-center-x="1.3333156" inkscape:transform-center-y="-0.00016308799" sodipodi:arg1="3.1415927" sodipodi:arg2="4.1887902" sodipodi:cx="73" sodipodi:cy="1040.3621" sodipodi:r1="2" sodipodi:r2="1" sodipodi:sides="3" sodipodi:type="star" style="fill:#C8C8C8;" d="
	M576,60l12-10.5v21L576,60z"/>
<rect id="rect4187-3" x="576" y="55.5" style="fill:#C8C8C8;" width="6" height="9"/>
<rect id="rect4181-4" x="600" y="-24" style="fill-rule:evenodd;clip-rule:evenodd;fill:#F600FF;" width="24" height="24"/>
<rect id="rect4181-4-8" x="576" y="-24" style="fill-rule:evenodd;clip-rule:evenodd;fill:#7200FF;" width="24" height="24"/>
<path id="path4230" sodipodi:cx="200.42171" sodipodi:cy="1044.3516" sodipodi:end="1.4835299" sodipodi:open="true" sodipodi:rx="1.1333569" sodipodi:ry="1.0653899" sodipodi:start="4.7996554" sodipodi:type="arc" style="fill:none;stroke:#C8C8C8;stroke-width:0.5;" d="
	M588.7,58.3c0.9,0,1.5,0.8,1.5,1.6s-0.6,1.5-1.5,1.6"/>
<path id="path4230-0" sodipodi:cx="201.32703" sodipodi:cy="1044.3516" sodipodi:end="1.4835299" sodipodi:open="true" sodipodi:rx="2.2667139" sodipodi:ry="2.1307797" sodipodi:start="4.7996554" sodipodi:type="arc" style="fill:none;stroke:#C8C8C8;stroke-width:0.6;" d="
	M590.2,56.7c1.8,0.1,3.2,1.5,3.2,3.1s-1.3,3-3.2,3.1"/>
<path id="path4230-0-7" sodipodi:cx="201.63358" sodipodi:cy="1044.3519" sodipodi:end="1.4835299" sodipodi:open="true" sodipodi:rx="4.5334277" sodipodi:ry="4.2615595" sodipodi:start="4.7996554" sodipodi:type="arc" style="fill:none;stroke:#C8C8C8;stroke-width:0.7;" d="
	M591,53.5c3.5,0.3,6.2,3,6.2,6.3c0,3.3-2.7,6.1-6.2,6.3"/>
<path id="path4262" inkscape:flatsided="true" inkscape:randomized="0" inkscape:rounded="0" inkscape:transform-center-x="1.3333156" inkscape:transform-center-y="-0.00016308799" sodipodi:arg1="3.1415927" sodipodi:arg2="4.1887902" sodipodi:cx="73" sodipodi:cy="1040.3621" sodipodi:r1="2" sodipodi:r2="1" sodipodi:sides="3" sodipodi:type="star" style="fill:#C8C8C8;" d="
	M606,60l12-10.5v21L606,60z"/>
<rect id="rect4264" x="606" y="55.5" style="fill:#C8C8C8;" width="6" height="9"/>
<path style="fill:#C8C8C8;" d="M606,84l12-10.5v21L606,84z M606,79.5h6v9h-6V79.5z"/>
<path id="path4276" inkscape:connector-curvature="0" style="fill:none;stroke:#FF0000;stroke-width:1.5;" d="M603,51l18,18"/>
<path id="path4159_1_" inkscape:flatsided="true" inkscape:randomized="0" inkscape:rounded="0" inkscape:transform-center-x="-1.833329" inkscape:transform-center-y="-6.7848101e-005" sodipodi:arg1="2.0943951" sodipodi:arg2="3.1415927" sodipodi:cx="3" sodipodi:cy="1039.3621" sodipodi:r1="4.472136" sodipodi:r2="2.236068" sodipodi:sides="3" sodipodi:type="star" style="fill:#646464;" d="
	M4.5,91.5V75L21,83.2L4.5,91.5z"/>
<rect id="rect4161_1_" x="30" y="76.5" style="fill:#646464;" width="4.5" height="13.5"/>
<rect id="rect4163_1_" x="37.5" y="76.5" style="fill:#646464;" width="4.5" height="13.5"/>
<rect id="rect4165_1_" x="54" y="76.5" style="fill:#646464;" width="12" height="13.5"/>
<rect id="rect4167_1_" x="75" y="78" style="fill:#646464;" width="1.5" height="10.5"/>
<path id="path4169_1_" inkscape:flatsided="true" inkscape:randomized="0" inkscape:rounded="0" inkscape:transform-center-x="0.66666139" inkscape:transform-center-y="-3.0343961e-005" sodipodi:arg1="3.1415927" sodipodi:arg2="4.1887902" sodipodi:cx="73" sodipodi:cy="1040.3621" sodipodi:r1="2" sodipodi:r2="1" sodipodi:sides="3" sodipodi:type="star" style="fill:#646464;" d="
	M78,83.2l6-5.2v10.5L78,83.2z"/>
<path id="path4171_1_" inkscape:flatsided="true" inkscape:randomized="0" inkscape:rounded="0" inkscape:transform-center-x="0.66666139" inkscape:transform-center-y="-3.0343961e-005" sodipodi:arg1="3.1415927" sodipodi:arg2="4.1887902" sodipodi:cx="73" sodipodi:cy="1040.3621" sodipodi:r1="2" sodipodi:r2="1" sodipodi:sides="3" sodipodi:type="star" style="fill:#646464;" d="
	M85.5,83.2l6-5.2v10.5L85.5,83.2z"/>
<path id="path4173_1_" inkscape:flatsided="true" inkscape:randomized="0" inkscape:rounded="0" inkscape:transform-center-x="0.66666139" inkscape:transform-center-y="-3.0343961e-005" sodipodi:arg1="3.1415927" sodipodi:arg2="4.1887902" sodipodi:cx="73" sodipodi:cy="1040.3621" sodipodi:r1="2" sodipodi:r2="1" sodipodi:sides="3" sodipodi:type="star" style="fill:#646464;" d="
	M172.5,83.2l6-5.2v10.5L172.5,83.2z"/>
<path id="path4175_1_" inkscape:flatsided="true" inkscape:randomized="0" inkscape:rounded="0" inkscape:transform-center-x="0.66666139" inkscape:transform-center-y="-3.0343961e-005" sodipodi:arg1="3.1415927" sodipodi:arg2="4.1887902" sodipodi:cx="73" sodipodi:cy="1040.3621" sodipodi:r1="2" sodipodi:r2="1" sodipodi:sides="3" sodipodi:type="star" style="fill:#646464;" d="
	M180,83.2l6-5.2v10.5L180,83.2z"/>
<rect id="rect4177_1_" x="114" y="78" style="fill:#646464;" width="1.5" height="10.5"/>
<path id="path4179_1_" inkscape:flatsided="true" inkscape:randomized="0" inkscape:rounded="0" inkscape:transform-center-x="-0.666658" sodipodi:arg1="3.1415927" sodipodi:arg2="4.1887902" sodipodi:cx="73" sodipodi:cy="1040.3621" sodipodi:r1="2" sodipodi:r2="1" sodipodi:sides="3" sodipodi:type="star" style="fill:#646464;" d="
	M112.5,83.2l-6,5.2V78L112.5,83.2z"/>
<path id="path4181_1_" inkscape:flatsided="true" inkscape:randomized="0" inkscape:rounded="0" inkscape:transform-center-x="-0.666658" sodipodi:arg1="3.1415927" sodipodi:arg2="4.1887902" sodipodi:cx="73" sodipodi:cy="1040.3621" sodipodi:r1="2" sodipodi:r2="1" sodipodi:sides="3" sodipodi:type="star" style="fill:#646464;" d="
	M105,83.2l-6,5.2V78L105,83.2z"/>
<path id="path4183_1_" inkscape:flatsided="true" inkscape:randomized="0" inkscape:rounded="0" inkscape:transform-center-x="-0.666658" sodipodi:arg1="3.1415927" sodipodi:arg2="4.1887902" sodipodi:cx="73" sodipodi:cy="1040.3621" sodipodi:r1="2" sodipodi:r2="1" sodipodi:sides="3" sodipodi:type="star" style="fill:#646464;" d="
	M211.5,83.2l-6,5.2V78L211.5,83.2z"/>
<path id="path4185_1_" inkscape:flatsided="true" inkscape:randomized="0" inkscape:rounded="0" inkscape:transform-center-x="-0.666658" sodipodi:arg1="3.1415927" sodipodi:arg2="4.1887902" sodipodi:cx="73" sodipodi:cy="1040.3621" sodipodi:r1="2" sodipodi:r2="1" sodipodi:sides="3" sodipodi:type="star" style="fill:#646464;" d="
	M204,83.2l-6,5.2V78L204,83.2z"/>
<rect id="rect4187_1_" x="222" y="78" style="fill:#646464;" width="3" height="10.5"/>
<path style="fill:#646464;" d="M228,78h1.5v10.5H228V78z M235.5,83.2l-6,5.2V78L235.5,83.2z"/>
<polygon points="4.5,19.5 4.5,3 21,11.2 "/>
<rect x="30" y="4.5" width="4.5" height="13.5"/>
<rect x="37.5" y="4.5" width="4.5" height="13.5"/>
<rect x="54" y="4.5" width="12" height="13.5"/>
<rect x="75" y="6" width="1.5" height="10.5"/>
<polygon points="78,11.2 84,6 84,16.5 "/>
<polygon points="85.5,11.2 91.5,6 91.5,16.5 "/>
<polygon points="172.5,11.2 178.5,6 178.5,16.5 "/>
<polygon points="180,11.2 186,6 186,16.5 "/>
<rect x="114" y="6" width="1.5" height="10.5"/>
<polygon points="112.5,11.2 106.5,16.5 106.5,6 "/>
<polygon points="105,11.2 99,16.5 99,6 "/>
<polygon points="211.5,11.2 205.5,16.5 205.5,6 "/>
<polygon points="204,11.2 198,16.5 198,6 "/>
<rect x="222" y="6" width="3" height="10.5"/>
<path d="M229.5,16.5H228V6h1.5V16.5z M235.5,11.2l-6,5.2V6L235.5,11.2z"/>
<polygon points="576,12 588,1.5 588,22.5 "/>
<path d="M582,16.5h-6v-9h6V16.5z"/>
<path style="fill:none;stroke:#000000;stroke-width:0.5;" d="M588.7,10.3c0.9,0,1.5,0.8,1.5,1.6c0,0.9-0.6,1.5-1.5,1.7"/>
<path style="fill:none;stroke:#000000;stroke-width:0.6;" d="M590.2,8.8c1.8,0.1,3.2,1.5,3.2,3.1s-1.3,3-3.2,3.2"/>
<path style="fill:none;stroke:#000000;stroke-width:0.7;" d="M591,5.5c3.5,0.3,6.2,3,6.2,6.3s-2.7,6.2-6.2,6.3"/>
<path d="M606,12l12-10.5v21L606,12z"/>
<rect x="606" y="7.5" width="6" height="9"/>
<path d="M606,36l12-10.5v21L606,36z M612,40.5h-6v-9h6V40.5z"/>
<path style="fill:none;stroke:#FF0000;stroke-width:1.5;" d="M603,3l18,18"/>
<polygon style="fill:#7F7F7F;" points="4.5,43.5 4.5,27 21,35.2 "/>
<rect x="30" y="28.5" style="fill:#7F7F7F;" width="4.5" height="13.5"/>
<rect x="37.5" y="28.5" style="fill:#7F7F7F;" width="4.5" height="13.5"/>
<rect x="54" y="28.5" style="fill:#7F7F7F;" width="12" height="13.5"/>
<rect x="75" y="30" style="fill:#7F7F7F;" width="1.5" height="10.5"/>
<polygon style="fill:#7F7F7F;" points="78,35.2 84,30 84,40.5 "/>
<polygon style="fill:#7F7F7F;" points="85.5,35.2 91.5,30 91.5,40.5 "/>
<polygon style="fill:#7F7F7F;" points="172.5,35.2 178.5,30 178.5,40.5 "/>
<polygon style="fill:#7F7F7F;" points="180,35.2 186,30 186,40.5 "/>
<rect x="114" y="30" style="fill:#7F7F7F;" width="1.5" height="10.5"/>
<polygon style="fill:#7F7F7F;" points="112.5,35.2 106.5,40.5 106.5,30 "/>
<polygon style="fill:#7F7F7F;" points="105,35.2 99,40.5 99,30 "/>
<polygon style="fill:#7F7F7F;" points="211.5,35.2 205.5,40.5 205.5,30 "/>
<polygon style="fill:#7F7F7F;" points="204,35.2 198,40.5 198,30 "/>
<rect x="222" y="30" style="fill:#7F7F7F;" width="3" height="10.5"/>
<path style="fill:#7F7F7F;" d="M229.5,40.5H228V30h1.5V40.5z M235.5,35.2l-6,5.2V30L235.5,35.2z"/>
<rect x="384" y="-24" width="24" height="24"/>
<rect id="rect4165_47_" x="120" y="9" width="1.5" height="4.5"/>
<polygon style="fill:#7F7F7F;" points="576,36 588,25.5 588,46.5 "/>
<path style="fill:#7F7F7F;" d="M582,40.5h-6v-9h6V40.5z"/>
<path style="fill:none;stroke:#7F7F7F;stroke-width:0.5;" d="M588.7,34.3c0.9,0,1.5,0.8,1.5,1.7c0,0.9-0.6,1.5-1.5,1.6"/>
<path style="fill:none;stroke:#7F7F7F;stroke-width:0.6;" d="M590.2,32.8c1.8,0.2,3.2,1.5,3.2,3.2c0,1.6-1.3,3-3.2,3.1"/>
<path id="path4179-5_1_" inkscape:flatsided="true" inkscape:randomized="0" inkscape:rounded="0" inkscape:transform-center-x="1.3333156" inkscape:transform-center-y="-0.00016308799" sodipodi:arg1="3.1415927" sodipodi:arg2="4.1887902" sodipodi:cx="73" sodipodi:cy="1040.3621" sodipodi:r1="2" sodipodi:r2="1" sodipodi:sides="3" sodipodi:type="star" style="fill:#646464;" d="
	M576,84l12-10.5v21L576,84z"/>
<rect id="rect4187-3_1_" x="576" y="79.5" style="fill:#646464;" width="6" height="9"/>
<path id="path4230_1_" sodipodi:cx="200.42171" sodipodi:cy="1044.3516" sodipodi:end="1.4835299" sodipodi:open="true" sodipodi:rx="1.1333569" sodipodi:ry="1.0653899" sodipodi:start="4.7996554" sodipodi:type="arc" style="fill:none;stroke:#646464;stroke-width:0.5;" d="
	M588.7,82.3c0.9,0,1.5,0.8,1.5,1.6c0,0.9-0.6,1.5-1.5,1.7"/>
<path id="path4230-0_1_" sodipodi:cx="201.32703" sodipodi:cy="1044.3516" sodipodi:end="1.4835299" sodipodi:open="true" sodipodi:rx="2.2667139" sodipodi:ry="2.1307797" sodipodi:start="4.7996554" sodipodi:type="arc" style="fill:none;stroke:#646464;stroke-width:0.6;" d="
	M590.2,80.7c1.8,0.1,3.2,1.5,3.2,3.1c0,1.7-1.3,3-3.2,3.2"/>
<g>
	<path d="M155.5,14.7c-0.3,0.2-1,0.4-2.1,0.4c-2.2,0-3.6-1.5-3.6-3.8s1.5-3.9,3.9-3.9c0.8,0,1.5,0.1,1.8,0.3l-0.3,1
		c-0.3-0.1-0.8-0.3-1.5-0.3c-1.6,0-2.5,1.2-2.5,2.7c0,1.7,1,2.7,2.5,2.7c0.8,0,1.2-0.2,1.6-0.3L155.5,14.7z"/>
	<path d="M162.3,14.7c-0.3,0.2-1,0.4-2.1,0.4c-2.2,0-3.6-1.5-3.6-3.8s1.5-3.9,3.9-3.9c0.8,0,1.5,0.1,1.8,0.3l-0.3,1
		c-0.3-0.1-0.8-0.3-1.5-0.3c-1.6,0-2.6,1.2-2.6,2.7c0,1.7,1.1,2.7,2.6,2.7c0.8,0,1.2-0.2,1.6-0.3L162.3,14.7z"/>
</g>
<g>
	<path style="fill:#7F7F7F;" d="M155.5,38.7c-0.3,0.2-1,0.5-2.1,0.5c-2.2,0-3.6-1.5-3.6-3.8s1.5-3.9,3.9-3.9c0.8,0,1.5,0.1,1.8,0.3
		l-0.3,1.1c-0.3-0.2-0.8-0.3-1.5-0.3c-1.6,0-2.5,1.2-2.5,2.7c0,1.7,1,2.7,2.5,2.7c0.8,0,1.2-0.1,1.6-0.3L155.5,38.7z"/>
	<path style="fill:#7F7F7F;" d="M162.3,38.7c-0.3,0.2-1,0.5-2.1,0.5c-2.2,0-3.6-1.5-3.6-3.8s1.5-3.9,3.9-3.9c0.8,0,1.5,0.1,1.8,0.3
		l-0.3,1.1c-0.3-0.2-0.8-0.3-1.5-0.3c-1.6,0-2.5,1.2-2.5,2.7c0,1.7,1,2.7,2.5,2.7c0.8,0,1.2-0.1,1.6-0.3L162.3,38.7z"/>
</g>
<g>
	<path style="fill:#C8C8C8;" d="M155.5,62.7c-0.3,0.1-1,0.5-2.1,0.5c-2.2,0-3.6-1.5-3.6-3.8s1.5-3.9,3.9-3.9c0.8,0,1.5,0.1,1.8,0.3
		l-0.3,1.1c-0.3-0.1-0.8-0.3-1.5-0.3c-1.6,0-2.5,1.2-2.5,2.7c0,1.6,1,2.7,2.5,2.7c0.8,0,1.2-0.1,1.6-0.3L155.5,62.7z"/>
	<path style="fill:#C8C8C8;" d="M162.3,62.7c-0.3,0.1-1,0.5-2.1,0.5c-2.2,0-3.6-1.5-3.6-3.8s1.5-3.9,3.9-3.9c0.8,0,1.5,0.1,1.8,0.3
		l-0.3,1.1c-0.3-0.1-0.8-0.3-1.5-0.3c-1.6,0-2.5,1.2-2.5,2.7c0,1.6,1,2.7,2.5,2.7c0.8,0,1.2-0.1,1.6-0.3L162.3,62.7z"/>
</g>
<g>
	<path style="fill:#646464;" d="M155.5,86.7c-0.3,0.1-1,0.4-2.1,0.4c-2.2,0-3.6-1.5-3.6-3.8s1.5-3.9,3.9-3.9c0.8,0,1.5,0.2,1.8,0.3
		l-0.3,1.1c-0.3-0.2-0.8-0.3-1.5-0.3c-1.6,0-2.5,1.2-2.5,2.7c0,1.7,1,2.7,2.5,2.7c0.8,0,1.2-0.2,1.6-0.3L155.5,86.7z"/>
	<path style="fill:#646464;" d="M162.3,86.7c-0.3,0.1-1,0.4-2.1,0.4c-2.2,0-3.6-1.5-3.6-3.8s1.5-3.9,3.9-3.9c0.8,0,1.5,0.2,1.8,0.3
		l-0.3,1.1c-0.3-0.2-0.8-0.3-1.5-0.3c-1.6,0-2.5,1.2-2.5,2.7c0,1.7,1,2.7,2.5,2.7c0.8,0,1.2-0.2,1.6-0.3L162.3,86.7z"/>
</g>
<rect x="246" y="15" width="12" height="3"/>
<path d="M258,10.5V12h-12v-1.5H258z M252,4.5l6,6h-12L252,4.5z"/>
<rect id="rect4165_6_" x="268.5" y="4.5" width="1.5" height="15"/>
<rect id="rect4165_7_" x="267" y="6" width="4.5" height="1.5"/>
<rect id="rect4165_48_" x="273" y="15" width="4.5" height="1.5"/>
<rect id="rect4165_49_" x="279" y="12" width="4.5" height="1.5"/>
<g>
	<polyline style="fill:none;stroke:#000000;stroke-width:1.5;stroke-miterlimit:10;" points="337.5,8.2 342.1,8.2 349.3,17.2 
		354,17.2 	"/>
</g>
<rect id="rect4165_103_" x="316.5" y="78" style="fill:#C8C8C8;" width="15" height="1.5"/>
<rect id="rect4165_102_" x="316.5" y="82.5" style="fill:#C8C8C8;" width="15" height="1.5"/>
<rect id="rect4165_97_" x="316.5" y="87" style="fill:#C8C8C8;" width="7.5" height="1.5"/>
<polygon style="fill:#C8C8C8;" points="331.5,88.5 327,91.5 327,85.5 "/>
<line style="fill:none;stroke:#C8C8C8;stroke-miterlimit:10;" x1="326.2" y1="62.2" x2="330.7" y2="66.7"/>
<line style="fill:none;stroke:#C8C8C8;stroke-miterlimit:10;" x1="326.2" y1="66.7" x2="330.7" y2="62.2"/>
<rect id="rect4165_17_" x="316.5" y="54" style="fill:#C8C8C8;" width="15" height="1.5"/>
<rect id="rect4165_16_" x="316.5" y="58.5" style="fill:#C8C8C8;" width="15" height="1.5"/>
<rect id="rect4165_10_" x="316.5" y="63" style="fill:#C8C8C8;" width="7.5" height="1.5"/>
<rect id="rect4165_105_" x="316.5" y="30" width="15" height="1.5"/>
<rect id="rect4165_104_" x="316.5" y="34.5" width="15" height="1.5"/>
<rect id="rect4165_101_" x="316.5" y="39" width="7.5" height="1.5"/>
<polygon points="331.5,40.5 327,43.5 327,37.5 "/>
<line style="fill:none;stroke:#000000;stroke-miterlimit:10;" x1="326.2" y1="14.2" x2="330.7" y2="18.7"/>
<line style="fill:none;stroke:#000000;stroke-miterlimit:10;" x1="326.2" y1="18.7" x2="330.7" y2="14.2"/>
<rect id="rect4165_100_" x="316.5" y="6" width="15" height="1.5"/>
<rect id="rect4165_99_" x="316.5" y="10.5" width="15" height="1.5"/>
<rect id="rect4165_98_" x="316.5" y="15" width="7.5" height="1.5"/>
<rect id="rect4165_67_" x="292.5" y="42" width="6" height="1.5"/>
<rect id="rect4165_66_" x="292.5" y="37.5" width="1.5" height="6"/>
<rect id="rect4165_73_" x="292.5" y="28.5" width="1.5" height="6"/>
<rect id="rect4165_106_" x="301.5" y="42" width="6" height="1.5"/>
<rect id="rect4165_68_" x="292.5" y="28.5" width="6" height="1.5"/>
<rect id="rect4165_69_" x="301.5" y="28.5" width="6" height="1.5"/>
<rect id="rect4165_70_" x="306" y="28.5" width="1.5" height="6"/>
<rect id="rect4165_71_" x="306" y="37.5" width="1.5" height="6"/>
<rect id="rect4165_137_" x="292.5" y="42" width="6" height="1.5"/>
<rect id="rect4165_136_" x="292.5" y="37.5" width="1.5" height="6"/>
<rect id="rect4165_135_" x="292.5" y="28.5" width="1.5" height="6"/>
<rect id="rect4165_134_" x="301.5" y="42" width="6" height="1.5"/>
<rect id="rect4165_109_" x="292.5" y="28.5" width="6" height="1.5"/>
<rect id="rect4165_108_" x="301.5" y="28.5" width="6" height="1.5"/>
<rect id="rect4165_107_" x="306" y="28.5" width="1.5" height="6"/>
<rect id="rect4165_72_" x="306" y="37.5" width="1.5" height="6"/>
<rect id="rect4165_88_" x="292.5" y="90" style="fill:#C8C8C8;" width="6" height="1.5"/>
<rect id="rect4165_87_" x="292.5" y="85.5" style="fill:#C8C8C8;" width="1.5" height="6"/>
<rect id="rect4165_86_" x="292.5" y="76.5" style="fill:#C8C8C8;" width="1.5" height="6"/>
<rect id="rect4165_85_" x="301.5" y="90" style="fill:#C8C8C8;" width="6" height="1.5"/>
<rect id="rect4165_84_" x="292.5" y="76.5" style="fill:#C8C8C8;" width="6" height="1.5"/>
<rect id="rect4165_83_" x="301.5" y="76.5" style="fill:#C8C8C8;" width="6" height="1.5"/>
<rect id="rect4165_82_" x="306" y="76.5" style="fill:#C8C8C8;" width="1.5" height="6"/>
<rect id="rect4165_81_" x="306" y="85.5" style="fill:#C8C8C8;" width="1.5" height="6"/>
<rect id="rect4165_80_" x="292.5" y="90" style="fill:#C8C8C8;" width="6" height="1.5"/>
<rect id="rect4165_79_" x="292.5" y="85.5" style="fill:#C8C8C8;" width="1.5" height="6"/>
<rect id="rect4165_78_" x="292.5" y="76.5" style="fill:#C8C8C8;" width="1.5" height="6"/>
<rect id="rect4165_77_" x="301.5" y="90" style="fill:#C8C8C8;" width="6" height="1.5"/>
<rect id="rect4165_76_" x="292.5" y="76.5" style="fill:#C8C8C8;" width="6" height="1.5"/>
<rect id="rect4165_75_" x="301.5" y="76.5" style="fill:#C8C8C8;" width="6" height="1.5"/>
<rect id="rect4165_74_" x="306" y="76.5" style="fill:#C8C8C8;" width="1.5" height="6"/>
<rect id="rect4165_11_" x="306" y="85.5" style="fill:#C8C8C8;" width="1.5" height="6"/>
<rect id="rect4165_145_" x="292.5" y="13.5" width="6" height="1.5"/>
<rect id="rect4165_144_" x="297" y="13.5" width="1.5" height="6"/>
<rect id="rect4165_143_" x="297" y="4.5" width="1.5" height="6"/>
<rect id="rect4165_142_" x="301.5" y="13.5" width="6" height="1.5"/>
<rect id="rect4165_141_" x="292.5" y="9" width="6" height="1.5"/>
<rect id="rect4165_140_" x="301.5" y="9" width="6" height="1.5"/>
<rect id="rect4165_139_" x="301.5" y="4.5" width="1.5" height="6"/>
<rect id="rect4165_138_" x="301.5" y="13.5" width="1.5" height="6"/>
<rect id="rect4165_96_" x="292.5" y="13.5" width="6" height="1.5"/>
<rect id="rect4165_95_" x="297" y="13.5" width="1.5" height="6"/>
<rect id="rect4165_94_" x="297" y="4.5" width="1.5" height="6"/>
<rect id="rect4165_93_" x="301.5" y="13.5" width="6" height="1.5"/>
<rect id="rect4165_92_" x="292.5" y="9" width="6" height="1.5"/>
<rect id="rect4165_91_" x="301.5" y="9" width="6" height="1.5"/>
<rect id="rect4165_90_" x="301.5" y="4.5" width="1.5" height="6"/>
<rect id="rect4165_89_" x="301.5" y="13.5" width="1.5" height="6"/>
<rect id="rect4165_161_" x="292.5" y="61.5" style="fill:#C8C8C8;" width="6" height="1.5"/>
<rect id="rect4165_160_" x="297" y="61.5" style="fill:#C8C8C8;" width="1.5" height="6"/>
<rect id="rect4165_159_" x="297" y="52.5" style="fill:#C8C8C8;" width="1.5" height="6"/>
<rect id="rect4165_158_" x="301.5" y="61.5" style="fill:#C8C8C8;" width="6" height="1.5"/>
<rect id="rect4165_157_" x="292.5" y="57" style="fill:#C8C8C8;" width="6" height="1.5"/>
<rect id="rect4165_156_" x="301.5" y="57" style="fill:#C8C8C8;" width="6" height="1.5"/>
<rect id="rect4165_155_" x="301.5" y="52.5" style="fill:#C8C8C8;" width="1.5" height="6"/>
<rect id="rect4165_154_" x="301.5" y="61.5" style="fill:#C8C8C8;" width="1.5" height="6"/>
<rect id="rect4165_153_" x="292.5" y="61.5" style="fill:#C8C8C8;" width="6" height="1.5"/>
<rect id="rect4165_152_" x="297" y="61.5" style="fill:#C8C8C8;" width="1.5" height="6"/>
<rect id="rect4165_151_" x="297" y="52.5" style="fill:#C8C8C8;" width="1.5" height="6"/>
<rect id="rect4165_150_" x="301.5" y="61.5" style="fill:#C8C8C8;" width="6" height="1.5"/>
<rect id="rect4165_149_" x="292.5" y="57" style="fill:#C8C8C8;" width="6" height="1.5"/>
<rect id="rect4165_148_" x="301.5" y="57" style="fill:#C8C8C8;" width="6" height="1.5"/>
<rect id="rect4165_147_" x="301.5" y="52.5" style="fill:#C8C8C8;" width="1.5" height="6"/>
<rect id="rect4165_146_" x="301.5" y="61.5" style="fill:#C8C8C8;" width="1.5" height="6"/>
<rect id="rect4165_4_" x="274.5" y="4.5" width="1.5" height="15"/>
<rect id="rect4165_5_" x="280.5" y="4.5" width="1.5" height="15"/>
<rect id="rect4165_53_" x="268.5" y="28.5" style="fill:#7F7F7F;" width="1.5" height="15"/>
<rect id="rect4165_52_" x="267" y="30" style="fill:#7F7F7F;" width="4.5" height="1.5"/>
<rect id="rect4165_51_" x="273" y="39" style="fill:#7F7F7F;" width="4.5" height="1.5"/>
<rect id="rect4165_50_" x="279" y="36" style="fill:#7F7F7F;" width="4.5" height="1.5"/>
<rect id="rect4165_9_" x="274.5" y="28.5" style="fill:#7F7F7F;" width="1.5" height="15"/>
<rect id="rect4165_8_" x="280.5" y="28.5" style="fill:#7F7F7F;" width="1.5" height="15"/>
<rect id="rect4165_59_" x="268.5" y="52.5" style="fill:#C8C8C8;" width="1.5" height="15"/>
<rect id="rect4165_58_" x="267" y="54" style="fill:#C8C8C8;" width="4.5" height="1.5"/>
<rect id="rect4165_57_" x="273" y="63" style="fill:#C8C8C8;" width="4.5" height="1.5"/>
<rect id="rect4165_56_" x="279" y="60" style="fill:#C8C8C8;" width="4.5" height="1.5"/>
<rect id="rect4165_55_" x="274.5" y="52.5" style="fill:#C8C8C8;" width="1.5" height="15"/>
<rect id="rect4165_54_" x="280.5" y="52.5" style="fill:#C8C8C8;" width="1.5" height="15"/>
<rect id="rect4165_65_" x="268.5" y="76.5" style="fill:#646464;" width="1.5" height="15"/>
<rect id="rect4165_64_" x="267" y="78" style="fill:#646464;" width="4.5" height="1.5"/>
<rect id="rect4165_63_" x="273" y="87" style="fill:#646464;" width="4.5" height="1.5"/>
<rect id="rect4165_62_" x="279" y="84" style="fill:#646464;" width="4.5" height="1.5"/>
<rect id="rect4165_61_" x="274.5" y="76.5" style="fill:#646464;" width="1.5" height="15"/>
<rect id="rect4165_60_" x="280.5" y="76.5" style="fill:#646464;" width="1.5" height="15"/>
<rect x="246" y="39" style="fill:#7F7F7F;" width="12" height="3"/>
<path style="fill:#7F7F7F;" d="M258,34.5V36h-12v-1.5H258z M252,28.5l6,6h-12L252,28.5z"/>
<rect x="246" y="63" style="fill:#C8C8C8;" width="12" height="3"/>
<path style="fill:#C8C8C8;" d="M258,58.5V60h-12v-1.5H258z M252,52.5l6,6h-12L252,52.5z"/>
<rect x="246" y="87" style="fill:#646464;" width="12" height="3"/>
<path style="fill:#646464;" d="M258,82.5V84h-12v-1.5H258z M252,76.5l6,6h-12L252,76.5z"/>
<polygon points="358.5,17.2 354,21 354,13.5 "/>
<g>
	<polyline style="fill:none;stroke:#000000;stroke-width:1.5;stroke-miterlimit:10;" points="354,8.2 349.3,8.2 342.1,17.2 
		337.5,17.2 	"/>
</g>
<polygon points="354,12 354,4.5 358.5,8.2 "/>
<g>
	<polyline style="fill:none;stroke:#C8C8C8;stroke-width:1.5;stroke-miterlimit:10;" points="337.5,56.2 342.1,56.2 349.3,65.2 
		354,65.2 	"/>
</g>
<polygon style="fill:#C8C8C8;" points="358.5,65.2 354,69 354,61.5 "/>
<g>
	<polyline style="fill:none;stroke:#C8C8C8;stroke-width:1.5;stroke-miterlimit:10;" points="354,56.2 349.3,56.2 342.1,65.2 
		337.5,65.2 	"/>
</g>
<polygon style="fill:#C8C8C8;" points="354,60 354,52.5 358.5,56.2 "/>
<path d="M337.5,31.5H354V33h-16.5V31.5z M354,36v-7.5l4.5,3.8L354,36z"/>
<path d="M337.5,40.5H354V42h-16.5V40.5z M358.5,41.2L354,45v-7.5L358.5,41.2z"/>
<path style="fill:#C8C8C8;" d="M337.5,79.5H354V81h-16.5V79.5z M354,84v-7.5l4.5,3.8L354,84z"/>
<path style="fill:#C8C8C8;" d="M337.5,88.5H354V90h-16.5V88.5z M358.5,89.2L354,93v-7.5L358.5,89.2z"/>
<path d="M370.5,16.5H381V18h-10.5V16.5z M379.5,7.5h1.5v9h-1.5V7.5z M378,6h3v1.5h-3V6z M370.5,13.5V21l-4.5-3.8L370.5,13.5z"/>
<path d="M363,16.5h3V18h-3V16.5z M363,6h10.5v1.5H363V6z M373.5,10.5V3l4.5,3.7L373.5,10.5z M363,7.5h1.5v9H363V7.5z"/>
<path style="fill:#C8C8C8;" d="M370.5,64.5H381V66h-10.5V64.5z M379.5,55.5h1.5v9h-1.5V55.5z M378,54h3v1.5h-3V54z M370.5,61.5V69
	l-4.5-3.8L370.5,61.5z"/>
<path style="fill:#C8C8C8;" d="M363,64.5h3V66h-3V64.5z M363,54h10.5v1.5H363V54z M373.5,58.5V51l4.5,3.8L373.5,58.5z M363,55.5h1.5
	v9H363V55.5z"/>
<rect id="rect4165_120_" x="370.5" y="40.5" width="10.5" height="1.5"/>
<rect id="rect4165_119_" x="379.5" y="31.5" width="1.5" height="9"/>
<rect id="rect4165_118_" x="363" y="40.5" width="3" height="1.5"/>
<rect id="rect4165_117_" x="363" y="30" width="10.5" height="1.5"/>
<rect id="rect4165_116_" x="378" y="30" width="3" height="1.5"/>
<polygon points="373.5,34.5 373.5,27 378,30.7 "/>
<polygon points="370.5,37.5 370.5,45 366,41.2 "/>
<rect id="rect4165_115_" x="363" y="31.5" width="1.5" height="9"/>
<rect id="rect4165_124_" x="370.5" y="88.5" style="fill:#C8C8C8;" width="10.5" height="1.5"/>
<rect id="rect4165_123_" x="379.5" y="79.5" style="fill:#C8C8C8;" width="1.5" height="9"/>
<rect id="rect4165_121_" x="363" y="88.5" style="fill:#C8C8C8;" width="3" height="1.5"/>
<rect id="rect4165_114_" x="363" y="78" style="fill:#C8C8C8;" width="10.5" height="1.5"/>
<rect id="rect4165_113_" x="378" y="78" style="fill:#C8C8C8;" width="3" height="1.5"/>
<polygon style="fill:#C8C8C8;" points="373.5,82.5 373.5,75 378,78.7 "/>
<polygon style="fill:#C8C8C8;" points="370.5,85.5 370.5,93 366,89.2 "/>
<rect id="rect4165_112_" x="363" y="79.5" style="fill:#C8C8C8;" width="1.5" height="9"/>
<rect id="rect4165_44_" x="123" y="7.5" width="1.5" height="7.5"/>
<rect id="rect4165_45_" x="126" y="4.5" width="1.5" height="13.5"/>
<rect id="rect4165_163_" x="132" y="1.5" width="1.5" height="19.5"/>
<rect id="rect4165_162_" x="129" y="6" width="1.5" height="10.5"/>
<rect id="rect4165_46_" x="135" y="6" width="1.5" height="10.5"/>
<rect id="rect4165_164_" x="138" y="4.5" width="1.5" height="13.5"/>
<rect id="rect4165_168_" x="141" y="7.5" width="1.5" height="7.5"/>
<rect id="rect4165_169_" x="120" y="57" style="fill:#C8C8C8;" width="1.5" height="4.5"/>
<rect id="rect4165_167_" x="123" y="55.5" style="fill:#C8C8C8;" width="1.5" height="7.5"/>
<rect id="rect4165_166_" x="126" y="52.5" style="fill:#C8C8C8;" width="1.5" height="13.5"/>
<rect id="rect4165_165_" x="132" y="49.5" style="fill:#C8C8C8;" width="1.5" height="19.5"/>
<rect id="rect4165_39_" x="129" y="54" style="fill:#C8C8C8;" width="1.5" height="10.5"/>
<rect id="rect4165_38_" x="135" y="54" style="fill:#C8C8C8;" width="1.5" height="10.5"/>
<rect id="rect4165_37_" x="138" y="52.5" style="fill:#C8C8C8;" width="1.5" height="13.5"/>
<rect id="rect4165_36_" x="141" y="55.5" style="fill:#C8C8C8;" width="1.5" height="7.5"/>
<rect id="rect4165_43_" x="120" y="33" style="fill:#7F7F7F;" width="1.5" height="4.5"/>
<rect id="rect4165_42_" x="123" y="31.5" style="fill:#7F7F7F;" width="1.5" height="7.5"/>
<rect id="rect4165_41_" x="126" y="28.5" style="fill:#7F7F7F;" width="1.5" height="13.5"/>
<rect id="rect4165_40_" x="132" y="25.5" style="fill:#7F7F7F;" width="1.5" height="19.5"/>
<rect id="rect4165_31_" x="129" y="30" style="fill:#7F7F7F;" width="1.5" height="10.5"/>
<rect id="rect4165_30_" x="135" y="30" style="fill:#7F7F7F;" width="1.5" height="10.5"/>
<rect id="rect4165_3_" x="138" y="28.5" style="fill:#7F7F7F;" width="1.5" height="13.5"/>
<rect id="rect4165_2_" x="141" y="31.5" style="fill:#7F7F7F;" width="1.5" height="7.5"/>
<rect id="rect4165_177_" x="120" y="81" style="fill:#646464;" width="1.5" height="4.5"/>
<rect id="rect4165_176_" x="123" y="79.5" style="fill:#646464;" width="1.5" height="7.5"/>
<rect id="rect4165_175_" x="126" y="76.5" style="fill:#646464;" width="1.5" height="13.5"/>
<rect id="rect4165_174_" x="132" y="73.5" style="fill:#646464;" width="1.5" height="19.5"/>
<rect id="rect4165_173_" x="129" y="78" style="fill:#646464;" width="1.5" height="10.5"/>
<rect id="rect4165_172_" x="135" y="78" style="fill:#646464;" width="1.5" height="10.5"/>
<rect id="rect4165_171_" x="138" y="76.5" style="fill:#646464;" width="1.5" height="13.5"/>
<rect id="rect4165_170_" x="141" y="79.5" style="fill:#646464;" width="1.5" height="7.5"/>
<path d="M409.5,6H429v1.5h-19.5V6z M424.5,10.5h7.5l-3.8,4.5L424.5,10.5z M409.5,7.5h1.5V15h-1.5V7.5z M427.5,7.5h1.5v3h-1.5V7.5z"
	/>
<rect id="rect4165_181_" x="409.5" y="16.5" width="1.5" height="1.5"/>
<rect id="rect4165_182_" x="412.5" y="16.5" width="1.5" height="1.5"/>
<rect id="rect4165_183_" x="415.5" y="16.5" width="1.5" height="1.5"/>
<rect id="rect4165_184_" x="418.5" y="16.5" width="1.5" height="1.5"/>
<rect id="rect4165_185_" x="421.5" y="16.5" width="1.5" height="1.5"/>
<rect id="rect4165_186_" x="424.5" y="16.5" width="1.5" height="1.5"/>
<rect id="rect4165_187_" x="427.5" y="16.5" width="1.5" height="1.5"/>
<path style="fill:#7F7F7F;" d="M409.5,30H429v1.5h-19.5V30z M424.5,34.5h7.5l-3.8,4.5L424.5,34.5z M409.5,31.5h1.5V39h-1.5V31.5z
	 M427.5,31.5h1.5v3h-1.5V31.5z"/>
<rect id="rect4165_192_" x="409.5" y="40.5" style="fill:#7F7F7F;" width="1.5" height="1.5"/>
<rect id="rect4165_191_" x="412.5" y="40.5" style="fill:#7F7F7F;" width="1.5" height="1.5"/>
<rect id="rect4165_190_" x="415.5" y="40.5" style="fill:#7F7F7F;" width="1.5" height="1.5"/>
<rect id="rect4165_189_" x="418.5" y="40.5" style="fill:#7F7F7F;" width="1.5" height="1.5"/>
<rect id="rect4165_188_" x="421.5" y="40.5" style="fill:#7F7F7F;" width="1.5" height="1.5"/>
<rect id="rect4165_29_" x="424.5" y="40.5" style="fill:#7F7F7F;" width="1.5" height="1.5"/>
<rect id="rect4165_28_" x="427.5" y="40.5" style="fill:#7F7F7F;" width="1.5" height="1.5"/>
<path style="fill:#C8C8C8;" d="M409.5,54H429v1.5h-19.5V54z M424.5,58.5h7.5l-3.8,4.5L424.5,58.5z M409.5,55.5h1.5V63h-1.5V55.5z
	 M427.5,55.5h1.5v3h-1.5V55.5z"/>
<rect id="rect4165_202_" x="409.5" y="64.5" style="fill:#C8C8C8;" width="1.5" height="1.5"/>
<rect id="rect4165_201_" x="412.5" y="64.5" style="fill:#C8C8C8;" width="1.5" height="1.5"/>
<rect id="rect4165_200_" x="415.5" y="64.5" style="fill:#C8C8C8;" width="1.5" height="1.5"/>
<rect id="rect4165_199_" x="418.5" y="64.5" style="fill:#C8C8C8;" width="1.5" height="1.5"/>
<rect id="rect4165_198_" x="421.5" y="64.5" style="fill:#C8C8C8;" width="1.5" height="1.5"/>
<rect id="rect4165_197_" x="424.5" y="64.5" style="fill:#C8C8C8;" width="1.5" height="1.5"/>
<rect id="rect4165_196_" x="427.5" y="64.5" style="fill:#C8C8C8;" width="1.5" height="1.5"/>
<path style="fill:#646464;" d="M409.5,78H429v1.5h-19.5V78z M424.5,82.5h7.5l-3.8,4.5L424.5,82.5z M409.5,79.5h1.5V87h-1.5V79.5z
	 M427.5,79.5h1.5v3h-1.5V79.5z"/>
<rect id="rect4165_212_" x="409.5" y="88.5" style="fill:#646464;" width="1.5" height="1.5"/>
<rect id="rect4165_211_" x="412.5" y="88.5" style="fill:#646464;" width="1.5" height="1.5"/>
<rect id="rect4165_210_" x="415.5" y="88.5" style="fill:#646464;" width="1.5" height="1.5"/>
<rect id="rect4165_209_" x="418.5" y="88.5" style="fill:#646464;" width="1.5" height="1.5"/>
<rect id="rect4165_208_" x="421.5" y="88.5" style="fill:#646464;" width="1.5" height="1.5"/>
<rect id="rect4165_207_" x="424.5" y="88.5" style="fill:#646464;" width="1.5" height="1.5"/>
<rect id="rect4165_206_" x="427.5" y="88.5" style="fill:#646464;" width="1.5" height="1.5"/>
<path d="M406.5,7.5H387V6h19.5V7.5z M387.7,15l-3.8-4.5h7.5L387.7,15z M406.5,15H405V7.5h1.5V15z M388.5,10.5H387v-3h1.5V10.5z"/>
<rect id="rect4165_250_" x="405" y="16.5" width="1.5" height="1.5"/>
<rect id="rect4165_249_" x="402" y="16.5" width="1.5" height="1.5"/>
<rect id="rect4165_248_" x="399" y="16.5" width="1.5" height="1.5"/>
<rect id="rect4165_247_" x="396" y="16.5" width="1.5" height="1.5"/>
<rect id="rect4165_246_" x="393" y="16.5" width="1.5" height="1.5"/>
<rect id="rect4165_245_" x="390" y="16.5" width="1.5" height="1.5"/>
<rect id="rect4165_244_" x="387" y="16.5" width="1.5" height="1.5"/>
<path style="fill:#7F7F7F;" d="M406.5,31.5H387V30h19.5V31.5z M387.7,39l-3.8-4.5h7.5L387.7,39z M406.5,39H405v-7.5h1.5V39z
	 M388.5,34.5H387v-3h1.5V34.5z"/>
<rect id="rect4165_240_" x="405" y="40.5" style="fill:#7F7F7F;" width="1.5" height="1.5"/>
<rect id="rect4165_239_" x="402" y="40.5" style="fill:#7F7F7F;" width="1.5" height="1.5"/>
<rect id="rect4165_238_" x="399" y="40.5" style="fill:#7F7F7F;" width="1.5" height="1.5"/>
<rect id="rect4165_237_" x="396" y="40.5" style="fill:#7F7F7F;" width="1.5" height="1.5"/>
<rect id="rect4165_236_" x="393" y="40.5" style="fill:#7F7F7F;" width="1.5" height="1.5"/>
<rect id="rect4165_235_" x="390" y="40.5" style="fill:#7F7F7F;" width="1.5" height="1.5"/>
<rect id="rect4165_234_" x="387" y="40.5" style="fill:#7F7F7F;" width="1.5" height="1.5"/>
<path style="fill:#C8C8C8;" d="M406.5,55.5H387V54h19.5V55.5z M387.7,63l-3.8-4.5h7.5L387.7,63z M406.5,63H405v-7.5h1.5V63z
	 M388.5,58.5H387v-3h1.5V58.5z"/>
<rect id="rect4165_230_" x="405" y="64.5" style="fill:#C8C8C8;" width="1.5" height="1.5"/>
<rect id="rect4165_229_" x="402" y="64.5" style="fill:#C8C8C8;" width="1.5" height="1.5"/>
<rect id="rect4165_228_" x="399" y="64.5" style="fill:#C8C8C8;" width="1.5" height="1.5"/>
<rect id="rect4165_227_" x="396" y="64.5" style="fill:#C8C8C8;" width="1.5" height="1.5"/>
<rect id="rect4165_226_" x="393" y="64.5" style="fill:#C8C8C8;" width="1.5" height="1.5"/>
<rect id="rect4165_225_" x="390" y="64.5" style="fill:#C8C8C8;" width="1.5" height="1.5"/>
<rect id="rect4165_224_" x="387" y="64.5" style="fill:#C8C8C8;" width="1.5" height="1.5"/>
<path style="fill:#646464;" d="M406.5,79.5H387V78h19.5V79.5z M387.7,87l-3.8-4.5h7.5L387.7,87z M406.5,87H405v-7.5h1.5V87z
	 M388.5,82.5H387v-3h1.5V82.5z"/>
<rect id="rect4165_220_" x="405" y="88.5" style="fill:#646464;" width="1.5" height="1.5"/>
<rect id="rect4165_219_" x="402" y="88.5" style="fill:#646464;" width="1.5" height="1.5"/>
<rect id="rect4165_218_" x="399" y="88.5" style="fill:#646464;" width="1.5" height="1.5"/>
<rect id="rect4165_217_" x="396" y="88.5" style="fill:#646464;" width="1.5" height="1.5"/>
<rect id="rect4165_216_" x="393" y="88.5" style="fill:#646464;" width="1.5" height="1.5"/>
<rect id="rect4165_27_" x="390" y="88.5" style="fill:#646464;" width="1.5" height="1.5"/>
<rect id="rect4165_26_" x="387" y="88.5" style="fill:#646464;" width="1.5" height="1.5"/>
<rect x="480" y="-24" style="fill:#7F7F7F;" width="24" height="24"/>
<path style="fill:#C8C8C8;" d="M444,66h-1.5v-1.5h1.5V66z M441,66h-1.5v-1.5h1.5V66z M447,63h-1.5v-1.5h1.5V63z M444,63h-1.5v-1.5
	h1.5V63z M441,63h-1.5v-1.5h1.5V63z M450,63h-1.5v-1.5h1.5V63z M441,60h-1.5v-1.5h1.5V60z M447,66h-1.5v-1.5h1.5V66z M444,57h-1.5
	v-1.5h1.5V57z M441,57h-1.5v-1.5h1.5V57z M436.5,69H435V52.5h1.5V69z M447,51v1.5h-12V51H447z M454.5,70.5H453v-12h1.5V70.5z
	 M453,69v1.5h-18V69H453z M448.5,57H447v-6h1.5V57z M454.5,57v1.5H447V57H454.5z M448.5,57v-6l6,6H448.5z"/>
<path d="M444,18h-1.5v-1.5h1.5V18z M441,18h-1.5v-1.5h1.5V18z M447,15h-1.5v-1.5h1.5V15z M444,15h-1.5v-1.5h1.5V15z M441,15h-1.5
	v-1.5h1.5V15z M450,15h-1.5v-1.5h1.5V15z M441,12h-1.5v-1.5h1.5V12z M447,18h-1.5v-1.5h1.5V18z M444,9h-1.5V7.5h1.5V9z M441,9h-1.5
	V7.5h1.5V9z M436.5,21H435V4.5h1.5V21z M447,3v1.5h-12V3H447z M454.5,22.5H453v-12h1.5V22.5z M453,21v1.5h-18V21H453z M448.5,9H447
	V3h1.5V9z M454.5,9v1.5H447V9H454.5z M448.5,9V3l6,6H448.5z"/>
<path style="fill:#7F7F7F;" d="M444,42h-1.5v-1.5h1.5V42z M441,42h-1.5v-1.5h1.5V42z M447,39h-1.5v-1.5h1.5V39z M444,39h-1.5v-1.5
	h1.5V39z M441,39h-1.5v-1.5h1.5V39z M450,39h-1.5v-1.5h1.5V39z M441,36h-1.5v-1.5h1.5V36z M447,42h-1.5v-1.5h1.5V42z M444,33h-1.5
	v-1.5h1.5V33z M441,33h-1.5v-1.5h1.5V33z M436.5,45H435V28.5h1.5V45z M447,27v1.5h-12V27H447z M454.5,46.5H453v-12h1.5V46.5z
	 M453,45v1.5h-18V45H453z M448.5,33H447v-6h1.5V33z M454.5,33v1.5H447V33H454.5z M448.5,33v-6l6,6H448.5z"/>
<path style="fill:#646464;" d="M444,90h-1.5v-1.5h1.5V90z M441,90h-1.5v-1.5h1.5V90z M447,87h-1.5v-1.5h1.5V87z M444,87h-1.5v-1.5
	h1.5V87z M441,87h-1.5v-1.5h1.5V87z M450,87h-1.5v-1.5h1.5V87z M441,84h-1.5v-1.5h1.5V84z M447,90h-1.5v-1.5h1.5V90z M444,81h-1.5
	v-1.5h1.5V81z M441,81h-1.5v-1.5h1.5V81z M436.5,93H435V76.5h1.5V93z M447,75v1.5h-12V75H447z M454.5,94.5H453v-12h1.5V94.5z
	 M453,93v1.5h-18V93H453z M448.5,81H447v-6h1.5V81z M454.5,81v1.5H447V81H454.5z M448.5,81v-6l6,6H448.5z"/>
<line style="fill:none;stroke:#000000;stroke-width:1.5;stroke-miterlimit:10;" x1="460.5" y1="19.5" x2="475.5" y2="4.5"/>
<line style="fill:none;stroke:#000000;stroke-width:1.5;stroke-miterlimit:10;" x1="460.5" y1="4.5" x2="475.5" y2="19.5"/>
<line style="fill:none;stroke:#C8C8C8;stroke-width:1.5;stroke-miterlimit:10;" x1="460.5" y1="67.5" x2="475.5" y2="52.5"/>
<line style="fill:none;stroke:#C8C8C8;stroke-width:1.5;stroke-miterlimit:10;" x1="460.5" y1="52.5" x2="475.5" y2="67.5"/>
<line style="fill:none;stroke:#000000;stroke-width:1.5;stroke-miterlimit:10;" x1="460.5" y1="43.5" x2="475.5" y2="28.5"/>
<line style="fill:none;stroke:#000000;stroke-width:1.5;stroke-miterlimit:10;" x1="460.5" y1="28.5" x2="475.5" y2="43.5"/>
<line style="fill:none;stroke:#C8C8C8;stroke-width:1.5;stroke-miterlimit:10;" x1="460.5" y1="91.5" x2="475.5" y2="76.5"/>
<line style="fill:none;stroke:#C8C8C8;stroke-width:1.5;stroke-miterlimit:10;" x1="460.5" y1="76.5" x2="475.5" y2="91.5"/>
<path style="fill:#C8C8C8;" d="M571.5,52.5H555V51h16.5V52.5z M571.5,69H555v-1.5h16.5V69z M556.5,67.5H555v-15h1.5V67.5z M573,69
	h-1.5V51h1.5V69z M565.5,67.5H564v-15h1.5V67.5z M564,67.5h-1.5v-15h1.5V67.5z M556.5,61.5V60h15v1.5H556.5z M556.5,60v-1.5h15V60
	H556.5z M558,67.5h-1.5v-15h1.5V67.5z M571.5,67.5H570v-15h1.5V67.5z M556.5,54v-1.5h15V54H556.5z M556.5,67.5V66h15v1.5H556.5z"/>
<path style="fill:#C8C8C8;" d="M499.5,52.5H483V51h16.5V52.5z M499.5,69H483v-1.5h16.5V69z M484.5,67.5H483v-15h1.5V67.5z M501,69
	h-1.5V51h1.5V69z M493.5,67.5H492v-15h1.5V67.5z M492,67.5h-1.5v-15h1.5V67.5z M484.5,61.5V60h15v1.5H484.5z M484.5,60v-1.5h15V60
	H484.5z M486,67.5h-1.5v-15h1.5V67.5z M499.5,67.5H498v-15h1.5V67.5z M484.5,54v-1.5h15V54H484.5z M484.5,67.5V66h15v1.5H484.5z
	 M498,58.5h-4.5V54h4.5V58.5z M490.5,66H486v-4.5h4.5V66z M498,66h-4.5v-4.5h4.5V66z"/>
<path style="fill:#C8C8C8;" d="M523.5,52.5H507V51h16.5V52.5z M523.5,69H507v-1.5h16.5V69z M508.5,67.5H507v-15h1.5V67.5z M525,69
	h-1.5V51h1.5V69z M517.5,67.5H516v-15h1.5V67.5z M516,67.5h-1.5v-15h1.5V67.5z M508.5,61.5V60h15v1.5H508.5z M508.5,60v-1.5h15V60
	H508.5z M510,67.5h-1.5v-15h1.5V67.5z M523.5,67.5H522v-15h1.5V67.5z M508.5,54v-1.5h15V54H508.5z M508.5,67.5V66h15v1.5H508.5z
	 M514.5,66H510v-4.5h4.5V66z M522,58.5h-4.5V54h4.5V58.5z"/>
<path style="fill:#C8C8C8;" d="M547.5,67.5V51h1.5v16.5H547.5z M531,67.5V51h1.5v16.5H531z M532.5,52.5V51h15v1.5H532.5z M531,69
	v-1.5h18V69H531z M532.5,61.5V60h15v1.5H532.5z M532.5,60v-1.5h15V60H532.5z M538.5,52.5h1.5v15h-1.5V52.5z M540,52.5h1.5v15H540
	V52.5z M532.5,54v-1.5h15V54H532.5z M532.5,67.5V66h15v1.5H532.5z M546,52.5h1.5v15H546V52.5z M532.5,52.5h1.5v15h-1.5V52.5z
	 M534,66v-4.5h4.5V66H534z"/>
<path style="fill:#646464;" d="M571.5,76.5H555V75h16.5V76.5z M571.5,93H555v-1.5h16.5V93z M556.5,91.5H555v-15h1.5V91.5z M573,93
	h-1.5V75h1.5V93z M565.5,91.5H564v-15h1.5V91.5z M564,91.5h-1.5v-15h1.5V91.5z M556.5,85.5V84h15v1.5H556.5z M556.5,84v-1.5h15V84
	H556.5z M558,91.5h-1.5v-15h1.5V91.5z M571.5,91.5H570v-15h1.5V91.5z M556.5,78v-1.5h15V78H556.5z M556.5,91.5V90h15v1.5H556.5z"/>
<path style="fill:#646464;" d="M499.5,76.5H483V75h16.5V76.5z M499.5,93H483v-1.5h16.5V93z M484.5,91.5H483v-15h1.5V91.5z M501,93
	h-1.5V75h1.5V93z M493.5,91.5H492v-15h1.5V91.5z M492,91.5h-1.5v-15h1.5V91.5z M484.5,85.5V84h15v1.5H484.5z M484.5,84v-1.5h15V84
	H484.5z M486,91.5h-1.5v-15h1.5V91.5z M499.5,91.5H498v-15h1.5V91.5z M484.5,78v-1.5h15V78H484.5z M484.5,91.5V90h15v1.5H484.5z
	 M498,82.5h-4.5V78h4.5V82.5z M490.5,90H486v-4.5h4.5V90z M498,90h-4.5v-4.5h4.5V90z"/>
<path style="fill:#646464;" d="M523.5,76.5H507V75h16.5V76.5z M523.5,93H507v-1.5h16.5V93z M508.5,91.5H507v-15h1.5V91.5z M525,93
	h-1.5V75h1.5V93z M517.5,91.5H516v-15h1.5V91.5z M516,91.5h-1.5v-15h1.5V91.5z M508.5,85.5V84h15v1.5H508.5z M508.5,84v-1.5h15V84
	H508.5z M510,91.5h-1.5v-15h1.5V91.5z M523.5,91.5H522v-15h1.5V91.5z M508.5,78v-1.5h15V78H508.5z M508.5,91.5V90h15v1.5H508.5z
	 M514.5,90H510v-4.5h4.5V90z M522,82.5h-4.5V78h4.5V82.5z"/>
<path style="fill:#646464;" d="M547.5,91.5V75h1.5v16.5H547.5z M531,91.5V75h1.5v16.5H531z M532.5,76.5V75h15v1.5H532.5z M531,93
	v-1.5h18V93H531z M532.5,85.5V84h15v1.5H532.5z M532.5,84v-1.5h15V84H532.5z M538.5,76.5h1.5v15h-1.5V76.5z M540,76.5h1.5v15H540
	V76.5z M532.5,78v-1.5h15V78H532.5z M532.5,91.5V90h15v1.5H532.5z M546,76.5h1.5v15H546V76.5z M532.5,76.5h1.5v15h-1.5V76.5z
	 M534,90v-4.5h4.5V90H534z"/>
<path style="fill:#7F7F7F;" d="M571.5,28.5H555V27h16.5V28.5z M571.5,45H555v-1.5h16.5V45z M556.5,43.5H555v-15h1.5V43.5z M573,45
	h-1.5V27h1.5V45z M565.5,43.5H564v-15h1.5V43.5z M564,43.5h-1.5v-15h1.5V43.5z M556.5,37.5V36h15v1.5H556.5z M556.5,36v-1.5h15V36
	H556.5z M558,43.5h-1.5v-15h1.5V43.5z M571.5,43.5H570v-15h1.5V43.5z M556.5,30v-1.5h15V30H556.5z M556.5,43.5V42h15v1.5H556.5z"/>
<path style="fill:#7F7F7F;" d="M499.5,28.5H483V27h16.5V28.5z M499.5,45H483v-1.5h16.5V45z M484.5,43.5H483v-15h1.5V43.5z M501,45
	h-1.5V27h1.5V45z M493.5,43.5H492v-15h1.5V43.5z M492,43.5h-1.5v-15h1.5V43.5z M484.5,37.5V36h15v1.5H484.5z M484.5,36v-1.5h15V36
	H484.5z M486,43.5h-1.5v-15h1.5V43.5z M499.5,43.5H498v-15h1.5V43.5z M484.5,30v-1.5h15V30H484.5z M484.5,43.5V42h15v1.5H484.5z
	 M498,34.5h-4.5V30h4.5V34.5z M490.5,42H486v-4.5h4.5V42z M498,42h-4.5v-4.5h4.5V42z"/>
<path style="fill:#7F7F7F;" d="M523.5,28.5H507V27h16.5V28.5z M523.5,45H507v-1.5h16.5V45z M508.5,43.5H507v-15h1.5V43.5z M525,45
	h-1.5V27h1.5V45z M517.5,43.5H516v-15h1.5V43.5z M516,43.5h-1.5v-15h1.5V43.5z M508.5,37.5V36h15v1.5H508.5z M508.5,36v-1.5h15V36
	H508.5z M510,43.5h-1.5v-15h1.5V43.5z M523.5,43.5H522v-15h1.5V43.5z M508.5,30v-1.5h15V30H508.5z M508.5,43.5V42h15v1.5H508.5z
	 M514.5,42H510v-4.5h4.5V42z M522,34.5h-4.5V30h4.5V34.5z"/>
<path style="fill:#7F7F7F;" d="M547.5,43.5V27h1.5v16.5H547.5z M531,43.5V27h1.5v16.5H531z M532.5,28.5V27h15v1.5H532.5z M531,45
	v-1.5h18V45H531z M532.5,37.5V36h15v1.5H532.5z M532.5,36v-1.5h15V36H532.5z M538.5,28.5h1.5v15h-1.5V28.5z M540,28.5h1.5v15H540
	V28.5z M532.5,30v-1.5h15V30H532.5z M532.5,43.5V42h15v1.5H532.5z M546,28.5h1.5v15H546V28.5z M532.5,28.5h1.5v15h-1.5V28.5z
	 M534,42v-4.5h4.5V42H534z"/>
<path d="M571.5,4.5H555V3h16.5V4.5z M571.5,21H555v-1.5h16.5V21z M556.5,19.5H555v-15h1.5V19.5z M573,21h-1.5V3h1.5V21z M565.5,19.5
	H564v-15h1.5V19.5z M564,19.5h-1.5v-15h1.5V19.5z M556.5,13.5V12h15v1.5H556.5z M556.5,12v-1.5h15V12H556.5z M558,19.5h-1.5v-15h1.5
	V19.5z M571.5,19.5H570v-15h1.5V19.5z M556.5,6V4.5h15V6H556.5z M556.5,19.5V18h15v1.5H556.5z"/>
<path d="M499.5,4.5H483V3h16.5V4.5z M499.5,21H483v-1.5h16.5V21z M484.5,19.5H483v-15h1.5V19.5z M501,21h-1.5V3h1.5V21z M493.5,19.5
	H492v-15h1.5V19.5z M492,19.5h-1.5v-15h1.5V19.5z M484.5,13.5V12h15v1.5H484.5z M484.5,12v-1.5h15V12H484.5z M486,19.5h-1.5v-15h1.5
	V19.5z M499.5,19.5H498v-15h1.5V19.5z M484.5,6V4.5h15V6H484.5z M484.5,19.5V18h15v1.5H484.5z M498,10.5h-4.5V6h4.5V10.5z M490.5,18
	H486v-4.5h4.5V18z M498,18h-4.5v-4.5h4.5V18z"/>
<path d="M523.5,4.5H507V3h16.5V4.5z M523.5,21H507v-1.5h16.5V21z M508.5,19.5H507v-15h1.5V19.5z M525,21h-1.5V3h1.5V21z M517.5,19.5
	H516v-15h1.5V19.5z M516,19.5h-1.5v-15h1.5V19.5z M508.5,13.5V12h15v1.5H508.5z M508.5,12v-1.5h15V12H508.5z M510,19.5h-1.5v-15h1.5
	V19.5z M523.5,19.5H522v-15h1.5V19.5z M508.5,6V4.5h15V6H508.5z M508.5,19.5V18h15v1.5H508.5z M514.5,18H510v-4.5h4.5V18z M522,10.5
	h-4.5V6h4.5V10.5z"/>
<path d="M547.5,19.5V3h1.5v16.5H547.5z M531,19.5V3h1.5v16.5H531z M532.5,4.5V3h15v1.5H532.5z M531,21v-1.5h18V21H531z M532.5,13.5
	V12h15v1.5H532.5z M532.5,12v-1.5h15V12H532.5z M538.5,4.5h1.5v15h-1.5V4.5z M540,4.5h1.5v15H540V4.5z M532.5,6V4.5h15V6H532.5z
	 M532.5,19.5V18h15v1.5H532.5z M546,4.5h1.5v15H546V4.5z M532.5,4.5h1.5v15h-1.5V4.5z M534,18v-4.5h4.5V18H534z"/>
<path id="path4276_2_" inkscape:connector-curvature="0" style="fill:none;stroke:#FF0000;stroke-width:1.5;" d="M365.2,29.2
	l13.5,13.5"/>
<path id="path4276_1_" inkscape:connector-curvature="0" style="fill:none;stroke:#FF0000;stroke-width:1.5;" d="M365.2,77.2
	l13.5,13.5"/>
</svg>
