<?xml version="1.0" encoding="utf-8"?>
<!-- Generator: Adobe Illustrator 25.2.0, SVG Export Plug-In . SVG Version: 6.00 Build 0)  -->
<svg version="1.1"
	 id="svg3341" xmlns:cc="http://creativecommons.org/ns#" xmlns:dc="http://purl.org/dc/elements/1.1/" xmlns:inkscape="http://www.inkscape.org/namespaces/inkscape" xmlns:rdf="http://www.w3.org/1999/02/22-rdf-syntax-ns#" xmlns:sodipodi="http://sodipodi.sourceforge.net/DTD/sodipodi-0.dtd" xmlns:svg="http://www.w3.org/2000/svg"
	 xmlns="http://www.w3.org/2000/svg" xmlns:xlink="http://www.w3.org/1999/xlink" x="0px" y="0px" viewBox="0 0 1664 256"
	 style="enable-background:new 0 0 1664 256;" xml:space="preserve">
<sodipodi:namedview  bordercolor="#666666" borderopacity="1.0" id="base" inkscape:current-layer="layer1" inkscape:cx="144.97634" inkscape:cy="-0.056865311" inkscape:document-units="px" inkscape:pageopacity="0.0" inkscape:pageshadow="2" inkscape:snap-grids="true" inkscape:window-height="966" inkscape:window-maximized="1" inkscape:window-width="1680" inkscape:window-x="-8" inkscape:window-y="-8" inkscape:zoom="2.0875" pagecolor="#ffffff" showgrid="true" units="px">
	<inkscape:grid  id="grid3353" type="xygrid"></inkscape:grid>
</sodipodi:namedview>
<path id="path4159" inkscape:flatsided="true" inkscape:randomized="0" inkscape:rounded="0" inkscape:transform-center-x="-1.833329" inkscape:transform-center-y="-6.7848101e-005" sodipodi:arg1="2.0943951" sodipodi:arg2="3.1415927" sodipodi:cx="3" sodipodi:cy="1039.3621" sodipodi:r1="4.472136" sodipodi:r2="2.236068" sodipodi:sides="3" sodipodi:type="star" style="fill:#C8C8C8;" d="
	M12,180v-44l44,22L12,180z"/>
<rect id="rect4161" x="80" y="140" style="fill:#C8C8C8;" width="12" height="36"/>
<rect id="rect4163" x="100" y="140" style="fill:#C8C8C8;" width="12" height="36"/>
<rect id="rect4165" x="144" y="140" style="fill:#C8C8C8;" width="32" height="36"/>
<rect id="rect4167" x="200" y="144" style="fill:#C8C8C8;" width="4" height="28"/>
<path id="path4169" inkscape:flatsided="true" inkscape:randomized="0" inkscape:rounded="0" inkscape:transform-center-x="0.66666139" inkscape:transform-center-y="-3.0343961e-005" sodipodi:arg1="3.1415927" sodipodi:arg2="4.1887902" sodipodi:cx="73" sodipodi:cy="1040.3621" sodipodi:r1="2" sodipodi:r2="1" sodipodi:sides="3" sodipodi:type="star" style="fill:#C8C8C8;" d="
	M208,158l16-14v28L208,158z"/>
<path id="path4171" inkscape:flatsided="true" inkscape:randomized="0" inkscape:rounded="0" inkscape:transform-center-x="0.66666139" inkscape:transform-center-y="-3.0343961e-005" sodipodi:arg1="3.1415927" sodipodi:arg2="4.1887902" sodipodi:cx="73" sodipodi:cy="1040.3621" sodipodi:r1="2" sodipodi:r2="1" sodipodi:sides="3" sodipodi:type="star" style="fill:#C8C8C8;" d="
	M228,158l16-14v28L228,158z"/>
<path id="path4173" inkscape:flatsided="true" inkscape:randomized="0" inkscape:rounded="0" inkscape:transform-center-x="0.66666139" inkscape:transform-center-y="-3.0343961e-005" sodipodi:arg1="3.1415927" sodipodi:arg2="4.1887902" sodipodi:cx="73" sodipodi:cy="1040.3621" sodipodi:r1="2" sodipodi:r2="1" sodipodi:sides="3" sodipodi:type="star" style="fill:#C8C8C8;" d="
	M460,158l16-14v28L460,158z"/>
<path id="path4175" inkscape:flatsided="true" inkscape:randomized="0" inkscape:rounded="0" inkscape:transform-center-x="0.66666139" inkscape:transform-center-y="-3.0343961e-005" sodipodi:arg1="3.1415927" sodipodi:arg2="4.1887902" sodipodi:cx="73" sodipodi:cy="1040.3621" sodipodi:r1="2" sodipodi:r2="1" sodipodi:sides="3" sodipodi:type="star" style="fill:#C8C8C8;" d="
	M480,158l16-14v28L480,158z"/>
<rect id="rect4177" x="304" y="144" style="fill:#C8C8C8;" width="4" height="28"/>
<path id="path4179" inkscape:flatsided="true" inkscape:randomized="0" inkscape:rounded="0" inkscape:transform-center-x="-0.666658" sodipodi:arg1="3.1415927" sodipodi:arg2="4.1887902" sodipodi:cx="73" sodipodi:cy="1040.3621" sodipodi:r1="2" sodipodi:r2="1" sodipodi:sides="3" sodipodi:type="star" style="fill:#C8C8C8;" d="
	M300,158l-16,14v-28L300,158z"/>
<path id="path4181" inkscape:flatsided="true" inkscape:randomized="0" inkscape:rounded="0" inkscape:transform-center-x="-0.666658" sodipodi:arg1="3.1415927" sodipodi:arg2="4.1887902" sodipodi:cx="73" sodipodi:cy="1040.3621" sodipodi:r1="2" sodipodi:r2="1" sodipodi:sides="3" sodipodi:type="star" style="fill:#C8C8C8;" d="
	M280,158l-16,14v-28L280,158z"/>
<path id="path4183" inkscape:flatsided="true" inkscape:randomized="0" inkscape:rounded="0" inkscape:transform-center-x="-0.666658" sodipodi:arg1="3.1415927" sodipodi:arg2="4.1887902" sodipodi:cx="73" sodipodi:cy="1040.3621" sodipodi:r1="2" sodipodi:r2="1" sodipodi:sides="3" sodipodi:type="star" style="fill:#C8C8C8;" d="
	M564,158l-16,14v-28L564,158z"/>
<path id="path4185" inkscape:flatsided="true" inkscape:randomized="0" inkscape:rounded="0" inkscape:transform-center-x="-0.666658" sodipodi:arg1="3.1415927" sodipodi:arg2="4.1887902" sodipodi:cx="73" sodipodi:cy="1040.3621" sodipodi:r1="2" sodipodi:r2="1" sodipodi:sides="3" sodipodi:type="star" style="fill:#C8C8C8;" d="
	M544,158l-16,14v-28L544,158z"/>
<rect id="rect4187" x="592" y="144" style="fill:#C8C8C8;" width="8" height="28"/>
<path style="fill:#C8C8C8;" d="M608,144h4v28h-4V144z M628,158l-16,14v-28L628,158z"/>
<path id="path4179-5" inkscape:flatsided="true" inkscape:randomized="0" inkscape:rounded="0" inkscape:transform-center-x="1.3333156" inkscape:transform-center-y="-0.00016308799" sodipodi:arg1="3.1415927" sodipodi:arg2="4.1887902" sodipodi:cx="73" sodipodi:cy="1040.3621" sodipodi:r1="2" sodipodi:r2="1" sodipodi:sides="3" sodipodi:type="star" style="fill:#C8C8C8;" d="
	M1536,160l32-28v56L1536,160z"/>
<rect id="rect4187-3" x="1536" y="148" style="fill:#C8C8C8;" width="16" height="24"/>
<rect id="rect4181-4" x="1600" y="-64" style="fill-rule:evenodd;clip-rule:evenodd;fill:#F600FF;" width="64" height="64"/>
<rect id="rect4181-4-8" x="1536" y="-64" style="fill-rule:evenodd;clip-rule:evenodd;fill:#7200FF;" width="64" height="64"/>
<path id="path4230" sodipodi:cx="200.42171" sodipodi:cy="1044.3516" sodipodi:end="1.4835299" sodipodi:open="true" sodipodi:rx="1.1333569" sodipodi:ry="1.0653899" sodipodi:start="4.7996554" sodipodi:type="arc" style="fill:none;stroke:#C8C8C8;stroke-width:0.5;" d="
	M1570,155.6c2.4,0,4,2,4,4.4s-1.6,4-4,4.4"/>
<path id="path4230-0" sodipodi:cx="201.32703" sodipodi:cy="1044.3516" sodipodi:end="1.4835299" sodipodi:open="true" sodipodi:rx="2.2667139" sodipodi:ry="2.1307797" sodipodi:start="4.7996554" sodipodi:type="arc" style="fill:none;stroke:#C8C8C8;stroke-width:0.6;" d="
	M1574,151.2c4.8,0.4,8.4,4,8.4,8.4s-3.6,8-8.4,8.4"/>
<path id="path4230-0-7" sodipodi:cx="201.63358" sodipodi:cy="1044.3519" sodipodi:end="1.4835299" sodipodi:open="true" sodipodi:rx="4.5334277" sodipodi:ry="4.2615595" sodipodi:start="4.7996554" sodipodi:type="arc" style="fill:none;stroke:#C8C8C8;stroke-width:0.7;" d="
	M1576,142.8c9.2,0.8,16.4,8,16.4,16.8s-7.2,16.4-16.4,16.8"/>
<path id="path4262" inkscape:flatsided="true" inkscape:randomized="0" inkscape:rounded="0" inkscape:transform-center-x="1.3333156" inkscape:transform-center-y="-0.00016308799" sodipodi:arg1="3.1415927" sodipodi:arg2="4.1887902" sodipodi:cx="73" sodipodi:cy="1040.3621" sodipodi:r1="2" sodipodi:r2="1" sodipodi:sides="3" sodipodi:type="star" style="fill:#C8C8C8;" d="
	M1616,160l32-28v56L1616,160z"/>
<rect id="rect4264" x="1616" y="148" style="fill:#C8C8C8;" width="16" height="24"/>
<path style="fill:#C8C8C8;" d="M1616,224l32-28v56L1616,224z M1616,212h16v24h-16V212z"/>
<path id="path4276" inkscape:connector-curvature="0" style="fill:none;stroke:#FF0000;stroke-width:4;" d="M1608,136l48,48"/>
<path id="path4159_1_" inkscape:flatsided="true" inkscape:randomized="0" inkscape:rounded="0" inkscape:transform-center-x="-1.833329" inkscape:transform-center-y="-6.7848101e-005" sodipodi:arg1="2.0943951" sodipodi:arg2="3.1415927" sodipodi:cx="3" sodipodi:cy="1039.3621" sodipodi:r1="4.472136" sodipodi:r2="2.236068" sodipodi:sides="3" sodipodi:type="star" style="fill:#646464;" d="
	M12,244v-44l44,22L12,244z"/>
<rect id="rect4161_1_" x="80" y="204" style="fill:#646464;" width="12" height="36"/>
<rect id="rect4163_1_" x="100" y="204" style="fill:#646464;" width="12" height="36"/>
<rect id="rect4165_1_" x="144" y="204" style="fill:#646464;" width="32" height="36"/>
<rect id="rect4167_1_" x="200" y="208" style="fill:#646464;" width="4" height="28"/>
<path id="path4169_1_" inkscape:flatsided="true" inkscape:randomized="0" inkscape:rounded="0" inkscape:transform-center-x="0.66666139" inkscape:transform-center-y="-3.0343961e-005" sodipodi:arg1="3.1415927" sodipodi:arg2="4.1887902" sodipodi:cx="73" sodipodi:cy="1040.3621" sodipodi:r1="2" sodipodi:r2="1" sodipodi:sides="3" sodipodi:type="star" style="fill:#646464;" d="
	M208,222l16-14v28L208,222z"/>
<path id="path4171_1_" inkscape:flatsided="true" inkscape:randomized="0" inkscape:rounded="0" inkscape:transform-center-x="0.66666139" inkscape:transform-center-y="-3.0343961e-005" sodipodi:arg1="3.1415927" sodipodi:arg2="4.1887902" sodipodi:cx="73" sodipodi:cy="1040.3621" sodipodi:r1="2" sodipodi:r2="1" sodipodi:sides="3" sodipodi:type="star" style="fill:#646464;" d="
	M228,222l16-14v28L228,222z"/>
<path id="path4173_1_" inkscape:flatsided="true" inkscape:randomized="0" inkscape:rounded="0" inkscape:transform-center-x="0.66666139" inkscape:transform-center-y="-3.0343961e-005" sodipodi:arg1="3.1415927" sodipodi:arg2="4.1887902" sodipodi:cx="73" sodipodi:cy="1040.3621" sodipodi:r1="2" sodipodi:r2="1" sodipodi:sides="3" sodipodi:type="star" style="fill:#646464;" d="
	M460,222l16-14v28L460,222z"/>
<path id="path4175_1_" inkscape:flatsided="true" inkscape:randomized="0" inkscape:rounded="0" inkscape:transform-center-x="0.66666139" inkscape:transform-center-y="-3.0343961e-005" sodipodi:arg1="3.1415927" sodipodi:arg2="4.1887902" sodipodi:cx="73" sodipodi:cy="1040.3621" sodipodi:r1="2" sodipodi:r2="1" sodipodi:sides="3" sodipodi:type="star" style="fill:#646464;" d="
	M480,222l16-14v28L480,222z"/>
<rect id="rect4177_1_" x="304" y="208" style="fill:#646464;" width="4" height="28"/>
<path id="path4179_1_" inkscape:flatsided="true" inkscape:randomized="0" inkscape:rounded="0" inkscape:transform-center-x="-0.666658" sodipodi:arg1="3.1415927" sodipodi:arg2="4.1887902" sodipodi:cx="73" sodipodi:cy="1040.3621" sodipodi:r1="2" sodipodi:r2="1" sodipodi:sides="3" sodipodi:type="star" style="fill:#646464;" d="
	M300,222l-16,14v-28L300,222z"/>
<path id="path4181_1_" inkscape:flatsided="true" inkscape:randomized="0" inkscape:rounded="0" inkscape:transform-center-x="-0.666658" sodipodi:arg1="3.1415927" sodipodi:arg2="4.1887902" sodipodi:cx="73" sodipodi:cy="1040.3621" sodipodi:r1="2" sodipodi:r2="1" sodipodi:sides="3" sodipodi:type="star" style="fill:#646464;" d="
	M280,222l-16,14v-28L280,222z"/>
<path id="path4183_1_" inkscape:flatsided="true" inkscape:randomized="0" inkscape:rounded="0" inkscape:transform-center-x="-0.666658" sodipodi:arg1="3.1415927" sodipodi:arg2="4.1887902" sodipodi:cx="73" sodipodi:cy="1040.3621" sodipodi:r1="2" sodipodi:r2="1" sodipodi:sides="3" sodipodi:type="star" style="fill:#646464;" d="
	M564,222l-16,14v-28L564,222z"/>
<path id="path4185_1_" inkscape:flatsided="true" inkscape:randomized="0" inkscape:rounded="0" inkscape:transform-center-x="-0.666658" sodipodi:arg1="3.1415927" sodipodi:arg2="4.1887902" sodipodi:cx="73" sodipodi:cy="1040.3621" sodipodi:r1="2" sodipodi:r2="1" sodipodi:sides="3" sodipodi:type="star" style="fill:#646464;" d="
	M544,222l-16,14v-28L544,222z"/>
<rect id="rect4187_1_" x="592" y="208" style="fill:#646464;" width="8" height="28"/>
<path style="fill:#646464;" d="M608,208h4v28h-4V208z M628,222l-16,14v-28L628,222z"/>
<polygon points="12,52 12,8 56,30 "/>
<rect x="80" y="12" width="12" height="36"/>
<rect x="100" y="12" width="12" height="36"/>
<rect x="144" y="12" width="32" height="36"/>
<rect x="200" y="16" width="4" height="28"/>
<polygon points="208,30 224,16 224,44 "/>
<polygon points="228,30 244,16 244,44 "/>
<polygon points="460,30 476,16 476,44 "/>
<polygon points="480,30 496,16 496,44 "/>
<rect x="304" y="16" width="4" height="28"/>
<polygon points="300,30 284,44 284,16 "/>
<polygon points="280,30 264,44 264,16 "/>
<polygon points="564,30 548,44 548,16 "/>
<polygon points="544,30 528,44 528,16 "/>
<rect x="592" y="16" width="8" height="28"/>
<path d="M612,44h-4V16h4V44z M628,30l-16,14V16L628,30z"/>
<polygon points="1536,32 1568,4 1568,60 "/>
<path d="M1552,44h-16V20h16V44z"/>
<path style="fill:none;stroke:#000000;stroke-width:0.5;" d="M1570,27.6c2.4,0,4,2,4,4.4s-1.6,4-4,4.4"/>
<path style="fill:none;stroke:#000000;stroke-width:0.6;" d="M1574,23.6c4.8,0.4,8.4,4,8.4,8.4s-3.6,8-8.4,8.4"/>
<path style="fill:none;stroke:#000000;stroke-width:0.7;" d="M1576,14.8c9.2,0.8,16.4,8,16.4,16.8s-7.2,16.4-16.4,16.8"/>
<path d="M1616,32l32-28v56L1616,32z"/>
<rect x="1616" y="20" width="16" height="24"/>
<path d="M1616,96l32-28v56L1616,96z M1632,108h-16V84h16V108z"/>
<path style="fill:none;stroke:#FF0000;stroke-width:4;" d="M1608,8l48,48"/>
<polygon style="fill:#7F7F7F;" points="12,116 12,72 56,94 "/>
<rect x="80" y="76" style="fill:#7F7F7F;" width="12" height="36"/>
<rect x="100" y="76" style="fill:#7F7F7F;" width="12" height="36"/>
<rect x="144" y="76" style="fill:#7F7F7F;" width="32" height="36"/>
<rect x="200" y="80" style="fill:#7F7F7F;" width="4" height="28"/>
<polygon style="fill:#7F7F7F;" points="208,94 224,80 224,108 "/>
<polygon style="fill:#7F7F7F;" points="228,94 244,80 244,108 "/>
<polygon style="fill:#7F7F7F;" points="460,94 476,80 476,108 "/>
<polygon style="fill:#7F7F7F;" points="480,94 496,80 496,108 "/>
<rect x="304" y="80" style="fill:#7F7F7F;" width="4" height="28"/>
<polygon style="fill:#7F7F7F;" points="300,94 284,108 284,80 "/>
<polygon style="fill:#7F7F7F;" points="280,94 264,108 264,80 "/>
<polygon style="fill:#7F7F7F;" points="564,94 548,108 548,80 "/>
<polygon style="fill:#7F7F7F;" points="544,94 528,108 528,80 "/>
<rect x="592" y="80" style="fill:#7F7F7F;" width="8" height="28"/>
<path style="fill:#7F7F7F;" d="M612,108h-4V80h4V108z M628,94l-16,14V80L628,94z"/>
<rect x="1024" y="-64" width="64" height="64"/>
<rect id="rect4165_47_" x="320" y="24" width="4" height="12"/>
<polygon style="fill:#7F7F7F;" points="1536,96 1568,68 1568,124 "/>
<path style="fill:#7F7F7F;" d="M1552,108h-16V84h16V108z"/>
<path style="fill:none;stroke:#7F7F7F;stroke-width:0.5;" d="M1570,91.6c2.4,0,4,2,4,4.4s-1.6,4-4,4.4"/>
<path style="fill:none;stroke:#7F7F7F;stroke-width:0.6;" d="M1574,87.6c4.8,0.4,8.4,4,8.4,8.4s-3.6,8-8.4,8.4"/>
<path id="path4179-5_1_" inkscape:flatsided="true" inkscape:randomized="0" inkscape:rounded="0" inkscape:transform-center-x="1.3333156" inkscape:transform-center-y="-0.00016308799" sodipodi:arg1="3.1415927" sodipodi:arg2="4.1887902" sodipodi:cx="73" sodipodi:cy="1040.3621" sodipodi:r1="2" sodipodi:r2="1" sodipodi:sides="3" sodipodi:type="star" style="fill:#646464;" d="
	M1536,224l32-28v56L1536,224z"/>
<rect id="rect4187-3_1_" x="1536" y="212" style="fill:#646464;" width="16" height="24"/>
<path id="path4230_1_" sodipodi:cx="200.42171" sodipodi:cy="1044.3516" sodipodi:end="1.4835299" sodipodi:open="true" sodipodi:rx="1.1333569" sodipodi:ry="1.0653899" sodipodi:start="4.7996554" sodipodi:type="arc" style="fill:none;stroke:#646464;stroke-width:0.5;" d="
	M1570,219.6c2.4,0,4,2,4,4.4s-1.6,4-4,4.4"/>
<path id="path4230-0_1_" sodipodi:cx="201.32703" sodipodi:cy="1044.3516" sodipodi:end="1.4835299" sodipodi:open="true" sodipodi:rx="2.2667139" sodipodi:ry="2.1307797" sodipodi:start="4.7996554" sodipodi:type="arc" style="fill:none;stroke:#646464;stroke-width:0.6;" d="
	M1574,215.2c4.8,0.4,8.4,4,8.4,8.4s-3.6,8-8.4,8.4"/>
<g>
	<path d="M414.8,39.2c-0.8,0.4-2.8,1.2-5.6,1.2c-6,0-9.6-4-9.6-10S403.6,20,410,20c2,0,4,0.4,4.8,0.8l-0.8,2.8c-0.8-0.4-2-0.8-4-0.8
		c-4.4,0-6.8,3.2-6.8,7.2c0,4.4,2.8,7.2,6.8,7.2c2,0,3.2-0.4,4.4-0.8L414.8,39.2z"/>
	<path d="M432.8,39.2c-0.8,0.4-2.8,1.2-5.6,1.2c-6,0-9.6-4-9.6-10S421.6,20,428,20c2,0,4,0.4,4.8,0.8l-0.8,2.8c-0.8-0.4-2-0.8-4-0.8
		c-4.4,0-6.8,3.2-6.8,7.2c0,4.4,2.8,7.2,6.8,7.2c2,0,3.2-0.4,4.4-0.8L432.8,39.2z"/>
</g>
<g>
	<path style="fill:#7F7F7F;" d="M414.8,103.2c-0.8,0.4-2.8,1.2-5.6,1.2c-6,0-9.6-4-9.6-10S403.6,84,410,84c2,0,4,0.4,4.8,0.8
		l-0.8,2.8c-0.8-0.4-2-0.8-4-0.8c-4.4,0-6.8,3.2-6.8,7.2c0,4.4,2.8,7.2,6.8,7.2c2,0,3.2-0.4,4.4-0.8L414.8,103.2z"/>
	<path style="fill:#7F7F7F;" d="M432.8,103.2c-0.8,0.4-2.8,1.2-5.6,1.2c-6,0-9.6-4-9.6-10S421.6,84,428,84c2,0,4,0.4,4.8,0.8
		l-0.8,2.8c-0.8-0.4-2-0.8-4-0.8c-4.4,0-6.8,3.2-6.8,7.2c0,4.4,2.8,7.2,6.8,7.2c2,0,3.2-0.4,4.4-0.8L432.8,103.2z"/>
</g>
<g>
	<path style="fill:#C8C8C8;" d="M414.8,167.2c-0.8,0.4-2.8,1.2-5.6,1.2c-6,0-9.6-4-9.6-10s4-10.4,10.4-10.4c2,0,4,0.4,4.8,0.8
		l-0.8,2.8c-0.8-0.4-2-0.8-4-0.8c-4.4,0-6.8,3.2-6.8,7.2c0,4.4,2.8,7.2,6.8,7.2c2,0,3.2-0.4,4.4-0.8L414.8,167.2z"/>
	<path style="fill:#C8C8C8;" d="M432.8,167.2c-0.8,0.4-2.8,1.2-5.6,1.2c-6,0-9.6-4-9.6-10s4-10.4,10.4-10.4c2,0,4,0.4,4.8,0.8
		l-0.8,2.8c-0.8-0.4-2-0.8-4-0.8c-4.4,0-6.8,3.2-6.8,7.2c0,4.4,2.8,7.2,6.8,7.2c2,0,3.2-0.4,4.4-0.8L432.8,167.2z"/>
</g>
<g>
	<path style="fill:#646464;" d="M414.8,231.2c-0.8,0.4-2.8,1.2-5.6,1.2c-6,0-9.6-4-9.6-10s4-10.4,10.4-10.4c2,0,4,0.4,4.8,0.8
		l-0.8,2.8c-0.8-0.4-2-0.8-4-0.8c-4.4,0-6.8,3.2-6.8,7.2c0,4.4,2.8,7.2,6.8,7.2c2,0,3.2-0.4,4.4-0.8L414.8,231.2z"/>
	<path style="fill:#646464;" d="M432.8,231.2c-0.8,0.4-2.8,1.2-5.6,1.2c-6,0-9.6-4-9.6-10s4-10.4,10.4-10.4c2,0,4,0.4,4.8,0.8
		l-0.8,2.8c-0.8-0.4-2-0.8-4-0.8c-4.4,0-6.8,3.2-6.8,7.2c0,4.4,2.8,7.2,6.8,7.2c2,0,3.2-0.4,4.4-0.8L432.8,231.2z"/>
</g>
<rect x="656" y="40" width="32" height="8"/>
<path d="M688,28v4h-32v-4H688z M672,12l16,16h-32L672,12z"/>
<rect id="rect4165_6_" x="716" y="12" width="4" height="40"/>
<rect id="rect4165_7_" x="712" y="16" width="12" height="4"/>
<rect id="rect4165_48_" x="728" y="40" width="12" height="4"/>
<rect id="rect4165_49_" x="744" y="32" width="12" height="4"/>
<g>
	<polyline style="fill:none;stroke:#000000;stroke-width:4;stroke-miterlimit:10;" points="900,22 912.4,22 931.6,46 944,46 	"/>
</g>
<rect id="rect4165_103_" x="844" y="208" style="fill:#C8C8C8;" width="40" height="4"/>
<rect id="rect4165_102_" x="844" y="220" style="fill:#C8C8C8;" width="40" height="4"/>
<rect id="rect4165_97_" x="844" y="232" style="fill:#C8C8C8;" width="20" height="4"/>
<polygon style="fill:#C8C8C8;" points="884,236 872,244 872,228 "/>
<line style="fill:none;stroke:#C8C8C8;stroke-width:2;stroke-miterlimit:10;" x1="870" y1="166" x2="882" y2="178"/>
<line style="fill:none;stroke:#C8C8C8;stroke-width:2;stroke-miterlimit:10;" x1="870" y1="178" x2="882" y2="166"/>
<rect id="rect4165_17_" x="844" y="144" style="fill:#C8C8C8;" width="40" height="4"/>
<rect id="rect4165_16_" x="844" y="156" style="fill:#C8C8C8;" width="40" height="4"/>
<rect id="rect4165_10_" x="844" y="168" style="fill:#C8C8C8;" width="20" height="4"/>
<rect id="rect4165_105_" x="844" y="80" width="40" height="4"/>
<rect id="rect4165_104_" x="844" y="92" width="40" height="4"/>
<rect id="rect4165_101_" x="844" y="104" width="20" height="4"/>
<polygon points="884,108 872,116 872,100 "/>
<line style="fill:none;stroke:#000000;stroke-width:2;stroke-miterlimit:10;" x1="870" y1="38" x2="882" y2="50"/>
<line style="fill:none;stroke:#000000;stroke-width:2;stroke-miterlimit:10;" x1="870" y1="50" x2="882" y2="38"/>
<rect id="rect4165_100_" x="844" y="16" width="40" height="4"/>
<rect id="rect4165_99_" x="844" y="28" width="40" height="4"/>
<rect id="rect4165_98_" x="844" y="40" width="20" height="4"/>
<rect id="rect4165_67_" x="780" y="112" width="16" height="4"/>
<rect id="rect4165_66_" x="780" y="100" width="4" height="16"/>
<rect id="rect4165_73_" x="780" y="76" width="4" height="16"/>
<rect id="rect4165_106_" x="804" y="112" width="16" height="4"/>
<rect id="rect4165_68_" x="780" y="76" width="16" height="4"/>
<rect id="rect4165_69_" x="804" y="76" width="16" height="4"/>
<rect id="rect4165_70_" x="816" y="76" width="4" height="16"/>
<rect id="rect4165_71_" x="816" y="100" width="4" height="16"/>
<rect id="rect4165_137_" x="780" y="112" width="16" height="4"/>
<rect id="rect4165_136_" x="780" y="100" width="4" height="16"/>
<rect id="rect4165_135_" x="780" y="76" width="4" height="16"/>
<rect id="rect4165_134_" x="804" y="112" width="16" height="4"/>
<rect id="rect4165_109_" x="780" y="76" width="16" height="4"/>
<rect id="rect4165_108_" x="804" y="76" width="16" height="4"/>
<rect id="rect4165_107_" x="816" y="76" width="4" height="16"/>
<rect id="rect4165_72_" x="816" y="100" width="4" height="16"/>
<rect id="rect4165_88_" x="780" y="240" style="fill:#C8C8C8;" width="16" height="4"/>
<rect id="rect4165_87_" x="780" y="228" style="fill:#C8C8C8;" width="4" height="16"/>
<rect id="rect4165_86_" x="780" y="204" style="fill:#C8C8C8;" width="4" height="16"/>
<rect id="rect4165_85_" x="804" y="240" style="fill:#C8C8C8;" width="16" height="4"/>
<rect id="rect4165_84_" x="780" y="204" style="fill:#C8C8C8;" width="16" height="4"/>
<rect id="rect4165_83_" x="804" y="204" style="fill:#C8C8C8;" width="16" height="4"/>
<rect id="rect4165_82_" x="816" y="204" style="fill:#C8C8C8;" width="4" height="16"/>
<rect id="rect4165_81_" x="816" y="228" style="fill:#C8C8C8;" width="4" height="16"/>
<rect id="rect4165_80_" x="780" y="240" style="fill:#C8C8C8;" width="16" height="4"/>
<rect id="rect4165_79_" x="780" y="228" style="fill:#C8C8C8;" width="4" height="16"/>
<rect id="rect4165_78_" x="780" y="204" style="fill:#C8C8C8;" width="4" height="16"/>
<rect id="rect4165_77_" x="804" y="240" style="fill:#C8C8C8;" width="16" height="4"/>
<rect id="rect4165_76_" x="780" y="204" style="fill:#C8C8C8;" width="16" height="4"/>
<rect id="rect4165_75_" x="804" y="204" style="fill:#C8C8C8;" width="16" height="4"/>
<rect id="rect4165_74_" x="816" y="204" style="fill:#C8C8C8;" width="4" height="16"/>
<rect id="rect4165_11_" x="816" y="228" style="fill:#C8C8C8;" width="4" height="16"/>
<rect id="rect4165_145_" x="780" y="36" width="16" height="4"/>
<rect id="rect4165_144_" x="792" y="36" width="4" height="16"/>
<rect id="rect4165_143_" x="792" y="12" width="4" height="16"/>
<rect id="rect4165_142_" x="804" y="36" width="16" height="4"/>
<rect id="rect4165_141_" x="780" y="24" width="16" height="4"/>
<rect id="rect4165_140_" x="804" y="24" width="16" height="4"/>
<rect id="rect4165_139_" x="804" y="12" width="4" height="16"/>
<rect id="rect4165_138_" x="804" y="36" width="4" height="16"/>
<rect id="rect4165_96_" x="780" y="36" width="16" height="4"/>
<rect id="rect4165_95_" x="792" y="36" width="4" height="16"/>
<rect id="rect4165_94_" x="792" y="12" width="4" height="16"/>
<rect id="rect4165_93_" x="804" y="36" width="16" height="4"/>
<rect id="rect4165_92_" x="780" y="24" width="16" height="4"/>
<rect id="rect4165_91_" x="804" y="24" width="16" height="4"/>
<rect id="rect4165_90_" x="804" y="12" width="4" height="16"/>
<rect id="rect4165_89_" x="804" y="36" width="4" height="16"/>
<rect id="rect4165_161_" x="780" y="164" style="fill:#C8C8C8;" width="16" height="4"/>
<rect id="rect4165_160_" x="792" y="164" style="fill:#C8C8C8;" width="4" height="16"/>
<rect id="rect4165_159_" x="792" y="140" style="fill:#C8C8C8;" width="4" height="16"/>
<rect id="rect4165_158_" x="804" y="164" style="fill:#C8C8C8;" width="16" height="4"/>
<rect id="rect4165_157_" x="780" y="152" style="fill:#C8C8C8;" width="16" height="4"/>
<rect id="rect4165_156_" x="804" y="152" style="fill:#C8C8C8;" width="16" height="4"/>
<rect id="rect4165_155_" x="804" y="140" style="fill:#C8C8C8;" width="4" height="16"/>
<rect id="rect4165_154_" x="804" y="164" style="fill:#C8C8C8;" width="4" height="16"/>
<rect id="rect4165_153_" x="780" y="164" style="fill:#C8C8C8;" width="16" height="4"/>
<rect id="rect4165_152_" x="792" y="164" style="fill:#C8C8C8;" width="4" height="16"/>
<rect id="rect4165_151_" x="792" y="140" style="fill:#C8C8C8;" width="4" height="16"/>
<rect id="rect4165_150_" x="804" y="164" style="fill:#C8C8C8;" width="16" height="4"/>
<rect id="rect4165_149_" x="780" y="152" style="fill:#C8C8C8;" width="16" height="4"/>
<rect id="rect4165_148_" x="804" y="152" style="fill:#C8C8C8;" width="16" height="4"/>
<rect id="rect4165_147_" x="804" y="140" style="fill:#C8C8C8;" width="4" height="16"/>
<rect id="rect4165_146_" x="804" y="164" style="fill:#C8C8C8;" width="4" height="16"/>
<rect id="rect4165_4_" x="732" y="12" width="4" height="40"/>
<rect id="rect4165_5_" x="748" y="12" width="4" height="40"/>
<rect id="rect4165_53_" x="716" y="76" style="fill:#7F7F7F;" width="4" height="40"/>
<rect id="rect4165_52_" x="712" y="80" style="fill:#7F7F7F;" width="12" height="4"/>
<rect id="rect4165_51_" x="728" y="104" style="fill:#7F7F7F;" width="12" height="4"/>
<rect id="rect4165_50_" x="744" y="96" style="fill:#7F7F7F;" width="12" height="4"/>
<rect id="rect4165_9_" x="732" y="76" style="fill:#7F7F7F;" width="4" height="40"/>
<rect id="rect4165_8_" x="748" y="76" style="fill:#7F7F7F;" width="4" height="40"/>
<rect id="rect4165_59_" x="716" y="140" style="fill:#C8C8C8;" width="4" height="40"/>
<rect id="rect4165_58_" x="712" y="144" style="fill:#C8C8C8;" width="12" height="4"/>
<rect id="rect4165_57_" x="728" y="168" style="fill:#C8C8C8;" width="12" height="4"/>
<rect id="rect4165_56_" x="744" y="160" style="fill:#C8C8C8;" width="12" height="4"/>
<rect id="rect4165_55_" x="732" y="140" style="fill:#C8C8C8;" width="4" height="40"/>
<rect id="rect4165_54_" x="748" y="140" style="fill:#C8C8C8;" width="4" height="40"/>
<rect id="rect4165_65_" x="716" y="204" style="fill:#646464;" width="4" height="40"/>
<rect id="rect4165_64_" x="712" y="208" style="fill:#646464;" width="12" height="4"/>
<rect id="rect4165_63_" x="728" y="232" style="fill:#646464;" width="12" height="4"/>
<rect id="rect4165_62_" x="744" y="224" style="fill:#646464;" width="12" height="4"/>
<rect id="rect4165_61_" x="732" y="204" style="fill:#646464;" width="4" height="40"/>
<rect id="rect4165_60_" x="748" y="204" style="fill:#646464;" width="4" height="40"/>
<rect x="656" y="104" style="fill:#7F7F7F;" width="32" height="8"/>
<path style="fill:#7F7F7F;" d="M688,92v4h-32v-4H688z M672,76l16,16h-32L672,76z"/>
<rect x="656" y="168" style="fill:#C8C8C8;" width="32" height="8"/>
<path style="fill:#C8C8C8;" d="M688,156v4h-32v-4H688z M672,140l16,16h-32L672,140z"/>
<rect x="656" y="232" style="fill:#646464;" width="32" height="8"/>
<path style="fill:#646464;" d="M688,220v4h-32v-4H688z M672,204l16,16h-32L672,204z"/>
<polygon points="956,46 944,56 944,36 "/>
<g>
	<polyline style="fill:none;stroke:#000000;stroke-width:4;stroke-miterlimit:10;" points="944,22 931.6,22 912.4,46 900,46 	"/>
</g>
<polygon points="944,32 944,12 956,22 "/>
<g>
	<polyline style="fill:none;stroke:#C8C8C8;stroke-width:4;stroke-miterlimit:10;" points="900,150 912.4,150 931.6,174 944,174 	
		"/>
</g>
<polygon style="fill:#C8C8C8;" points="956,174 944,184 944,164 "/>
<g>
	<polyline style="fill:none;stroke:#C8C8C8;stroke-width:4;stroke-miterlimit:10;" points="944,150 931.6,150 912.4,174 900,174 	
		"/>
</g>
<polygon style="fill:#C8C8C8;" points="944,160 944,140 956,150 "/>
<path d="M900,84h44v4h-44V84z M944,96V76l12,10L944,96z"/>
<path d="M900,108h44v4h-44V108z M956,110l-12,10v-20L956,110z"/>
<path style="fill:#C8C8C8;" d="M900,212h44v4h-44V212z M944,224v-20l12,10L944,224z"/>
<path style="fill:#C8C8C8;" d="M900,236h44v4h-44V236z M956,238l-12,10v-20L956,238z"/>
<path d="M988,44h28v4h-28V44z M1012,20h4v24h-4V20z M1008,16h8v4h-8V16z M988,36v20l-12-10L988,36z"/>
<path d="M968,44h8v4h-8V44z M968,16h28v4h-28V16z M996,28V8l12,10L996,28z M968,20h4v24h-4V20z"/>
<path style="fill:#C8C8C8;" d="M988,172h28v4h-28V172z M1012,148h4v24h-4V148z M1008,144h8v4h-8V144z M988,164v20l-12-10L988,164z"
	/>
<path style="fill:#C8C8C8;" d="M968,172h8v4h-8V172z M968,144h28v4h-28V144z M996,156v-20l12,10L996,156z M968,148h4v24h-4V148z"/>
<rect id="rect4165_120_" x="988" y="108" width="28" height="4"/>
<rect id="rect4165_119_" x="1012" y="84" width="4" height="24"/>
<rect id="rect4165_118_" x="968" y="108" width="8" height="4"/>
<rect id="rect4165_117_" x="968" y="80" width="28" height="4"/>
<rect id="rect4165_116_" x="1008" y="80" width="8" height="4"/>
<polygon points="996,92 996,72 1008,82 "/>
<polygon points="988,100 988,120 976,110 "/>
<rect id="rect4165_115_" x="968" y="84" width="4" height="24"/>
<rect id="rect4165_124_" x="988" y="236" style="fill:#C8C8C8;" width="28" height="4"/>
<rect id="rect4165_123_" x="1012" y="212" style="fill:#C8C8C8;" width="4" height="24"/>
<rect id="rect4165_121_" x="968" y="236" style="fill:#C8C8C8;" width="8" height="4"/>
<rect id="rect4165_114_" x="968" y="208" style="fill:#C8C8C8;" width="28" height="4"/>
<rect id="rect4165_113_" x="1008" y="208" style="fill:#C8C8C8;" width="8" height="4"/>
<polygon style="fill:#C8C8C8;" points="996,220 996,200 1008,210 "/>
<polygon style="fill:#C8C8C8;" points="988,228 988,248 976,238 "/>
<rect id="rect4165_112_" x="968" y="212" style="fill:#C8C8C8;" width="4" height="24"/>
<rect id="rect4165_44_" x="328" y="20" width="4" height="20"/>
<rect id="rect4165_45_" x="336" y="12" width="4" height="36"/>
<rect id="rect4165_163_" x="352" y="4" width="4" height="52"/>
<rect id="rect4165_162_" x="344" y="16" width="4" height="28"/>
<rect id="rect4165_46_" x="360" y="16" width="4" height="28"/>
<rect id="rect4165_164_" x="368" y="12" width="4" height="36"/>
<rect id="rect4165_168_" x="376" y="20" width="4" height="20"/>
<rect id="rect4165_169_" x="320" y="152" style="fill:#C8C8C8;" width="4" height="12"/>
<rect id="rect4165_167_" x="328" y="148" style="fill:#C8C8C8;" width="4" height="20"/>
<rect id="rect4165_166_" x="336" y="140" style="fill:#C8C8C8;" width="4" height="36"/>
<rect id="rect4165_165_" x="352" y="132" style="fill:#C8C8C8;" width="4" height="52"/>
<rect id="rect4165_39_" x="344" y="144" style="fill:#C8C8C8;" width="4" height="28"/>
<rect id="rect4165_38_" x="360" y="144" style="fill:#C8C8C8;" width="4" height="28"/>
<rect id="rect4165_37_" x="368" y="140" style="fill:#C8C8C8;" width="4" height="36"/>
<rect id="rect4165_36_" x="376" y="148" style="fill:#C8C8C8;" width="4" height="20"/>
<rect id="rect4165_43_" x="320" y="88" style="fill:#7F7F7F;" width="4" height="12"/>
<rect id="rect4165_42_" x="328" y="84" style="fill:#7F7F7F;" width="4" height="20"/>
<rect id="rect4165_41_" x="336" y="76" style="fill:#7F7F7F;" width="4" height="36"/>
<rect id="rect4165_40_" x="352" y="68" style="fill:#7F7F7F;" width="4" height="52"/>
<rect id="rect4165_31_" x="344" y="80" style="fill:#7F7F7F;" width="4" height="28"/>
<rect id="rect4165_30_" x="360" y="80" style="fill:#7F7F7F;" width="4" height="28"/>
<rect id="rect4165_3_" x="368" y="76" style="fill:#7F7F7F;" width="4" height="36"/>
<rect id="rect4165_2_" x="376" y="84" style="fill:#7F7F7F;" width="4" height="20"/>
<rect id="rect4165_177_" x="320" y="216" style="fill:#646464;" width="4" height="12"/>
<rect id="rect4165_176_" x="328" y="212" style="fill:#646464;" width="4" height="20"/>
<rect id="rect4165_175_" x="336" y="204" style="fill:#646464;" width="4" height="36"/>
<rect id="rect4165_174_" x="352" y="196" style="fill:#646464;" width="4" height="52"/>
<rect id="rect4165_173_" x="344" y="208" style="fill:#646464;" width="4" height="28"/>
<rect id="rect4165_172_" x="360" y="208" style="fill:#646464;" width="4" height="28"/>
<rect id="rect4165_171_" x="368" y="204" style="fill:#646464;" width="4" height="36"/>
<rect id="rect4165_170_" x="376" y="212" style="fill:#646464;" width="4" height="20"/>
<path d="M1092,16h52v4h-52V16z M1132,28h20l-10,12L1132,28z M1092,20h4v20h-4V20z M1140,20h4v8h-4V20z"/>
<rect id="rect4165_181_" x="1092" y="44" width="4" height="4"/>
<rect id="rect4165_182_" x="1100" y="44" width="4" height="4"/>
<rect id="rect4165_183_" x="1108" y="44" width="4" height="4"/>
<rect id="rect4165_184_" x="1116" y="44" width="4" height="4"/>
<rect id="rect4165_185_" x="1124" y="44" width="4" height="4"/>
<rect id="rect4165_186_" x="1132" y="44" width="4" height="4"/>
<rect id="rect4165_187_" x="1140" y="44" width="4" height="4"/>
<path style="fill:#7F7F7F;" d="M1092,80h52v4h-52V80z M1132,92h20l-10,12L1132,92z M1092,84h4v20h-4V84z M1140,84h4v8h-4V84z"/>
<rect id="rect4165_192_" x="1092" y="108" style="fill:#7F7F7F;" width="4" height="4"/>
<rect id="rect4165_191_" x="1100" y="108" style="fill:#7F7F7F;" width="4" height="4"/>
<rect id="rect4165_190_" x="1108" y="108" style="fill:#7F7F7F;" width="4" height="4"/>
<rect id="rect4165_189_" x="1116" y="108" style="fill:#7F7F7F;" width="4" height="4"/>
<rect id="rect4165_188_" x="1124" y="108" style="fill:#7F7F7F;" width="4" height="4"/>
<rect id="rect4165_29_" x="1132" y="108" style="fill:#7F7F7F;" width="4" height="4"/>
<rect id="rect4165_28_" x="1140" y="108" style="fill:#7F7F7F;" width="4" height="4"/>
<path style="fill:#C8C8C8;" d="M1092,144h52v4h-52V144z M1132,156h20l-10,12L1132,156z M1092,148h4v20h-4V148z M1140,148h4v8h-4V148
	z"/>
<rect id="rect4165_202_" x="1092" y="172" style="fill:#C8C8C8;" width="4" height="4"/>
<rect id="rect4165_201_" x="1100" y="172" style="fill:#C8C8C8;" width="4" height="4"/>
<rect id="rect4165_200_" x="1108" y="172" style="fill:#C8C8C8;" width="4" height="4"/>
<rect id="rect4165_199_" x="1116" y="172" style="fill:#C8C8C8;" width="4" height="4"/>
<rect id="rect4165_198_" x="1124" y="172" style="fill:#C8C8C8;" width="4" height="4"/>
<rect id="rect4165_197_" x="1132" y="172" style="fill:#C8C8C8;" width="4" height="4"/>
<rect id="rect4165_196_" x="1140" y="172" style="fill:#C8C8C8;" width="4" height="4"/>
<path style="fill:#646464;" d="M1092,208h52v4h-52V208z M1132,220h20l-10,12L1132,220z M1092,212h4v20h-4V212z M1140,212h4v8h-4V212
	z"/>
<rect id="rect4165_212_" x="1092" y="236" style="fill:#646464;" width="4" height="4"/>
<rect id="rect4165_211_" x="1100" y="236" style="fill:#646464;" width="4" height="4"/>
<rect id="rect4165_210_" x="1108" y="236" style="fill:#646464;" width="4" height="4"/>
<rect id="rect4165_209_" x="1116" y="236" style="fill:#646464;" width="4" height="4"/>
<rect id="rect4165_208_" x="1124" y="236" style="fill:#646464;" width="4" height="4"/>
<rect id="rect4165_207_" x="1132" y="236" style="fill:#646464;" width="4" height="4"/>
<rect id="rect4165_206_" x="1140" y="236" style="fill:#646464;" width="4" height="4"/>
<path d="M1084,20h-52v-4h52V20z M1034,40l-10-12h20L1034,40z M1084,40h-4V20h4V40z M1036,28h-4v-8h4V28z"/>
<rect id="rect4165_250_" x="1080" y="44" width="4" height="4"/>
<rect id="rect4165_249_" x="1072" y="44" width="4" height="4"/>
<rect id="rect4165_248_" x="1064" y="44" width="4" height="4"/>
<rect id="rect4165_247_" x="1056" y="44" width="4" height="4"/>
<rect id="rect4165_246_" x="1048" y="44" width="4" height="4"/>
<rect id="rect4165_245_" x="1040" y="44" width="4" height="4"/>
<rect id="rect4165_244_" x="1032" y="44" width="4" height="4"/>
<path style="fill:#7F7F7F;" d="M1084,84h-52v-4h52V84z M1034,104l-10-12h20L1034,104z M1084,104h-4V84h4V104z M1036,92h-4v-8h4V92z"
	/>
<rect id="rect4165_240_" x="1080" y="108" style="fill:#7F7F7F;" width="4" height="4"/>
<rect id="rect4165_239_" x="1072" y="108" style="fill:#7F7F7F;" width="4" height="4"/>
<rect id="rect4165_238_" x="1064" y="108" style="fill:#7F7F7F;" width="4" height="4"/>
<rect id="rect4165_237_" x="1056" y="108" style="fill:#7F7F7F;" width="4" height="4"/>
<rect id="rect4165_236_" x="1048" y="108" style="fill:#7F7F7F;" width="4" height="4"/>
<rect id="rect4165_235_" x="1040" y="108" style="fill:#7F7F7F;" width="4" height="4"/>
<rect id="rect4165_234_" x="1032" y="108" style="fill:#7F7F7F;" width="4" height="4"/>
<path style="fill:#C8C8C8;" d="M1084,148h-52v-4h52V148z M1034,168l-10-12h20L1034,168z M1084,168h-4v-20h4V168z M1036,156h-4v-8h4
	V156z"/>
<rect id="rect4165_230_" x="1080" y="172" style="fill:#C8C8C8;" width="4" height="4"/>
<rect id="rect4165_229_" x="1072" y="172" style="fill:#C8C8C8;" width="4" height="4"/>
<rect id="rect4165_228_" x="1064" y="172" style="fill:#C8C8C8;" width="4" height="4"/>
<rect id="rect4165_227_" x="1056" y="172" style="fill:#C8C8C8;" width="4" height="4"/>
<rect id="rect4165_226_" x="1048" y="172" style="fill:#C8C8C8;" width="4" height="4"/>
<rect id="rect4165_225_" x="1040" y="172" style="fill:#C8C8C8;" width="4" height="4"/>
<rect id="rect4165_224_" x="1032" y="172" style="fill:#C8C8C8;" width="4" height="4"/>
<path style="fill:#646464;" d="M1084,212h-52v-4h52V212z M1034,232l-10-12h20L1034,232z M1084,232h-4v-20h4V232z M1036,220h-4v-8h4
	V220z"/>
<rect id="rect4165_220_" x="1080" y="236" style="fill:#646464;" width="4" height="4"/>
<rect id="rect4165_219_" x="1072" y="236" style="fill:#646464;" width="4" height="4"/>
<rect id="rect4165_218_" x="1064" y="236" style="fill:#646464;" width="4" height="4"/>
<rect id="rect4165_217_" x="1056" y="236" style="fill:#646464;" width="4" height="4"/>
<rect id="rect4165_216_" x="1048" y="236" style="fill:#646464;" width="4" height="4"/>
<rect id="rect4165_27_" x="1040" y="236" style="fill:#646464;" width="4" height="4"/>
<rect id="rect4165_26_" x="1032" y="236" style="fill:#646464;" width="4" height="4"/>
<rect x="1280" y="-64" style="fill:#7F7F7F;" width="64" height="64"/>
<path style="fill:#C8C8C8;" d="M1184,176h-4v-4h4V176z M1176,176h-4v-4h4V176z M1192,168h-4v-4h4V168z M1184,168h-4v-4h4V168z
	 M1176,168h-4v-4h4V168z M1200,168h-4v-4h4V168z M1176,160h-4v-4h4V160z M1192,176h-4v-4h4V176z M1184,152h-4v-4h4V152z M1176,152
	h-4v-4h4V152z M1164,184h-4v-44h4V184z M1192,136v4h-32v-4H1192z M1212,188h-4v-32h4V188z M1208,184v4h-48v-4H1208z M1196,152h-4
	v-16h4V152z M1212,152v4h-20v-4H1212z M1196,152v-16l16,16H1196z"/>
<path d="M1184,48h-4v-4h4V48z M1176,48h-4v-4h4V48z M1192,40h-4v-4h4V40z M1184,40h-4v-4h4V40z M1176,40h-4v-4h4V40z M1200,40h-4v-4
	h4V40z M1176,32h-4v-4h4V32z M1192,48h-4v-4h4V48z M1184,24h-4v-4h4V24z M1176,24h-4v-4h4V24z M1164,56h-4V12h4V56z M1192,8v4h-32V8
	H1192z M1212,60h-4V28h4V60z M1208,56v4h-48v-4H1208z M1196,24h-4V8h4V24z M1212,24v4h-20v-4H1212z M1196,24V8l16,16H1196z"/>
<path style="fill:#7F7F7F;" d="M1184,112h-4v-4h4V112z M1176,112h-4v-4h4V112z M1192,104h-4v-4h4V104z M1184,104h-4v-4h4V104z
	 M1176,104h-4v-4h4V104z M1200,104h-4v-4h4V104z M1176,96h-4v-4h4V96z M1192,112h-4v-4h4V112z M1184,88h-4v-4h4V88z M1176,88h-4v-4
	h4V88z M1164,120h-4V76h4V120z M1192,72v4h-32v-4H1192z M1212,124h-4V92h4V124z M1208,120v4h-48v-4H1208z M1196,88h-4V72h4V88z
	 M1212,88v4h-20v-4H1212z M1196,88V72l16,16H1196z"/>
<path style="fill:#646464;" d="M1184,240h-4v-4h4V240z M1176,240h-4v-4h4V240z M1192,232h-4v-4h4V232z M1184,232h-4v-4h4V232z
	 M1176,232h-4v-4h4V232z M1200,232h-4v-4h4V232z M1176,224h-4v-4h4V224z M1192,240h-4v-4h4V240z M1184,216h-4v-4h4V216z M1176,216
	h-4v-4h4V216z M1164,248h-4v-44h4V248z M1192,200v4h-32v-4H1192z M1212,252h-4v-32h4V252z M1208,248v4h-48v-4H1208z M1196,216h-4
	v-16h4V216z M1212,216v4h-20v-4H1212z M1196,216v-16l16,16H1196z"/>
<line style="fill:none;stroke:#000000;stroke-width:4;stroke-miterlimit:10;" x1="1228" y1="52" x2="1268" y2="12"/>
<line style="fill:none;stroke:#000000;stroke-width:4;stroke-miterlimit:10;" x1="1228" y1="12" x2="1268" y2="52"/>
<line style="fill:none;stroke:#C8C8C8;stroke-width:4;stroke-miterlimit:10;" x1="1228" y1="180" x2="1268" y2="140"/>
<line style="fill:none;stroke:#C8C8C8;stroke-width:4;stroke-miterlimit:10;" x1="1228" y1="140" x2="1268" y2="180"/>
<line style="fill:none;stroke:#000000;stroke-width:4;stroke-miterlimit:10;" x1="1228" y1="116" x2="1268" y2="76"/>
<line style="fill:none;stroke:#000000;stroke-width:4;stroke-miterlimit:10;" x1="1228" y1="76" x2="1268" y2="116"/>
<line style="fill:none;stroke:#C8C8C8;stroke-width:4;stroke-miterlimit:10;" x1="1228" y1="244" x2="1268" y2="204"/>
<line style="fill:none;stroke:#C8C8C8;stroke-width:4;stroke-miterlimit:10;" x1="1228" y1="204" x2="1268" y2="244"/>
<path style="fill:#C8C8C8;" d="M1524,140h-44v-4h44V140z M1524,184h-44v-4h44V184z M1484,180h-4v-40h4V180z M1528,184h-4v-48h4V184z
	 M1508,180h-4v-40h4V180z M1504,180h-4v-40h4V180z M1484,164v-4h40v4H1484z M1484,160v-4h40v4H1484z M1488,180h-4v-40h4V180z
	 M1524,180h-4v-40h4V180z M1484,144v-4h40v4H1484z M1484,180v-4h40v4H1484z"/>
<path style="fill:#C8C8C8;" d="M1332,140h-44v-4h44V140z M1332,184h-44v-4h44V184z M1292,180h-4v-40h4V180z M1336,184h-4v-48h4V184z
	 M1316,180h-4v-40h4V180z M1312,180h-4v-40h4V180z M1292,164v-4h40v4H1292z M1292,160v-4h40v4H1292z M1296,180h-4v-40h4V180z
	 M1332,180h-4v-40h4V180z M1292,144v-4h40v4H1292z M1292,180v-4h40v4H1292z M1328,156h-12v-12h12V156z M1308,176h-12v-12h12V176z
	 M1328,176h-12v-12h12V176z"/>
<path style="fill:#C8C8C8;" d="M1396,140h-44v-4h44V140z M1396,184h-44v-4h44V184z M1356,180h-4v-40h4V180z M1400,184h-4v-48h4V184z
	 M1380,180h-4v-40h4V180z M1376,180h-4v-40h4V180z M1356,164v-4h40v4H1356z M1356,160v-4h40v4H1356z M1360,180h-4v-40h4V180z
	 M1396,180h-4v-40h4V180z M1356,144v-4h40v4H1356z M1356,180v-4h40v4H1356z M1372,176h-12v-12h12V176z M1392,156h-12v-12h12V156z"/>
<path style="fill:#C8C8C8;" d="M1460,180v-44h4v44H1460z M1416,180v-44h4v44H1416z M1420,140v-4h40v4H1420z M1416,184v-4h48v4H1416z
	 M1420,164v-4h40v4H1420z M1420,160v-4h40v4H1420z M1436,140h4v40h-4V140z M1440,140h4v40h-4V140z M1420,144v-4h40v4H1420z
	 M1420,180v-4h40v4H1420z M1456,140h4v40h-4V140z M1420,140h4v40h-4V140z M1424,176v-12h12v12H1424z"/>
<path style="fill:#646464;" d="M1524,204h-44v-4h44V204z M1524,248h-44v-4h44V248z M1484,244h-4v-40h4V244z M1528,248h-4v-48h4V248z
	 M1508,244h-4v-40h4V244z M1504,244h-4v-40h4V244z M1484,228v-4h40v4H1484z M1484,224v-4h40v4H1484z M1488,244h-4v-40h4V244z
	 M1524,244h-4v-40h4V244z M1484,208v-4h40v4H1484z M1484,244v-4h40v4H1484z"/>
<path style="fill:#646464;" d="M1332,204h-44v-4h44V204z M1332,248h-44v-4h44V248z M1292,244h-4v-40h4V244z M1336,248h-4v-48h4V248z
	 M1316,244h-4v-40h4V244z M1312,244h-4v-40h4V244z M1292,228v-4h40v4H1292z M1292,224v-4h40v4H1292z M1296,244h-4v-40h4V244z
	 M1332,244h-4v-40h4V244z M1292,208v-4h40v4H1292z M1292,244v-4h40v4H1292z M1328,220h-12v-12h12V220z M1308,240h-12v-12h12V240z
	 M1328,240h-12v-12h12V240z"/>
<path style="fill:#646464;" d="M1396,204h-44v-4h44V204z M1396,248h-44v-4h44V248z M1356,244h-4v-40h4V244z M1400,248h-4v-48h4V248z
	 M1380,244h-4v-40h4V244z M1376,244h-4v-40h4V244z M1356,228v-4h40v4H1356z M1356,224v-4h40v4H1356z M1360,244h-4v-40h4V244z
	 M1396,244h-4v-40h4V244z M1356,208v-4h40v4H1356z M1356,244v-4h40v4H1356z M1372,240h-12v-12h12V240z M1392,220h-12v-12h12V220z"/>
<path style="fill:#646464;" d="M1460,244v-44h4v44H1460z M1416,244v-44h4v44H1416z M1420,204v-4h40v4H1420z M1416,248v-4h48v4H1416z
	 M1420,228v-4h40v4H1420z M1420,224v-4h40v4H1420z M1436,204h4v40h-4V204z M1440,204h4v40h-4V204z M1420,208v-4h40v4H1420z
	 M1420,244v-4h40v4H1420z M1456,204h4v40h-4V204z M1420,204h4v40h-4V204z M1424,240v-12h12v12H1424z"/>
<path style="fill:#7F7F7F;" d="M1524,76h-44v-4h44V76z M1524,120h-44v-4h44V120z M1484,116h-4V76h4V116z M1528,120h-4V72h4V120z
	 M1508,116h-4V76h4V116z M1504,116h-4V76h4V116z M1484,100v-4h40v4H1484z M1484,96v-4h40v4H1484z M1488,116h-4V76h4V116z M1524,116
	h-4V76h4V116z M1484,80v-4h40v4H1484z M1484,116v-4h40v4H1484z"/>
<path style="fill:#7F7F7F;" d="M1332,76h-44v-4h44V76z M1332,120h-44v-4h44V120z M1292,116h-4V76h4V116z M1336,120h-4V72h4V120z
	 M1316,116h-4V76h4V116z M1312,116h-4V76h4V116z M1292,100v-4h40v4H1292z M1292,96v-4h40v4H1292z M1296,116h-4V76h4V116z M1332,116
	h-4V76h4V116z M1292,80v-4h40v4H1292z M1292,116v-4h40v4H1292z M1328,92h-12V80h12V92z M1308,112h-12v-12h12V112z M1328,112h-12v-12
	h12V112z"/>
<path style="fill:#7F7F7F;" d="M1396,76h-44v-4h44V76z M1396,120h-44v-4h44V120z M1356,116h-4V76h4V116z M1400,120h-4V72h4V120z
	 M1380,116h-4V76h4V116z M1376,116h-4V76h4V116z M1356,100v-4h40v4H1356z M1356,96v-4h40v4H1356z M1360,116h-4V76h4V116z M1396,116
	h-4V76h4V116z M1356,80v-4h40v4H1356z M1356,116v-4h40v4H1356z M1372,112h-12v-12h12V112z M1392,92h-12V80h12V92z"/>
<path style="fill:#7F7F7F;" d="M1460,116V72h4v44H1460z M1416,116V72h4v44H1416z M1420,76v-4h40v4H1420z M1416,120v-4h48v4H1416z
	 M1420,100v-4h40v4H1420z M1420,96v-4h40v4H1420z M1436,76h4v40h-4V76z M1440,76h4v40h-4V76z M1420,80v-4h40v4H1420z M1420,116v-4
	h40v4H1420z M1456,76h4v40h-4V76z M1420,76h4v40h-4V76z M1424,112v-12h12v12H1424z"/>
<path d="M1524,12h-44V8h44V12z M1524,56h-44v-4h44V56z M1484,52h-4V12h4V52z M1528,56h-4V8h4V56z M1508,52h-4V12h4V52z M1504,52h-4
	V12h4V52z M1484,36v-4h40v4H1484z M1484,32v-4h40v4H1484z M1488,52h-4V12h4V52z M1524,52h-4V12h4V52z M1484,16v-4h40v4H1484z
	 M1484,52v-4h40v4H1484z"/>
<path d="M1332,12h-44V8h44V12z M1332,56h-44v-4h44V56z M1292,52h-4V12h4V52z M1336,56h-4V8h4V56z M1316,52h-4V12h4V52z M1312,52h-4
	V12h4V52z M1292,36v-4h40v4H1292z M1292,32v-4h40v4H1292z M1296,52h-4V12h4V52z M1332,52h-4V12h4V52z M1292,16v-4h40v4H1292z
	 M1292,52v-4h40v4H1292z M1328,28h-12V16h12V28z M1308,48h-12V36h12V48z M1328,48h-12V36h12V48z"/>
<path d="M1396,12h-44V8h44V12z M1396,56h-44v-4h44V56z M1356,52h-4V12h4V52z M1400,56h-4V8h4V56z M1380,52h-4V12h4V52z M1376,52h-4
	V12h4V52z M1356,36v-4h40v4H1356z M1356,32v-4h40v4H1356z M1360,52h-4V12h4V52z M1396,52h-4V12h4V52z M1356,16v-4h40v4H1356z
	 M1356,52v-4h40v4H1356z M1372,48h-12V36h12V48z M1392,28h-12V16h12V28z"/>
<path d="M1460,52V8h4v44H1460z M1416,52V8h4v44H1416z M1420,12V8h40v4H1420z M1416,56v-4h48v4H1416z M1420,36v-4h40v4H1420z
	 M1420,32v-4h40v4H1420z M1436,12h4v40h-4V12z M1440,12h4v40h-4V12z M1420,16v-4h40v4H1420z M1420,52v-4h40v4H1420z M1456,12h4v40
	h-4V12z M1420,12h4v40h-4V12z M1424,48V36h12v12H1424z"/>
<path id="path4276_2_" inkscape:connector-curvature="0" style="fill:none;stroke:#FF0000;stroke-width:4;" d="M974,78l36,36"/>
<path id="path4276_1_" inkscape:connector-curvature="0" style="fill:none;stroke:#FF0000;stroke-width:4;" d="M974,206l36,36"/>
</svg>
