<?xml version="1.0" encoding="utf-8"?>
<!-- Generator: Adobe Illustrator 25.2.0, SVG Export Plug-In . SVG Version: 6.00 Build 0)  -->
<svg version="1.1"
	 id="svg3341" xmlns:cc="http://creativecommons.org/ns#" xmlns:dc="http://purl.org/dc/elements/1.1/" xmlns:inkscape="http://www.inkscape.org/namespaces/inkscape" xmlns:rdf="http://www.w3.org/1999/02/22-rdf-syntax-ns#" xmlns:sodipodi="http://sodipodi.sourceforge.net/DTD/sodipodi-0.dtd" xmlns:svg="http://www.w3.org/2000/svg"
	 xmlns="http://www.w3.org/2000/svg" xmlns:xlink="http://www.w3.org/1999/xlink" x="0px" y="0px" viewBox="0 0 832 128"
	 style="enable-background:new 0 0 832 128;" xml:space="preserve">
<sodipodi:namedview  bordercolor="#666666" borderopacity="1.0" id="base" inkscape:current-layer="layer1" inkscape:cx="144.97634" inkscape:cy="-0.056865311" inkscape:document-units="px" inkscape:pageopacity="0.0" inkscape:pageshadow="2" inkscape:snap-grids="true" inkscape:window-height="966" inkscape:window-maximized="1" inkscape:window-width="1680" inkscape:window-x="-8" inkscape:window-y="-8" inkscape:zoom="2.0875" pagecolor="#ffffff" showgrid="true" units="px">
	<inkscape:grid  id="grid3353" type="xygrid"></inkscape:grid>
</sodipodi:namedview>
<path id="path4159" inkscape:flatsided="true" inkscape:randomized="0" inkscape:rounded="0" inkscape:transform-center-x="-1.833329" inkscape:transform-center-y="-6.7848101e-005" sodipodi:arg1="2.0943951" sodipodi:arg2="3.1415927" sodipodi:cx="3" sodipodi:cy="1039.3621" sodipodi:r1="4.472136" sodipodi:r2="2.236068" sodipodi:sides="3" sodipodi:type="star" style="fill:#C8C8C8;" d="
	M6,90V68l22,11L6,90z"/>
<rect id="rect4161" x="40" y="70" style="fill:#C8C8C8;" width="6" height="18"/>
<rect id="rect4163" x="50" y="70" style="fill:#C8C8C8;" width="6" height="18"/>
<rect id="rect4165" x="72" y="70" style="fill:#C8C8C8;" width="16" height="18"/>
<rect id="rect4167" x="100" y="72" style="fill:#C8C8C8;" width="2" height="14"/>
<path id="path4169" inkscape:flatsided="true" inkscape:randomized="0" inkscape:rounded="0" inkscape:transform-center-x="0.66666139" inkscape:transform-center-y="-3.0343961e-005" sodipodi:arg1="3.1415927" sodipodi:arg2="4.1887902" sodipodi:cx="73" sodipodi:cy="1040.3621" sodipodi:r1="2" sodipodi:r2="1" sodipodi:sides="3" sodipodi:type="star" style="fill:#C8C8C8;" d="
	M104,79l8-7v14L104,79z"/>
<path id="path4171" inkscape:flatsided="true" inkscape:randomized="0" inkscape:rounded="0" inkscape:transform-center-x="0.66666139" inkscape:transform-center-y="-3.0343961e-005" sodipodi:arg1="3.1415927" sodipodi:arg2="4.1887902" sodipodi:cx="73" sodipodi:cy="1040.3621" sodipodi:r1="2" sodipodi:r2="1" sodipodi:sides="3" sodipodi:type="star" style="fill:#C8C8C8;" d="
	M114,79l8-7v14L114,79z"/>
<path id="path4173" inkscape:flatsided="true" inkscape:randomized="0" inkscape:rounded="0" inkscape:transform-center-x="0.66666139" inkscape:transform-center-y="-3.0343961e-005" sodipodi:arg1="3.1415927" sodipodi:arg2="4.1887902" sodipodi:cx="73" sodipodi:cy="1040.3621" sodipodi:r1="2" sodipodi:r2="1" sodipodi:sides="3" sodipodi:type="star" style="fill:#C8C8C8;" d="
	M230,79l8-7v14L230,79z"/>
<path id="path4175" inkscape:flatsided="true" inkscape:randomized="0" inkscape:rounded="0" inkscape:transform-center-x="0.66666139" inkscape:transform-center-y="-3.0343961e-005" sodipodi:arg1="3.1415927" sodipodi:arg2="4.1887902" sodipodi:cx="73" sodipodi:cy="1040.3621" sodipodi:r1="2" sodipodi:r2="1" sodipodi:sides="3" sodipodi:type="star" style="fill:#C8C8C8;" d="
	M240,79l8-7v14L240,79z"/>
<rect id="rect4177" x="152" y="72" style="fill:#C8C8C8;" width="2" height="14"/>
<path id="path4179" inkscape:flatsided="true" inkscape:randomized="0" inkscape:rounded="0" inkscape:transform-center-x="-0.666658" sodipodi:arg1="3.1415927" sodipodi:arg2="4.1887902" sodipodi:cx="73" sodipodi:cy="1040.3621" sodipodi:r1="2" sodipodi:r2="1" sodipodi:sides="3" sodipodi:type="star" style="fill:#C8C8C8;" d="
	M150,79l-8,7V72L150,79z"/>
<path id="path4181" inkscape:flatsided="true" inkscape:randomized="0" inkscape:rounded="0" inkscape:transform-center-x="-0.666658" sodipodi:arg1="3.1415927" sodipodi:arg2="4.1887902" sodipodi:cx="73" sodipodi:cy="1040.3621" sodipodi:r1="2" sodipodi:r2="1" sodipodi:sides="3" sodipodi:type="star" style="fill:#C8C8C8;" d="
	M140,79l-8,7V72L140,79z"/>
<path id="path4183" inkscape:flatsided="true" inkscape:randomized="0" inkscape:rounded="0" inkscape:transform-center-x="-0.666658" sodipodi:arg1="3.1415927" sodipodi:arg2="4.1887902" sodipodi:cx="73" sodipodi:cy="1040.3621" sodipodi:r1="2" sodipodi:r2="1" sodipodi:sides="3" sodipodi:type="star" style="fill:#C8C8C8;" d="
	M282,79l-8,7V72L282,79z"/>
<path id="path4185" inkscape:flatsided="true" inkscape:randomized="0" inkscape:rounded="0" inkscape:transform-center-x="-0.666658" sodipodi:arg1="3.1415927" sodipodi:arg2="4.1887902" sodipodi:cx="73" sodipodi:cy="1040.3621" sodipodi:r1="2" sodipodi:r2="1" sodipodi:sides="3" sodipodi:type="star" style="fill:#C8C8C8;" d="
	M272,79l-8,7V72L272,79z"/>
<rect id="rect4187" x="296" y="72" style="fill:#C8C8C8;" width="4" height="14"/>
<path style="fill:#C8C8C8;" d="M304,72h2v14h-2V72z M314,79l-8,7V72L314,79z"/>
<path id="path4179-5" inkscape:flatsided="true" inkscape:randomized="0" inkscape:rounded="0" inkscape:transform-center-x="1.3333156" inkscape:transform-center-y="-0.00016308799" sodipodi:arg1="3.1415927" sodipodi:arg2="4.1887902" sodipodi:cx="73" sodipodi:cy="1040.3621" sodipodi:r1="2" sodipodi:r2="1" sodipodi:sides="3" sodipodi:type="star" style="fill:#C8C8C8;" d="
	M768,80l16-14v28L768,80z"/>
<rect id="rect4187-3" x="768" y="74" style="fill:#C8C8C8;" width="8" height="12"/>
<rect id="rect4181-4" x="800" y="-32" style="fill-rule:evenodd;clip-rule:evenodd;fill:#F600FF;" width="32" height="32"/>
<rect id="rect4181-4-8" x="768" y="-32" style="fill-rule:evenodd;clip-rule:evenodd;fill:#7200FF;" width="32" height="32"/>
<path id="path4230" sodipodi:cx="200.42171" sodipodi:cy="1044.3516" sodipodi:end="1.4835299" sodipodi:open="true" sodipodi:rx="1.1333569" sodipodi:ry="1.0653899" sodipodi:start="4.7996554" sodipodi:type="arc" style="fill:none;stroke:#C8C8C8;stroke-width:0.5;" d="
	M785,77.8c1.2,0,2,1,2,2.2s-0.8,2-2,2.2"/>
<path id="path4230-0" sodipodi:cx="201.32703" sodipodi:cy="1044.3516" sodipodi:end="1.4835299" sodipodi:open="true" sodipodi:rx="2.2667139" sodipodi:ry="2.1307797" sodipodi:start="4.7996554" sodipodi:type="arc" style="fill:none;stroke:#C8C8C8;stroke-width:0.6;" d="
	M787,75.6c2.4,0.2,4.2,2,4.2,4.2s-1.8,4-4.2,4.2"/>
<path id="path4230-0-7" sodipodi:cx="201.63358" sodipodi:cy="1044.3519" sodipodi:end="1.4835299" sodipodi:open="true" sodipodi:rx="4.5334277" sodipodi:ry="4.2615595" sodipodi:start="4.7996554" sodipodi:type="arc" style="fill:none;stroke:#C8C8C8;stroke-width:0.7;" d="
	M788,71.4c4.6,0.4,8.2,4,8.2,8.4s-3.6,8.2-8.2,8.4"/>
<path id="path4262" inkscape:flatsided="true" inkscape:randomized="0" inkscape:rounded="0" inkscape:transform-center-x="1.3333156" inkscape:transform-center-y="-0.00016308799" sodipodi:arg1="3.1415927" sodipodi:arg2="4.1887902" sodipodi:cx="73" sodipodi:cy="1040.3621" sodipodi:r1="2" sodipodi:r2="1" sodipodi:sides="3" sodipodi:type="star" style="fill:#C8C8C8;" d="
	M808,80l16-14v28L808,80z"/>
<rect id="rect4264" x="808" y="74" style="fill:#C8C8C8;" width="8" height="12"/>
<path style="fill:#C8C8C8;" d="M808,112l16-14v28L808,112z M808,106h8v12h-8V106z"/>
<path id="path4276" inkscape:connector-curvature="0" style="fill:none;stroke:#FF0000;" d="M804,68l24,24"/>
<path id="path4159_1_" inkscape:flatsided="true" inkscape:randomized="0" inkscape:rounded="0" inkscape:transform-center-x="-1.833329" inkscape:transform-center-y="-6.7848101e-005" sodipodi:arg1="2.0943951" sodipodi:arg2="3.1415927" sodipodi:cx="3" sodipodi:cy="1039.3621" sodipodi:r1="4.472136" sodipodi:r2="2.236068" sodipodi:sides="3" sodipodi:type="star" style="fill:#646464;" d="
	M6,122v-22l22,11L6,122z"/>
<rect id="rect4161_1_" x="40" y="102" style="fill:#646464;" width="6" height="18"/>
<rect id="rect4163_1_" x="50" y="102" style="fill:#646464;" width="6" height="18"/>
<rect id="rect4165_1_" x="72" y="102" style="fill:#646464;" width="16" height="18"/>
<rect id="rect4167_1_" x="100" y="104" style="fill:#646464;" width="2" height="14"/>
<path id="path4169_1_" inkscape:flatsided="true" inkscape:randomized="0" inkscape:rounded="0" inkscape:transform-center-x="0.66666139" inkscape:transform-center-y="-3.0343961e-005" sodipodi:arg1="3.1415927" sodipodi:arg2="4.1887902" sodipodi:cx="73" sodipodi:cy="1040.3621" sodipodi:r1="2" sodipodi:r2="1" sodipodi:sides="3" sodipodi:type="star" style="fill:#646464;" d="
	M104,111l8-7v14L104,111z"/>
<path id="path4171_1_" inkscape:flatsided="true" inkscape:randomized="0" inkscape:rounded="0" inkscape:transform-center-x="0.66666139" inkscape:transform-center-y="-3.0343961e-005" sodipodi:arg1="3.1415927" sodipodi:arg2="4.1887902" sodipodi:cx="73" sodipodi:cy="1040.3621" sodipodi:r1="2" sodipodi:r2="1" sodipodi:sides="3" sodipodi:type="star" style="fill:#646464;" d="
	M114,111l8-7v14L114,111z"/>
<path id="path4173_1_" inkscape:flatsided="true" inkscape:randomized="0" inkscape:rounded="0" inkscape:transform-center-x="0.66666139" inkscape:transform-center-y="-3.0343961e-005" sodipodi:arg1="3.1415927" sodipodi:arg2="4.1887902" sodipodi:cx="73" sodipodi:cy="1040.3621" sodipodi:r1="2" sodipodi:r2="1" sodipodi:sides="3" sodipodi:type="star" style="fill:#646464;" d="
	M230,111l8-7v14L230,111z"/>
<path id="path4175_1_" inkscape:flatsided="true" inkscape:randomized="0" inkscape:rounded="0" inkscape:transform-center-x="0.66666139" inkscape:transform-center-y="-3.0343961e-005" sodipodi:arg1="3.1415927" sodipodi:arg2="4.1887902" sodipodi:cx="73" sodipodi:cy="1040.3621" sodipodi:r1="2" sodipodi:r2="1" sodipodi:sides="3" sodipodi:type="star" style="fill:#646464;" d="
	M240,111l8-7v14L240,111z"/>
<rect id="rect4177_1_" x="152" y="104" style="fill:#646464;" width="2" height="14"/>
<path id="path4179_1_" inkscape:flatsided="true" inkscape:randomized="0" inkscape:rounded="0" inkscape:transform-center-x="-0.666658" sodipodi:arg1="3.1415927" sodipodi:arg2="4.1887902" sodipodi:cx="73" sodipodi:cy="1040.3621" sodipodi:r1="2" sodipodi:r2="1" sodipodi:sides="3" sodipodi:type="star" style="fill:#646464;" d="
	M150,111l-8,7v-14L150,111z"/>
<path id="path4181_1_" inkscape:flatsided="true" inkscape:randomized="0" inkscape:rounded="0" inkscape:transform-center-x="-0.666658" sodipodi:arg1="3.1415927" sodipodi:arg2="4.1887902" sodipodi:cx="73" sodipodi:cy="1040.3621" sodipodi:r1="2" sodipodi:r2="1" sodipodi:sides="3" sodipodi:type="star" style="fill:#646464;" d="
	M140,111l-8,7v-14L140,111z"/>
<path id="path4183_1_" inkscape:flatsided="true" inkscape:randomized="0" inkscape:rounded="0" inkscape:transform-center-x="-0.666658" sodipodi:arg1="3.1415927" sodipodi:arg2="4.1887902" sodipodi:cx="73" sodipodi:cy="1040.3621" sodipodi:r1="2" sodipodi:r2="1" sodipodi:sides="3" sodipodi:type="star" style="fill:#646464;" d="
	M282,111l-8,7v-14L282,111z"/>
<path id="path4185_1_" inkscape:flatsided="true" inkscape:randomized="0" inkscape:rounded="0" inkscape:transform-center-x="-0.666658" sodipodi:arg1="3.1415927" sodipodi:arg2="4.1887902" sodipodi:cx="73" sodipodi:cy="1040.3621" sodipodi:r1="2" sodipodi:r2="1" sodipodi:sides="3" sodipodi:type="star" style="fill:#646464;" d="
	M272,111l-8,7v-14L272,111z"/>
<rect id="rect4187_1_" x="296" y="104" style="fill:#646464;" width="4" height="14"/>
<path style="fill:#646464;" d="M304,104h2v14h-2V104z M314,111l-8,7v-14L314,111z"/>
<polygon points="6,26 6,4 28,15 "/>
<rect x="40" y="6" width="6" height="18"/>
<rect x="50" y="6" width="6" height="18"/>
<rect x="72" y="6" width="16" height="18"/>
<rect x="100" y="8" width="2" height="14"/>
<polygon points="104,15 112,8 112,22 "/>
<polygon points="114,15 122,8 122,22 "/>
<polygon points="230,15 238,8 238,22 "/>
<polygon points="240,15 248,8 248,22 "/>
<rect x="152" y="8" width="2" height="14"/>
<polygon points="150,15 142,22 142,8 "/>
<polygon points="140,15 132,22 132,8 "/>
<polygon points="282,15 274,22 274,8 "/>
<polygon points="272,15 264,22 264,8 "/>
<rect x="296" y="8" width="4" height="14"/>
<path d="M306,22h-2V8h2V22z M314,15l-8,7V8L314,15z"/>
<polygon points="768,16 784,2 784,30 "/>
<path d="M776,22h-8V10h8V22z"/>
<path style="fill:none;stroke:#000000;stroke-width:0.5;" d="M785,13.8c1.2,0,2,1,2,2.2s-0.8,2-2,2.2"/>
<path style="fill:none;stroke:#000000;stroke-width:0.6;" d="M787,11.8c2.4,0.2,4.2,2,4.2,4.2s-1.8,4-4.2,4.2"/>
<path style="fill:none;stroke:#000000;stroke-width:0.7;" d="M788,7.4c4.6,0.4,8.2,4,8.2,8.4s-3.6,8.2-8.2,8.4"/>
<path d="M808,16l16-14v28L808,16z"/>
<rect x="808" y="10" width="8" height="12"/>
<path d="M808,48l16-14v28L808,48z M816,54h-8V42h8V54z"/>
<path style="fill:none;stroke:#FF0000;" d="M804,4l24,24"/>
<polygon style="fill:#7F7F7F;" points="6,58 6,36 28,47 "/>
<rect x="40" y="38" style="fill:#7F7F7F;" width="6" height="18"/>
<rect x="50" y="38" style="fill:#7F7F7F;" width="6" height="18"/>
<rect x="72" y="38" style="fill:#7F7F7F;" width="16" height="18"/>
<rect x="100" y="40" style="fill:#7F7F7F;" width="2" height="14"/>
<polygon style="fill:#7F7F7F;" points="104,47 112,40 112,54 "/>
<polygon style="fill:#7F7F7F;" points="114,47 122,40 122,54 "/>
<polygon style="fill:#7F7F7F;" points="230,47 238,40 238,54 "/>
<polygon style="fill:#7F7F7F;" points="240,47 248,40 248,54 "/>
<rect x="152" y="40" style="fill:#7F7F7F;" width="2" height="14"/>
<polygon style="fill:#7F7F7F;" points="150,47 142,54 142,40 "/>
<polygon style="fill:#7F7F7F;" points="140,47 132,54 132,40 "/>
<polygon style="fill:#7F7F7F;" points="282,47 274,54 274,40 "/>
<polygon style="fill:#7F7F7F;" points="272,47 264,54 264,40 "/>
<rect x="296" y="40" style="fill:#7F7F7F;" width="4" height="14"/>
<path style="fill:#7F7F7F;" d="M306,54h-2V40h2V54z M314,47l-8,7V40L314,47z"/>
<rect x="512" y="-32" width="32" height="32"/>
<rect id="rect4165_47_" x="160" y="12" width="2" height="6"/>
<polygon style="fill:#7F7F7F;" points="768,48 784,34 784,62 "/>
<path style="fill:#7F7F7F;" d="M776,54h-8V42h8V54z"/>
<path style="fill:none;stroke:#7F7F7F;stroke-width:0.5;" d="M785,45.8c1.2,0,2,1,2,2.2s-0.8,2-2,2.2"/>
<path style="fill:none;stroke:#7F7F7F;stroke-width:0.6;" d="M787,43.8c2.4,0.2,4.2,2,4.2,4.2s-1.8,4-4.2,4.2"/>
<path id="path4179-5_1_" inkscape:flatsided="true" inkscape:randomized="0" inkscape:rounded="0" inkscape:transform-center-x="1.3333156" inkscape:transform-center-y="-0.00016308799" sodipodi:arg1="3.1415927" sodipodi:arg2="4.1887902" sodipodi:cx="73" sodipodi:cy="1040.3621" sodipodi:r1="2" sodipodi:r2="1" sodipodi:sides="3" sodipodi:type="star" style="fill:#646464;" d="
	M768,112l16-14v28L768,112z"/>
<rect id="rect4187-3_1_" x="768" y="106" style="fill:#646464;" width="8" height="12"/>
<path id="path4230_1_" sodipodi:cx="200.42171" sodipodi:cy="1044.3516" sodipodi:end="1.4835299" sodipodi:open="true" sodipodi:rx="1.1333569" sodipodi:ry="1.0653899" sodipodi:start="4.7996554" sodipodi:type="arc" style="fill:none;stroke:#646464;stroke-width:0.5;" d="
	M785,109.8c1.2,0,2,1,2,2.2s-0.8,2-2,2.2"/>
<path id="path4230-0_1_" sodipodi:cx="201.32703" sodipodi:cy="1044.3516" sodipodi:end="1.4835299" sodipodi:open="true" sodipodi:rx="2.2667139" sodipodi:ry="2.1307797" sodipodi:start="4.7996554" sodipodi:type="arc" style="fill:none;stroke:#646464;stroke-width:0.6;" d="
	M787,107.6c2.4,0.2,4.2,2,4.2,4.2s-1.8,4-4.2,4.2"/>
<g>
	<path d="M207.4,19.6c-0.4,0.2-1.4,0.6-2.8,0.6c-3,0-4.8-2-4.8-5s2-5.2,5.2-5.2c1,0,2,0.2,2.4,0.4l-0.4,1.4c-0.4-0.2-1-0.4-2-0.4
		c-2.2,0-3.4,1.6-3.4,3.6c0,2.2,1.4,3.6,3.4,3.6c1,0,1.6-0.2,2.2-0.4L207.4,19.6z"/>
	<path d="M216.4,19.6c-0.4,0.2-1.4,0.6-2.8,0.6c-3,0-4.8-2-4.8-5s2-5.2,5.2-5.2c1,0,2,0.2,2.4,0.4l-0.4,1.4c-0.4-0.2-1-0.4-2-0.4
		c-2.2,0-3.4,1.6-3.4,3.6c0,2.2,1.4,3.6,3.4,3.6c1,0,1.6-0.2,2.2-0.4L216.4,19.6z"/>
</g>
<g>
	<path style="fill:#7F7F7F;" d="M207.4,51.6c-0.4,0.2-1.4,0.6-2.8,0.6c-3,0-4.8-2-4.8-5s2-5.2,5.2-5.2c1,0,2,0.2,2.4,0.4l-0.4,1.4
		c-0.4-0.2-1-0.4-2-0.4c-2.2,0-3.4,1.6-3.4,3.6c0,2.2,1.4,3.6,3.4,3.6c1,0,1.6-0.2,2.2-0.4L207.4,51.6z"/>
	<path style="fill:#7F7F7F;" d="M216.4,51.6c-0.4,0.2-1.4,0.6-2.8,0.6c-3,0-4.8-2-4.8-5s2-5.2,5.2-5.2c1,0,2,0.2,2.4,0.4l-0.4,1.4
		c-0.4-0.2-1-0.4-2-0.4c-2.2,0-3.4,1.6-3.4,3.6c0,2.2,1.4,3.6,3.4,3.6c1,0,1.6-0.2,2.2-0.4L216.4,51.6z"/>
</g>
<g>
	<path style="fill:#C8C8C8;" d="M207.4,83.6c-0.4,0.2-1.4,0.6-2.8,0.6c-3,0-4.8-2-4.8-5s2-5.2,5.2-5.2c1,0,2,0.2,2.4,0.4l-0.4,1.4
		c-0.4-0.2-1-0.4-2-0.4c-2.2,0-3.4,1.6-3.4,3.6c0,2.2,1.4,3.6,3.4,3.6c1,0,1.6-0.2,2.2-0.4L207.4,83.6z"/>
	<path style="fill:#C8C8C8;" d="M216.4,83.6c-0.4,0.2-1.4,0.6-2.8,0.6c-3,0-4.8-2-4.8-5s2-5.2,5.2-5.2c1,0,2,0.2,2.4,0.4l-0.4,1.4
		c-0.4-0.2-1-0.4-2-0.4c-2.2,0-3.4,1.6-3.4,3.6c0,2.2,1.4,3.6,3.4,3.6c1,0,1.6-0.2,2.2-0.4L216.4,83.6z"/>
</g>
<g>
	<path style="fill:#646464;" d="M207.4,115.6c-0.4,0.2-1.4,0.6-2.8,0.6c-3,0-4.8-2-4.8-5s2-5.2,5.2-5.2c1,0,2,0.2,2.4,0.4l-0.4,1.4
		c-0.4-0.2-1-0.4-2-0.4c-2.2,0-3.4,1.6-3.4,3.6c0,2.2,1.4,3.6,3.4,3.6c1,0,1.6-0.2,2.2-0.4L207.4,115.6z"/>
	<path style="fill:#646464;" d="M216.4,115.6c-0.4,0.2-1.4,0.6-2.8,0.6c-3,0-4.8-2-4.8-5s2-5.2,5.2-5.2c1,0,2,0.2,2.4,0.4l-0.4,1.4
		c-0.4-0.2-1-0.4-2-0.4c-2.2,0-3.4,1.6-3.4,3.6c0,2.2,1.4,3.6,3.4,3.6c1,0,1.6-0.2,2.2-0.4L216.4,115.6z"/>
</g>
<rect x="328" y="20" width="16" height="4"/>
<path d="M344,14v2h-16v-2H344z M336,6l8,8h-16L336,6z"/>
<rect id="rect4165_6_" x="358" y="6" width="2" height="20"/>
<rect id="rect4165_7_" x="356" y="8" width="6" height="2"/>
<rect id="rect4165_48_" x="364" y="20" width="6" height="2"/>
<rect id="rect4165_49_" x="372" y="16" width="6" height="2"/>
<g>
	<polyline style="fill:none;stroke:#000000;stroke-width:2;stroke-miterlimit:10;" points="450,43 456.2,43 465.8,55 472,55 	"/>
</g>
<path id="path4276_2_" inkscape:connector-curvature="0" style="fill:none;stroke:#000000;" d="M487,39l18,18"/>
<rect id="rect4165_103_" x="422" y="72" style="fill:#C8C8C8;" width="20" height="2"/>
<rect id="rect4165_102_" x="422" y="78" style="fill:#C8C8C8;" width="20" height="2"/>
<rect id="rect4165_97_" x="422" y="84" style="fill:#C8C8C8;" width="10" height="2"/>
<polygon style="fill:#C8C8C8;" points="442,86 436,90 436,82 "/>
<line style="fill:none;stroke:#C8C8C8;stroke-miterlimit:10;" x1="435" y1="115" x2="441" y2="121"/>
<line style="fill:none;stroke:#C8C8C8;stroke-miterlimit:10;" x1="435" y1="121" x2="441" y2="115"/>
<rect id="rect4165_17_" x="422" y="104" style="fill:#C8C8C8;" width="20" height="2"/>
<rect id="rect4165_16_" x="422" y="110" style="fill:#C8C8C8;" width="20" height="2"/>
<rect id="rect4165_10_" x="422" y="116" style="fill:#C8C8C8;" width="10" height="2"/>
<rect id="rect4165_105_" x="422" y="8" width="20" height="2"/>
<rect id="rect4165_104_" x="422" y="14" width="20" height="2"/>
<rect id="rect4165_101_" x="422" y="20" width="10" height="2"/>
<polygon points="442,22 436,26 436,18 "/>
<line style="fill:none;stroke:#000000;stroke-miterlimit:10;" x1="435" y1="51" x2="441" y2="57"/>
<line style="fill:none;stroke:#000000;stroke-miterlimit:10;" x1="435" y1="57" x2="441" y2="51"/>
<rect id="rect4165_100_" x="422" y="40" width="20" height="2"/>
<rect id="rect4165_99_" x="422" y="46" width="20" height="2"/>
<rect id="rect4165_98_" x="422" y="52" width="10" height="2"/>
<rect id="rect4165_67_" x="390" y="24" width="8" height="2"/>
<rect id="rect4165_66_" x="390" y="18" width="2" height="8"/>
<rect id="rect4165_73_" x="390" y="6" width="2" height="8"/>
<rect id="rect4165_106_" x="402" y="24" width="8" height="2"/>
<rect id="rect4165_68_" x="390" y="6" width="8" height="2"/>
<rect id="rect4165_69_" x="402" y="6" width="8" height="2"/>
<rect id="rect4165_70_" x="408" y="6" width="2" height="8"/>
<rect id="rect4165_71_" x="408" y="18" width="2" height="8"/>
<rect id="rect4165_137_" x="390" y="24" width="8" height="2"/>
<rect id="rect4165_136_" x="390" y="18" width="2" height="8"/>
<rect id="rect4165_135_" x="390" y="6" width="2" height="8"/>
<rect id="rect4165_134_" x="402" y="24" width="8" height="2"/>
<rect id="rect4165_109_" x="390" y="6" width="8" height="2"/>
<rect id="rect4165_108_" x="402" y="6" width="8" height="2"/>
<rect id="rect4165_107_" x="408" y="6" width="2" height="8"/>
<rect id="rect4165_72_" x="408" y="18" width="2" height="8"/>
<rect id="rect4165_88_" x="390" y="88" style="fill:#C8C8C8;" width="8" height="2"/>
<rect id="rect4165_87_" x="390" y="82" style="fill:#C8C8C8;" width="2" height="8"/>
<rect id="rect4165_86_" x="390" y="70" style="fill:#C8C8C8;" width="2" height="8"/>
<rect id="rect4165_85_" x="402" y="88" style="fill:#C8C8C8;" width="8" height="2"/>
<rect id="rect4165_84_" x="390" y="70" style="fill:#C8C8C8;" width="8" height="2"/>
<rect id="rect4165_83_" x="402" y="70" style="fill:#C8C8C8;" width="8" height="2"/>
<rect id="rect4165_82_" x="408" y="70" style="fill:#C8C8C8;" width="2" height="8"/>
<rect id="rect4165_81_" x="408" y="82" style="fill:#C8C8C8;" width="2" height="8"/>
<rect id="rect4165_80_" x="390" y="88" style="fill:#C8C8C8;" width="8" height="2"/>
<rect id="rect4165_79_" x="390" y="82" style="fill:#C8C8C8;" width="2" height="8"/>
<rect id="rect4165_78_" x="390" y="70" style="fill:#C8C8C8;" width="2" height="8"/>
<rect id="rect4165_77_" x="402" y="88" style="fill:#C8C8C8;" width="8" height="2"/>
<rect id="rect4165_76_" x="390" y="70" style="fill:#C8C8C8;" width="8" height="2"/>
<rect id="rect4165_75_" x="402" y="70" style="fill:#C8C8C8;" width="8" height="2"/>
<rect id="rect4165_74_" x="408" y="70" style="fill:#C8C8C8;" width="2" height="8"/>
<rect id="rect4165_11_" x="408" y="82" style="fill:#C8C8C8;" width="2" height="8"/>
<rect id="rect4165_145_" x="390" y="50" width="8" height="2"/>
<rect id="rect4165_144_" x="396" y="50" width="2" height="8"/>
<rect id="rect4165_143_" x="396" y="38" width="2" height="8"/>
<rect id="rect4165_142_" x="402" y="50" width="8" height="2"/>
<rect id="rect4165_141_" x="390" y="44" width="8" height="2"/>
<rect id="rect4165_140_" x="402" y="44" width="8" height="2"/>
<rect id="rect4165_139_" x="402" y="38" width="2" height="8"/>
<rect id="rect4165_138_" x="402" y="50" width="2" height="8"/>
<rect id="rect4165_96_" x="390" y="50" width="8" height="2"/>
<rect id="rect4165_95_" x="396" y="50" width="2" height="8"/>
<rect id="rect4165_94_" x="396" y="38" width="2" height="8"/>
<rect id="rect4165_93_" x="402" y="50" width="8" height="2"/>
<rect id="rect4165_92_" x="390" y="44" width="8" height="2"/>
<rect id="rect4165_91_" x="402" y="44" width="8" height="2"/>
<rect id="rect4165_90_" x="402" y="38" width="2" height="8"/>
<rect id="rect4165_89_" x="402" y="50" width="2" height="8"/>
<rect id="rect4165_161_" x="390" y="114" style="fill:#C8C8C8;" width="8" height="2"/>
<rect id="rect4165_160_" x="396" y="114" style="fill:#C8C8C8;" width="2" height="8"/>
<rect id="rect4165_159_" x="396" y="102" style="fill:#C8C8C8;" width="2" height="8"/>
<rect id="rect4165_158_" x="402" y="114" style="fill:#C8C8C8;" width="8" height="2"/>
<rect id="rect4165_157_" x="390" y="108" style="fill:#C8C8C8;" width="8" height="2"/>
<rect id="rect4165_156_" x="402" y="108" style="fill:#C8C8C8;" width="8" height="2"/>
<rect id="rect4165_155_" x="402" y="102" style="fill:#C8C8C8;" width="2" height="8"/>
<rect id="rect4165_154_" x="402" y="114" style="fill:#C8C8C8;" width="2" height="8"/>
<rect id="rect4165_153_" x="390" y="114" style="fill:#C8C8C8;" width="8" height="2"/>
<rect id="rect4165_152_" x="396" y="114" style="fill:#C8C8C8;" width="2" height="8"/>
<rect id="rect4165_151_" x="396" y="102" style="fill:#C8C8C8;" width="2" height="8"/>
<rect id="rect4165_150_" x="402" y="114" style="fill:#C8C8C8;" width="8" height="2"/>
<rect id="rect4165_149_" x="390" y="108" style="fill:#C8C8C8;" width="8" height="2"/>
<rect id="rect4165_148_" x="402" y="108" style="fill:#C8C8C8;" width="8" height="2"/>
<rect id="rect4165_147_" x="402" y="102" style="fill:#C8C8C8;" width="2" height="8"/>
<rect id="rect4165_146_" x="402" y="114" style="fill:#C8C8C8;" width="2" height="8"/>
<rect id="rect4165_4_" x="366" y="6" width="2" height="20"/>
<rect id="rect4165_5_" x="374" y="6" width="2" height="20"/>
<rect id="rect4165_53_" x="358" y="38" style="fill:#7F7F7F;" width="2" height="20"/>
<rect id="rect4165_52_" x="356" y="40" style="fill:#7F7F7F;" width="6" height="2"/>
<rect id="rect4165_51_" x="364" y="52" style="fill:#7F7F7F;" width="6" height="2"/>
<rect id="rect4165_50_" x="372" y="48" style="fill:#7F7F7F;" width="6" height="2"/>
<rect id="rect4165_9_" x="366" y="38" style="fill:#7F7F7F;" width="2" height="20"/>
<rect id="rect4165_8_" x="374" y="38" style="fill:#7F7F7F;" width="2" height="20"/>
<rect id="rect4165_59_" x="358" y="70" style="fill:#C8C8C8;" width="2" height="20"/>
<rect id="rect4165_58_" x="356" y="72" style="fill:#C8C8C8;" width="6" height="2"/>
<rect id="rect4165_57_" x="364" y="84" style="fill:#C8C8C8;" width="6" height="2"/>
<rect id="rect4165_56_" x="372" y="80" style="fill:#C8C8C8;" width="6" height="2"/>
<rect id="rect4165_55_" x="366" y="70" style="fill:#C8C8C8;" width="2" height="20"/>
<rect id="rect4165_54_" x="374" y="70" style="fill:#C8C8C8;" width="2" height="20"/>
<rect id="rect4165_65_" x="358" y="102" style="fill:#646464;" width="2" height="20"/>
<rect id="rect4165_64_" x="356" y="104" style="fill:#646464;" width="6" height="2"/>
<rect id="rect4165_63_" x="364" y="116" style="fill:#646464;" width="6" height="2"/>
<rect id="rect4165_62_" x="372" y="112" style="fill:#646464;" width="6" height="2"/>
<rect id="rect4165_61_" x="366" y="102" style="fill:#646464;" width="2" height="20"/>
<rect id="rect4165_60_" x="374" y="102" style="fill:#646464;" width="2" height="20"/>
<rect x="328" y="52" style="fill:#7F7F7F;" width="16" height="4"/>
<path style="fill:#7F7F7F;" d="M344,46v2h-16v-2H344z M336,38l8,8h-16L336,38z"/>
<rect x="328" y="84" style="fill:#C8C8C8;" width="16" height="4"/>
<path style="fill:#C8C8C8;" d="M344,78v2h-16v-2H344z M336,70l8,8h-16L336,70z"/>
<rect x="328" y="116" style="fill:#646464;" width="16" height="4"/>
<path style="fill:#646464;" d="M344,110v2h-16v-2H344z M336,102l8,8h-16L336,102z"/>
<polygon points="478,55 472,60 472,50 "/>
<g>
	<polyline style="fill:none;stroke:#000000;stroke-width:2;stroke-miterlimit:10;" points="472,43 465.8,43 456.2,55 450,55 	"/>
</g>
<polygon points="472,48 472,38 478,43 "/>
<g>
	<polyline style="fill:none;stroke:#C8C8C8;stroke-width:2;stroke-miterlimit:10;" points="450,107 456.2,107 465.8,119 472,119 	
		"/>
</g>
<polygon style="fill:#C8C8C8;" points="478,119 472,124 472,114 "/>
<g>
	<polyline style="fill:none;stroke:#C8C8C8;stroke-width:2;stroke-miterlimit:10;" points="472,107 465.8,107 456.2,119 450,119 	
		"/>
</g>
<polygon style="fill:#C8C8C8;" points="472,112 472,102 478,107 "/>
<path d="M450,10h22v2h-22V10z M472,16V6l6,5L472,16z"/>
<path d="M450,22h22v2h-22V22z M478,23l-6,5V18L478,23z"/>
<path style="fill:#C8C8C8;" d="M450,74h22v2h-22V74z M472,80V70l6,5L472,80z"/>
<path style="fill:#C8C8C8;" d="M450,86h22v2h-22V86z M478,87l-6,5V82L478,87z"/>
<path d="M494,22h14v2h-14V22z M506,10h2v12h-2V10z M504,8h4v2h-4V8z M494,18v10l-6-5L494,18z"/>
<path d="M484,22h4v2h-4V22z M484,8h14v2h-14V8z M498,14V4l6,5L498,14z M484,10h2v12h-2V10z"/>
<path style="fill:#C8C8C8;" d="M494,86h14v2h-14V86z M506,74h2v12h-2V74z M504,72h4v2h-4V72z M494,82v10l-6-5L494,82z"/>
<path style="fill:#C8C8C8;" d="M484,86h4v2h-4V86z M484,72h14v2h-14V72z M498,78V68l6,5L498,78z M484,74h2v12h-2V74z"/>
<rect id="rect4165_120_" x="494" y="54" width="14" height="2"/>
<rect id="rect4165_119_" x="506" y="42" width="2" height="12"/>
<rect id="rect4165_118_" x="484" y="54" width="4" height="2"/>
<rect id="rect4165_117_" x="484" y="40" width="14" height="2"/>
<rect id="rect4165_116_" x="504" y="40" width="4" height="2"/>
<polygon points="498,46 498,36 504,41 "/>
<polygon points="494,50 494,60 488,55 "/>
<rect id="rect4165_115_" x="484" y="42" width="2" height="12"/>
<path id="path4276_1_" inkscape:connector-curvature="0" style="fill:none;stroke:#C8C8C8;" d="M487,103l18,18"/>
<rect id="rect4165_124_" x="494" y="118" style="fill:#C8C8C8;" width="14" height="2"/>
<rect id="rect4165_123_" x="506" y="106" style="fill:#C8C8C8;" width="2" height="12"/>
<rect id="rect4165_121_" x="484" y="118" style="fill:#C8C8C8;" width="4" height="2"/>
<rect id="rect4165_114_" x="484" y="104" style="fill:#C8C8C8;" width="14" height="2"/>
<rect id="rect4165_113_" x="504" y="104" style="fill:#C8C8C8;" width="4" height="2"/>
<polygon style="fill:#C8C8C8;" points="498,110 498,100 504,105 "/>
<polygon style="fill:#C8C8C8;" points="494,114 494,124 488,119 "/>
<rect id="rect4165_112_" x="484" y="106" style="fill:#C8C8C8;" width="2" height="12"/>
<rect id="rect4165_44_" x="164" y="10" width="2" height="10"/>
<rect id="rect4165_45_" x="168" y="6" width="2" height="18"/>
<rect id="rect4165_163_" x="176" y="2" width="2" height="26"/>
<rect id="rect4165_162_" x="172" y="8" width="2" height="14"/>
<rect id="rect4165_46_" x="180" y="8" width="2" height="14"/>
<rect id="rect4165_164_" x="184" y="6" width="2" height="18"/>
<rect id="rect4165_168_" x="188" y="10" width="2" height="10"/>
<rect id="rect4165_169_" x="160" y="76" style="fill:#C8C8C8;" width="2" height="6"/>
<rect id="rect4165_167_" x="164" y="74" style="fill:#C8C8C8;" width="2" height="10"/>
<rect id="rect4165_166_" x="168" y="70" style="fill:#C8C8C8;" width="2" height="18"/>
<rect id="rect4165_165_" x="176" y="66" style="fill:#C8C8C8;" width="2" height="26"/>
<rect id="rect4165_39_" x="172" y="72" style="fill:#C8C8C8;" width="2" height="14"/>
<rect id="rect4165_38_" x="180" y="72" style="fill:#C8C8C8;" width="2" height="14"/>
<rect id="rect4165_37_" x="184" y="70" style="fill:#C8C8C8;" width="2" height="18"/>
<rect id="rect4165_36_" x="188" y="74" style="fill:#C8C8C8;" width="2" height="10"/>
<rect id="rect4165_43_" x="160" y="44" style="fill:#7F7F7F;" width="2" height="6"/>
<rect id="rect4165_42_" x="164" y="42" style="fill:#7F7F7F;" width="2" height="10"/>
<rect id="rect4165_41_" x="168" y="38" style="fill:#7F7F7F;" width="2" height="18"/>
<rect id="rect4165_40_" x="176" y="34" style="fill:#7F7F7F;" width="2" height="26"/>
<rect id="rect4165_31_" x="172" y="40" style="fill:#7F7F7F;" width="2" height="14"/>
<rect id="rect4165_30_" x="180" y="40" style="fill:#7F7F7F;" width="2" height="14"/>
<rect id="rect4165_3_" x="184" y="38" style="fill:#7F7F7F;" width="2" height="18"/>
<rect id="rect4165_2_" x="188" y="42" style="fill:#7F7F7F;" width="2" height="10"/>
<rect id="rect4165_177_" x="160" y="108" style="fill:#646464;" width="2" height="6"/>
<rect id="rect4165_176_" x="164" y="106" style="fill:#646464;" width="2" height="10"/>
<rect id="rect4165_175_" x="168" y="102" style="fill:#646464;" width="2" height="18"/>
<rect id="rect4165_174_" x="176" y="98" style="fill:#646464;" width="2" height="26"/>
<rect id="rect4165_173_" x="172" y="104" style="fill:#646464;" width="2" height="14"/>
<rect id="rect4165_172_" x="180" y="104" style="fill:#646464;" width="2" height="14"/>
<rect id="rect4165_171_" x="184" y="102" style="fill:#646464;" width="2" height="18"/>
<rect id="rect4165_170_" x="188" y="106" style="fill:#646464;" width="2" height="10"/>
<path d="M514,8h26v2h-26V8z M534,14h10l-5,6L534,14z M514,10h2v10h-2V10z M538,10h2v4h-2V10z"/>
<rect id="rect4165_181_" x="514" y="22" width="2" height="2"/>
<rect id="rect4165_182_" x="518" y="22" width="2" height="2"/>
<rect id="rect4165_183_" x="522" y="22" width="2" height="2"/>
<rect id="rect4165_184_" x="526" y="22" width="2" height="2"/>
<rect id="rect4165_185_" x="530" y="22" width="2" height="2"/>
<rect id="rect4165_186_" x="534" y="22" width="2" height="2"/>
<rect id="rect4165_187_" x="538" y="22" width="2" height="2"/>
<path style="fill:#7F7F7F;" d="M514,40h26v2h-26V40z M534,46h10l-5,6L534,46z M514,42h2v10h-2V42z M538,42h2v4h-2V42z"/>
<rect id="rect4165_192_" x="514" y="54" style="fill:#7F7F7F;" width="2" height="2"/>
<rect id="rect4165_191_" x="518" y="54" style="fill:#7F7F7F;" width="2" height="2"/>
<rect id="rect4165_190_" x="522" y="54" style="fill:#7F7F7F;" width="2" height="2"/>
<rect id="rect4165_189_" x="526" y="54" style="fill:#7F7F7F;" width="2" height="2"/>
<rect id="rect4165_188_" x="530" y="54" style="fill:#7F7F7F;" width="2" height="2"/>
<rect id="rect4165_29_" x="534" y="54" style="fill:#7F7F7F;" width="2" height="2"/>
<rect id="rect4165_28_" x="538" y="54" style="fill:#7F7F7F;" width="2" height="2"/>
<path style="fill:#C8C8C8;" d="M514,72h26v2h-26V72z M534,78h10l-5,6L534,78z M514,74h2v10h-2V74z M538,74h2v4h-2V74z"/>
<rect id="rect4165_202_" x="514" y="86" style="fill:#C8C8C8;" width="2" height="2"/>
<rect id="rect4165_201_" x="518" y="86" style="fill:#C8C8C8;" width="2" height="2"/>
<rect id="rect4165_200_" x="522" y="86" style="fill:#C8C8C8;" width="2" height="2"/>
<rect id="rect4165_199_" x="526" y="86" style="fill:#C8C8C8;" width="2" height="2"/>
<rect id="rect4165_198_" x="530" y="86" style="fill:#C8C8C8;" width="2" height="2"/>
<rect id="rect4165_197_" x="534" y="86" style="fill:#C8C8C8;" width="2" height="2"/>
<rect id="rect4165_196_" x="538" y="86" style="fill:#C8C8C8;" width="2" height="2"/>
<path style="fill:#646464;" d="M514,104h26v2h-26V104z M534,110h10l-5,6L534,110z M514,106h2v10h-2V106z M538,106h2v4h-2V106z"/>
<rect id="rect4165_212_" x="514" y="118" style="fill:#646464;" width="2" height="2"/>
<rect id="rect4165_211_" x="518" y="118" style="fill:#646464;" width="2" height="2"/>
<rect id="rect4165_210_" x="522" y="118" style="fill:#646464;" width="2" height="2"/>
<rect id="rect4165_209_" x="526" y="118" style="fill:#646464;" width="2" height="2"/>
<rect id="rect4165_208_" x="530" y="118" style="fill:#646464;" width="2" height="2"/>
<rect id="rect4165_207_" x="534" y="118" style="fill:#646464;" width="2" height="2"/>
<rect id="rect4165_206_" x="538" y="118" style="fill:#646464;" width="2" height="2"/>
<path d="M574,10h-26V8h26V10z M549,20l-5-6h10L549,20z M574,20h-2V10h2V20z M550,14h-2v-4h2V14z"/>
<rect id="rect4165_250_" x="572" y="22" width="2" height="2"/>
<rect id="rect4165_249_" x="568" y="22" width="2" height="2"/>
<rect id="rect4165_248_" x="564" y="22" width="2" height="2"/>
<rect id="rect4165_247_" x="560" y="22" width="2" height="2"/>
<rect id="rect4165_246_" x="556" y="22" width="2" height="2"/>
<rect id="rect4165_245_" x="552" y="22" width="2" height="2"/>
<rect id="rect4165_244_" x="548" y="22" width="2" height="2"/>
<path style="fill:#7F7F7F;" d="M574,42h-26v-2h26V42z M549,52l-5-6h10L549,52z M574,52h-2V42h2V52z M550,46h-2v-4h2V46z"/>
<rect id="rect4165_240_" x="572" y="54" style="fill:#7F7F7F;" width="2" height="2"/>
<rect id="rect4165_239_" x="568" y="54" style="fill:#7F7F7F;" width="2" height="2"/>
<rect id="rect4165_238_" x="564" y="54" style="fill:#7F7F7F;" width="2" height="2"/>
<rect id="rect4165_237_" x="560" y="54" style="fill:#7F7F7F;" width="2" height="2"/>
<rect id="rect4165_236_" x="556" y="54" style="fill:#7F7F7F;" width="2" height="2"/>
<rect id="rect4165_235_" x="552" y="54" style="fill:#7F7F7F;" width="2" height="2"/>
<rect id="rect4165_234_" x="548" y="54" style="fill:#7F7F7F;" width="2" height="2"/>
<path style="fill:#C8C8C8;" d="M574,74h-26v-2h26V74z M549,84l-5-6h10L549,84z M574,84h-2V74h2V84z M550,78h-2v-4h2V78z"/>
<rect id="rect4165_230_" x="572" y="86" style="fill:#C8C8C8;" width="2" height="2"/>
<rect id="rect4165_229_" x="568" y="86" style="fill:#C8C8C8;" width="2" height="2"/>
<rect id="rect4165_228_" x="564" y="86" style="fill:#C8C8C8;" width="2" height="2"/>
<rect id="rect4165_227_" x="560" y="86" style="fill:#C8C8C8;" width="2" height="2"/>
<rect id="rect4165_226_" x="556" y="86" style="fill:#C8C8C8;" width="2" height="2"/>
<rect id="rect4165_225_" x="552" y="86" style="fill:#C8C8C8;" width="2" height="2"/>
<rect id="rect4165_224_" x="548" y="86" style="fill:#C8C8C8;" width="2" height="2"/>
<path style="fill:#646464;" d="M574,106h-26v-2h26V106z M549,116l-5-6h10L549,116z M574,116h-2v-10h2V116z M550,110h-2v-4h2V110z"/>
<rect id="rect4165_220_" x="572" y="118" style="fill:#646464;" width="2" height="2"/>
<rect id="rect4165_219_" x="568" y="118" style="fill:#646464;" width="2" height="2"/>
<rect id="rect4165_218_" x="564" y="118" style="fill:#646464;" width="2" height="2"/>
<rect id="rect4165_217_" x="560" y="118" style="fill:#646464;" width="2" height="2"/>
<rect id="rect4165_216_" x="556" y="118" style="fill:#646464;" width="2" height="2"/>
<rect id="rect4165_27_" x="552" y="118" style="fill:#646464;" width="2" height="2"/>
<rect id="rect4165_26_" x="548" y="118" style="fill:#646464;" width="2" height="2"/>
<rect x="640" y="-32" style="fill:#7F7F7F;" width="32" height="32"/>
<text transform="matrix(1 0 0 1 589.3906 24.3203)" style="fill:#FFFFFF; font-family:'ArialMT'; font-size:22.0792px;">i</text>
<path style="fill:#C8C8C8;" d="M592,88h-2v-2h2V88z M588,88h-2v-2h2V88z M596,84h-2v-2h2V84z M592,84h-2v-2h2V84z M588,84h-2v-2h2
	V84z M600,84h-2v-2h2V84z M588,80h-2v-2h2V80z M596,88h-2v-2h2V88z M592,76h-2v-2h2V76z M588,76h-2v-2h2V76z M582,92h-2V70h2V92z
	 M596,68v2h-16v-2H596z M606,94h-2V78h2V94z M604,92v2h-24v-2H604z M598,76h-2v-8h2V76z M606,76v2h-10v-2H606z M598,76v-8l8,8H598z"
	/>
<path d="M592,24h-2v-2h2V24z M588,24h-2v-2h2V24z M596,20h-2v-2h2V20z M592,20h-2v-2h2V20z M588,20h-2v-2h2V20z M600,20h-2v-2h2V20z
	 M588,16h-2v-2h2V16z M596,24h-2v-2h2V24z M592,12h-2v-2h2V12z M588,12h-2v-2h2V12z M582,28h-2V6h2V28z M596,4v2h-16V4H596z M606,30
	h-2V14h2V30z M604,28v2h-24v-2H604z M598,12h-2V4h2V12z M606,12v2h-10v-2H606z M598,12V4l8,8H598z"/>
<path style="fill:#7F7F7F;" d="M592,56h-2v-2h2V56z M588,56h-2v-2h2V56z M596,52h-2v-2h2V52z M592,52h-2v-2h2V52z M588,52h-2v-2h2
	V52z M600,52h-2v-2h2V52z M588,48h-2v-2h2V48z M596,56h-2v-2h2V56z M592,44h-2v-2h2V44z M588,44h-2v-2h2V44z M582,60h-2V38h2V60z
	 M596,36v2h-16v-2H596z M606,62h-2V46h2V62z M604,60v2h-24v-2H604z M598,44h-2v-8h2V44z M606,44v2h-10v-2H606z M598,44v-8l8,8H598z"
	/>
<path style="fill:#646464;" d="M592,120h-2v-2h2V120z M588,120h-2v-2h2V120z M596,116h-2v-2h2V116z M592,116h-2v-2h2V116z M588,116
	h-2v-2h2V116z M600,116h-2v-2h2V116z M588,112h-2v-2h2V112z M596,120h-2v-2h2V120z M592,108h-2v-2h2V108z M588,108h-2v-2h2V108z
	 M582,124h-2v-22h2V124z M596,100v2h-16v-2H596z M606,126h-2v-16h2V126z M604,124v2h-24v-2H604z M598,108h-2v-8h2V108z M606,108v2
	h-10v-2H606z M598,108v-8l8,8H598z"/>
<line style="fill:none;stroke:#000000;stroke-width:2;stroke-miterlimit:10;" x1="614" y1="26" x2="634" y2="6"/>
<line style="fill:none;stroke:#000000;stroke-width:2;stroke-miterlimit:10;" x1="614" y1="6" x2="634" y2="26"/>
<line style="fill:none;stroke:#C8C8C8;stroke-width:2;stroke-miterlimit:10;" x1="614" y1="90" x2="634" y2="70"/>
<line style="fill:none;stroke:#C8C8C8;stroke-width:2;stroke-miterlimit:10;" x1="614" y1="70" x2="634" y2="90"/>
<line style="fill:none;stroke:#000000;stroke-width:2;stroke-miterlimit:10;" x1="614" y1="58" x2="634" y2="38"/>
<line style="fill:none;stroke:#000000;stroke-width:2;stroke-miterlimit:10;" x1="614" y1="38" x2="634" y2="58"/>
<line style="fill:none;stroke:#C8C8C8;stroke-width:2;stroke-miterlimit:10;" x1="614" y1="122" x2="634" y2="102"/>
<line style="fill:none;stroke:#C8C8C8;stroke-width:2;stroke-miterlimit:10;" x1="614" y1="102" x2="634" y2="122"/>
<path style="fill:#C8C8C8;" d="M762,70h-22v-2h22V70z M762,92h-22v-2h22V92z M742,90h-2V70h2V90z M764,92h-2V68h2V92z M754,90h-2V70
	h2V90z M752,90h-2V70h2V90z M742,82v-2h20v2H742z M742,80v-2h20v2H742z M744,90h-2V70h2V90z M762,90h-2V70h2V90z M742,72v-2h20v2
	H742z M742,90v-2h20v2H742z"/>
<path style="fill:#C8C8C8;" d="M666,70h-22v-2h22V70z M666,92h-22v-2h22V92z M646,90h-2V70h2V90z M668,92h-2V68h2V92z M658,90h-2V70
	h2V90z M656,90h-2V70h2V90z M646,82v-2h20v2H646z M646,80v-2h20v2H646z M648,90h-2V70h2V90z M666,90h-2V70h2V90z M646,72v-2h20v2
	H646z M646,90v-2h20v2H646z M664,78h-6v-6h6V78z M654,88h-6v-6h6V88z M664,88h-6v-6h6V88z"/>
<path style="fill:#C8C8C8;" d="M698,70h-22v-2h22V70z M698,92h-22v-2h22V92z M678,90h-2V70h2V90z M700,92h-2V68h2V92z M690,90h-2V70
	h2V90z M688,90h-2V70h2V90z M678,82v-2h20v2H678z M678,80v-2h20v2H678z M680,90h-2V70h2V90z M698,90h-2V70h2V90z M678,72v-2h20v2
	H678z M678,90v-2h20v2H678z M686,88h-6v-6h6V88z M696,78h-6v-6h6V78z"/>
<path style="fill:#C8C8C8;" d="M730,90V68h2v22H730z M708,90V68h2v22H708z M710,70v-2h20v2H710z M708,92v-2h24v2H708z M710,82v-2h20
	v2H710z M710,80v-2h20v2H710z M718,70h2v20h-2V70z M720,70h2v20h-2V70z M710,72v-2h20v2H710z M710,90v-2h20v2H710z M728,70h2v20h-2
	V70z M710,70h2v20h-2V70z M712,88v-6h6v6H712z"/>
<path style="fill:#646464;" d="M762,102h-22v-2h22V102z M762,124h-22v-2h22V124z M742,122h-2v-20h2V122z M764,124h-2v-24h2V124z
	 M754,122h-2v-20h2V122z M752,122h-2v-20h2V122z M742,114v-2h20v2H742z M742,112v-2h20v2H742z M744,122h-2v-20h2V122z M762,122h-2
	v-20h2V122z M742,104v-2h20v2H742z M742,122v-2h20v2H742z"/>
<path style="fill:#646464;" d="M666,102h-22v-2h22V102z M666,124h-22v-2h22V124z M646,122h-2v-20h2V122z M668,124h-2v-24h2V124z
	 M658,122h-2v-20h2V122z M656,122h-2v-20h2V122z M646,114v-2h20v2H646z M646,112v-2h20v2H646z M648,122h-2v-20h2V122z M666,122h-2
	v-20h2V122z M646,104v-2h20v2H646z M646,122v-2h20v2H646z M664,110h-6v-6h6V110z M654,120h-6v-6h6V120z M664,120h-6v-6h6V120z"/>
<path style="fill:#646464;" d="M698,102h-22v-2h22V102z M698,124h-22v-2h22V124z M678,122h-2v-20h2V122z M700,124h-2v-24h2V124z
	 M690,122h-2v-20h2V122z M688,122h-2v-20h2V122z M678,114v-2h20v2H678z M678,112v-2h20v2H678z M680,122h-2v-20h2V122z M698,122h-2
	v-20h2V122z M678,104v-2h20v2H678z M678,122v-2h20v2H678z M686,120h-6v-6h6V120z M696,110h-6v-6h6V110z"/>
<path style="fill:#646464;" d="M730,122v-22h2v22H730z M708,122v-22h2v22H708z M710,102v-2h20v2H710z M708,124v-2h24v2H708z
	 M710,114v-2h20v2H710z M710,112v-2h20v2H710z M718,102h2v20h-2V102z M720,102h2v20h-2V102z M710,104v-2h20v2H710z M710,122v-2h20v2
	H710z M728,102h2v20h-2V102z M710,102h2v20h-2V102z M712,120v-6h6v6H712z"/>
<path style="fill:#7F7F7F;" d="M762,38h-22v-2h22V38z M762,60h-22v-2h22V60z M742,58h-2V38h2V58z M764,60h-2V36h2V60z M754,58h-2V38
	h2V58z M752,58h-2V38h2V58z M742,50v-2h20v2H742z M742,48v-2h20v2H742z M744,58h-2V38h2V58z M762,58h-2V38h2V58z M742,40v-2h20v2
	H742z M742,58v-2h20v2H742z"/>
<path style="fill:#7F7F7F;" d="M666,38h-22v-2h22V38z M666,60h-22v-2h22V60z M646,58h-2V38h2V58z M668,60h-2V36h2V60z M658,58h-2V38
	h2V58z M656,58h-2V38h2V58z M646,50v-2h20v2H646z M646,48v-2h20v2H646z M648,58h-2V38h2V58z M666,58h-2V38h2V58z M646,40v-2h20v2
	H646z M646,58v-2h20v2H646z M664,46h-6v-6h6V46z M654,56h-6v-6h6V56z M664,56h-6v-6h6V56z"/>
<path style="fill:#7F7F7F;" d="M698,38h-22v-2h22V38z M698,60h-22v-2h22V60z M678,58h-2V38h2V58z M700,60h-2V36h2V60z M690,58h-2V38
	h2V58z M688,58h-2V38h2V58z M678,50v-2h20v2H678z M678,48v-2h20v2H678z M680,58h-2V38h2V58z M698,58h-2V38h2V58z M678,40v-2h20v2
	H678z M678,58v-2h20v2H678z M686,56h-6v-6h6V56z M696,46h-6v-6h6V46z"/>
<path style="fill:#7F7F7F;" d="M730,58V36h2v22H730z M708,58V36h2v22H708z M710,38v-2h20v2H710z M708,60v-2h24v2H708z M710,50v-2h20
	v2H710z M710,48v-2h20v2H710z M718,38h2v20h-2V38z M720,38h2v20h-2V38z M710,40v-2h20v2H710z M710,58v-2h20v2H710z M728,38h2v20h-2
	V38z M710,38h2v20h-2V38z M712,56v-6h6v6H712z"/>
<path d="M762,6h-22V4h22V6z M762,28h-22v-2h22V28z M742,26h-2V6h2V26z M764,28h-2V4h2V28z M754,26h-2V6h2V26z M752,26h-2V6h2V26z
	 M742,18v-2h20v2H742z M742,16v-2h20v2H742z M744,26h-2V6h2V26z M762,26h-2V6h2V26z M742,8V6h20v2H742z M742,26v-2h20v2H742z"/>
<path d="M666,6h-22V4h22V6z M666,28h-22v-2h22V28z M646,26h-2V6h2V26z M668,28h-2V4h2V28z M658,26h-2V6h2V26z M656,26h-2V6h2V26z
	 M646,18v-2h20v2H646z M646,16v-2h20v2H646z M648,26h-2V6h2V26z M666,26h-2V6h2V26z M646,8V6h20v2H646z M646,26v-2h20v2H646z
	 M664,14h-6V8h6V14z M654,24h-6v-6h6V24z M664,24h-6v-6h6V24z"/>
<path d="M698,6h-22V4h22V6z M698,28h-22v-2h22V28z M678,26h-2V6h2V26z M700,28h-2V4h2V28z M690,26h-2V6h2V26z M688,26h-2V6h2V26z
	 M678,18v-2h20v2H678z M678,16v-2h20v2H678z M680,26h-2V6h2V26z M698,26h-2V6h2V26z M678,8V6h20v2H678z M678,26v-2h20v2H678z
	 M686,24h-6v-6h6V24z M696,14h-6V8h6V14z"/>
<path d="M730,26V4h2v22H730z M708,26V4h2v22H708z M710,6V4h20v2H710z M708,28v-2h24v2H708z M710,18v-2h20v2H710z M710,16v-2h20v2
	H710z M718,6h2v20h-2V6z M720,6h2v20h-2V6z M710,8V6h20v2H710z M710,26v-2h20v2H710z M728,6h2v20h-2V6z M710,6h2v20h-2V6z M712,24
	v-6h6v6H712z"/>
</svg>
