<?xml version="1.0" encoding="utf-8"?>
<!-- Generator: Adobe Illustrator 25.2.0, SVG Export Plug-In . SVG Version: 6.00 Build 0)  -->
<svg version="1.1"
	 id="svg3341" inkscape:export-filename="D:\src\mpc-hc\src\mpc-hc\res\toolbar2.png" xmlns:cc="http://creativecommons.org/ns#" xmlns:dc="http://purl.org/dc/elements/1.1/" xmlns:inkscape="http://www.inkscape.org/namespaces/inkscape" xmlns:rdf="http://www.w3.org/1999/02/22-rdf-syntax-ns#" xmlns:sodipodi="http://sodipodi.sourceforge.net/DTD/sodipodi-0.dtd" xmlns:svg="http://www.w3.org/2000/svg"
	 xmlns="http://www.w3.org/2000/svg" xmlns:xlink="http://www.w3.org/1999/xlink" x="0px" y="0px" viewBox="0 0 480 64"
	 style="enable-background:new 0 0 480 64;" xml:space="preserve">
<sodipodi:namedview  bordercolor="#666666" borderopacity="1.0" id="base" inkscape:current-layer="layer1" inkscape:cx="144.97634" inkscape:cy="-0.056865311" inkscape:document-units="px" inkscape:pageopacity="0.0" inkscape:pageshadow="2" inkscape:snap-grids="true" inkscape:window-height="966" inkscape:window-maximized="1" inkscape:window-width="1680" inkscape:window-x="-8" inkscape:window-y="-8" inkscape:zoom="2.0875" pagecolor="#ffffff" showgrid="true" units="px">
	<inkscape:grid  id="grid3353" type="xygrid"></inkscape:grid>
</sodipodi:namedview>
<path id="path4159" inkscape:flatsided="true" inkscape:randomized="0" inkscape:rounded="0" inkscape:transform-center-x="-1.833329" inkscape:transform-center-y="-6.7848101e-005" sodipodi:arg1="2.0943951" sodipodi:arg2="3.1415927" sodipodi:cx="3" sodipodi:cy="1039.3621" sodipodi:r1="4.472136" sodipodi:r2="2.236068" sodipodi:sides="3" sodipodi:type="star" style="fill:#C8C8C8;" d="
	M3,45V34l11,5.5L3,45z"/>
<rect id="rect4161" x="20" y="35" style="fill:#C8C8C8;" width="3" height="9"/>
<rect id="rect4163" x="25" y="35" style="fill:#C8C8C8;" width="3" height="9"/>
<rect id="rect4165" x="36" y="35" style="fill:#C8C8C8;" width="8" height="9"/>
<rect id="rect4167" x="50" y="36" style="fill:#C8C8C8;" width="1" height="7"/>
<path id="path4169" inkscape:flatsided="true" inkscape:randomized="0" inkscape:rounded="0" inkscape:transform-center-x="0.66666139" inkscape:transform-center-y="-3.0343961e-005" sodipodi:arg1="3.1415927" sodipodi:arg2="4.1887902" sodipodi:cx="73" sodipodi:cy="1040.3621" sodipodi:r1="2" sodipodi:r2="1" sodipodi:sides="3" sodipodi:type="star" style="fill:#C8C8C8;" d="
	M52,39.5l4-3.5v7L52,39.5z"/>
<path id="path4171" inkscape:flatsided="true" inkscape:randomized="0" inkscape:rounded="0" inkscape:transform-center-x="0.66666139" inkscape:transform-center-y="-3.0343961e-005" sodipodi:arg1="3.1415927" sodipodi:arg2="4.1887902" sodipodi:cx="73" sodipodi:cy="1040.3621" sodipodi:r1="2" sodipodi:r2="1" sodipodi:sides="3" sodipodi:type="star" style="fill:#C8C8C8;" d="
	M57,39.5l4-3.5v7L57,39.5z"/>
<path id="path4173" inkscape:flatsided="true" inkscape:randomized="0" inkscape:rounded="0" inkscape:transform-center-x="0.66666139" inkscape:transform-center-y="-3.0343961e-005" sodipodi:arg1="3.1415927" sodipodi:arg2="4.1887902" sodipodi:cx="73" sodipodi:cy="1040.3621" sodipodi:r1="2" sodipodi:r2="1" sodipodi:sides="3" sodipodi:type="star" style="fill:#C8C8C8;" d="
	M67,39.5l4-3.5v7L67,39.5z"/>
<path id="path4175" inkscape:flatsided="true" inkscape:randomized="0" inkscape:rounded="0" inkscape:transform-center-x="0.66666139" inkscape:transform-center-y="-3.0343961e-005" sodipodi:arg1="3.1415927" sodipodi:arg2="4.1887902" sodipodi:cx="73" sodipodi:cy="1040.3621" sodipodi:r1="2" sodipodi:r2="1" sodipodi:sides="3" sodipodi:type="star" style="fill:#C8C8C8;" d="
	M72,39.5l4-3.5v7L72,39.5z"/>
<rect id="rect4177" x="108" y="36" style="fill:#C8C8C8;" width="1" height="7"/>
<path id="path4179" inkscape:flatsided="true" inkscape:randomized="0" inkscape:rounded="0" inkscape:transform-center-x="-0.666658" sodipodi:arg1="3.1415927" sodipodi:arg2="4.1887902" sodipodi:cx="73" sodipodi:cy="1040.3621" sodipodi:r1="2" sodipodi:r2="1" sodipodi:sides="3" sodipodi:type="star" style="fill:#C8C8C8;" d="
	M107,39.5l-4,3.5v-7L107,39.5z"/>
<path id="path4181" inkscape:flatsided="true" inkscape:randomized="0" inkscape:rounded="0" inkscape:transform-center-x="-0.666658" sodipodi:arg1="3.1415927" sodipodi:arg2="4.1887902" sodipodi:cx="73" sodipodi:cy="1040.3621" sodipodi:r1="2" sodipodi:r2="1" sodipodi:sides="3" sodipodi:type="star" style="fill:#C8C8C8;" d="
	M102,39.5L98,43v-7L102,39.5z"/>
<path id="path4183" inkscape:flatsided="true" inkscape:randomized="0" inkscape:rounded="0" inkscape:transform-center-x="-0.666658" sodipodi:arg1="3.1415927" sodipodi:arg2="4.1887902" sodipodi:cx="73" sodipodi:cy="1040.3621" sodipodi:r1="2" sodipodi:r2="1" sodipodi:sides="3" sodipodi:type="star" style="fill:#C8C8C8;" d="
	M93,39.5L89,43v-7L93,39.5z"/>
<path id="path4185" inkscape:flatsided="true" inkscape:randomized="0" inkscape:rounded="0" inkscape:transform-center-x="-0.666658" sodipodi:arg1="3.1415927" sodipodi:arg2="4.1887902" sodipodi:cx="73" sodipodi:cy="1040.3621" sodipodi:r1="2" sodipodi:r2="1" sodipodi:sides="3" sodipodi:type="star" style="fill:#C8C8C8;" d="
	M88,39.5L84,43v-7L88,39.5z"/>
<rect id="rect4187" x="116" y="36" style="fill:#C8C8C8;" width="2" height="7"/>
<path style="fill:#C8C8C8;" d="M120,36h1v7h-1V36z M125,39.5l-4,3.5v-7L125,39.5z"/>
<path id="path4179-5" inkscape:flatsided="true" inkscape:randomized="0" inkscape:rounded="0" inkscape:transform-center-x="1.3333156" inkscape:transform-center-y="-0.00016308799" sodipodi:arg1="3.1415927" sodipodi:arg2="4.1887902" sodipodi:cx="73" sodipodi:cy="1040.3621" sodipodi:r1="2" sodipodi:r2="1" sodipodi:sides="3" sodipodi:type="star" style="fill:#C8C8C8;" d="
	M400,40l8-7v14L400,40z"/>
<rect id="rect4187-3" x="400" y="37" style="fill:#C8C8C8;" width="4" height="6"/>
<rect id="rect4181" x="432" y="-16" style="fill-rule:evenodd;clip-rule:evenodd;fill:#0000FF;" width="16" height="16"/>
<rect id="rect4181-4" x="416" y="-16" style="fill-rule:evenodd;clip-rule:evenodd;fill:#F600FF;" width="16" height="16"/>
<rect id="rect4181-4-8" x="400" y="-16" style="fill-rule:evenodd;clip-rule:evenodd;fill:#7200FF;" width="16" height="16"/>
<path id="path4230" sodipodi:cx="200.42171" sodipodi:cy="1044.3516" sodipodi:end="1.4835299" sodipodi:open="true" sodipodi:rx="1.1333569" sodipodi:ry="1.0653899" sodipodi:start="4.7996554" sodipodi:type="arc" style="fill:none;stroke:#C8C8C8;stroke-width:0.5;" d="
	M408.5,38.9c0.6,0,1,0.5,1,1.1s-0.4,1-1,1.1"/>
<path id="path4230-0" sodipodi:cx="201.32703" sodipodi:cy="1044.3516" sodipodi:end="1.4835299" sodipodi:open="true" sodipodi:rx="2.2667139" sodipodi:ry="2.1307797" sodipodi:start="4.7996554" sodipodi:type="arc" style="fill:none;stroke:#C8C8C8;stroke-width:0.6;" d="
	M409.5,37.8c1.2,0.1,2.1,1,2.1,2.1s-0.9,2-2.1,2.1"/>
<path id="path4230-0-7" sodipodi:cx="201.63358" sodipodi:cy="1044.3519" sodipodi:end="1.4835299" sodipodi:open="true" sodipodi:rx="4.5334277" sodipodi:ry="4.2615595" sodipodi:start="4.7996554" sodipodi:type="arc" style="fill:none;stroke:#C8C8C8;stroke-width:0.7;" d="
	M410,35.7c2.3,0.2,4.1,2,4.1,4.2s-1.8,4.1-4.1,4.2"/>
<path id="path4262" inkscape:flatsided="true" inkscape:randomized="0" inkscape:rounded="0" inkscape:transform-center-x="1.3333156" inkscape:transform-center-y="-0.00016308799" sodipodi:arg1="3.1415927" sodipodi:arg2="4.1887902" sodipodi:cx="73" sodipodi:cy="1040.3621" sodipodi:r1="2" sodipodi:r2="1" sodipodi:sides="3" sodipodi:type="star" style="fill:#C8C8C8;" d="
	M420,40l8-7v14L420,40z"/>
<rect id="rect4264" x="420" y="37" style="fill:#C8C8C8;" width="4" height="6"/>
<path id="path4266" inkscape:flatsided="true" inkscape:randomized="0" inkscape:rounded="0" inkscape:transform-center-x="1.3333156" inkscape:transform-center-y="-0.00016308799" sodipodi:arg1="3.1415927" sodipodi:arg2="4.1887902" sodipodi:cx="73" sodipodi:cy="1040.3621" sodipodi:r1="2" sodipodi:r2="1" sodipodi:sides="3" sodipodi:type="star" style="fill:#C8C8C8;" d="
	M436,40l8-7v14L436,40z"/>
<rect id="rect4268" x="436" y="37" style="fill:#C8C8C8;" width="4" height="6"/>
<path id="path4276" inkscape:connector-curvature="0" style="fill:none;stroke:#FF0000;" d="M418,34l12,12"/>
<path id="path4159_1_" inkscape:flatsided="true" inkscape:randomized="0" inkscape:rounded="0" inkscape:transform-center-x="-1.833329" inkscape:transform-center-y="-6.7848101e-005" sodipodi:arg1="2.0943951" sodipodi:arg2="3.1415927" sodipodi:cx="3" sodipodi:cy="1039.3621" sodipodi:r1="4.472136" sodipodi:r2="2.236068" sodipodi:sides="3" sodipodi:type="star" style="fill:#646464;" d="
	M3,61V50l11,5.5L3,61z"/>
<rect id="rect4161_1_" x="20" y="51" style="fill:#646464;" width="3" height="9"/>
<rect id="rect4163_1_" x="25" y="51" style="fill:#646464;" width="3" height="9"/>
<rect id="rect4165_1_" x="36" y="51" style="fill:#646464;" width="8" height="9"/>
<rect id="rect4167_1_" x="50" y="52" style="fill:#646464;" width="1" height="7"/>
<path id="path4169_1_" inkscape:flatsided="true" inkscape:randomized="0" inkscape:rounded="0" inkscape:transform-center-x="0.66666139" inkscape:transform-center-y="-3.0343961e-005" sodipodi:arg1="3.1415927" sodipodi:arg2="4.1887902" sodipodi:cx="73" sodipodi:cy="1040.3621" sodipodi:r1="2" sodipodi:r2="1" sodipodi:sides="3" sodipodi:type="star" style="fill:#646464;" d="
	M52,55.5l4-3.5v7L52,55.5z"/>
<path id="path4171_1_" inkscape:flatsided="true" inkscape:randomized="0" inkscape:rounded="0" inkscape:transform-center-x="0.66666139" inkscape:transform-center-y="-3.0343961e-005" sodipodi:arg1="3.1415927" sodipodi:arg2="4.1887902" sodipodi:cx="73" sodipodi:cy="1040.3621" sodipodi:r1="2" sodipodi:r2="1" sodipodi:sides="3" sodipodi:type="star" style="fill:#646464;" d="
	M57,55.5l4-3.5v7L57,55.5z"/>
<path id="path4173_1_" inkscape:flatsided="true" inkscape:randomized="0" inkscape:rounded="0" inkscape:transform-center-x="0.66666139" inkscape:transform-center-y="-3.0343961e-005" sodipodi:arg1="3.1415927" sodipodi:arg2="4.1887902" sodipodi:cx="73" sodipodi:cy="1040.3621" sodipodi:r1="2" sodipodi:r2="1" sodipodi:sides="3" sodipodi:type="star" style="fill:#646464;" d="
	M67,55.5l4-3.5v7L67,55.5z"/>
<path id="path4175_1_" inkscape:flatsided="true" inkscape:randomized="0" inkscape:rounded="0" inkscape:transform-center-x="0.66666139" inkscape:transform-center-y="-3.0343961e-005" sodipodi:arg1="3.1415927" sodipodi:arg2="4.1887902" sodipodi:cx="73" sodipodi:cy="1040.3621" sodipodi:r1="2" sodipodi:r2="1" sodipodi:sides="3" sodipodi:type="star" style="fill:#646464;" d="
	M72,55.5l4-3.5v7L72,55.5z"/>
<rect id="rect4177_1_" x="108" y="52" style="fill:#646464;" width="1" height="7"/>
<path id="path4179_1_" inkscape:flatsided="true" inkscape:randomized="0" inkscape:rounded="0" inkscape:transform-center-x="-0.666658" sodipodi:arg1="3.1415927" sodipodi:arg2="4.1887902" sodipodi:cx="73" sodipodi:cy="1040.3621" sodipodi:r1="2" sodipodi:r2="1" sodipodi:sides="3" sodipodi:type="star" style="fill:#646464;" d="
	M107,55.5l-4,3.5v-7L107,55.5z"/>
<path id="path4181_1_" inkscape:flatsided="true" inkscape:randomized="0" inkscape:rounded="0" inkscape:transform-center-x="-0.666658" sodipodi:arg1="3.1415927" sodipodi:arg2="4.1887902" sodipodi:cx="73" sodipodi:cy="1040.3621" sodipodi:r1="2" sodipodi:r2="1" sodipodi:sides="3" sodipodi:type="star" style="fill:#646464;" d="
	M102,55.5L98,59v-7L102,55.5z"/>
<path id="path4183_1_" inkscape:flatsided="true" inkscape:randomized="0" inkscape:rounded="0" inkscape:transform-center-x="-0.666658" sodipodi:arg1="3.1415927" sodipodi:arg2="4.1887902" sodipodi:cx="73" sodipodi:cy="1040.3621" sodipodi:r1="2" sodipodi:r2="1" sodipodi:sides="3" sodipodi:type="star" style="fill:#646464;" d="
	M93,55.5L89,59v-7L93,55.5z"/>
<path id="path4185_1_" inkscape:flatsided="true" inkscape:randomized="0" inkscape:rounded="0" inkscape:transform-center-x="-0.666658" sodipodi:arg1="3.1415927" sodipodi:arg2="4.1887902" sodipodi:cx="73" sodipodi:cy="1040.3621" sodipodi:r1="2" sodipodi:r2="1" sodipodi:sides="3" sodipodi:type="star" style="fill:#646464;" d="
	M88,55.5L84,59v-7L88,55.5z"/>
<rect id="rect4187_1_" x="116" y="52" style="fill:#646464;" width="2" height="7"/>
<path style="fill:#646464;" d="M120,52h1v7h-1V52z M125,55.5l-4,3.5v-7L125,55.5z"/>
<path id="path4179-5_1_" inkscape:flatsided="true" inkscape:randomized="0" inkscape:rounded="0" inkscape:transform-center-x="1.3333156" inkscape:transform-center-y="-0.00016308799" sodipodi:arg1="3.1415927" sodipodi:arg2="4.1887902" sodipodi:cx="73" sodipodi:cy="1040.3621" sodipodi:r1="2" sodipodi:r2="1" sodipodi:sides="3" sodipodi:type="star" style="fill:#646464;" d="
	M400,56l8-7v14L400,56z"/>
<rect id="rect4187-3_1_" x="400" y="53" style="fill:#646464;" width="4" height="6"/>
<path id="path4230_1_" sodipodi:cx="200.42171" sodipodi:cy="1044.3516" sodipodi:end="1.4835299" sodipodi:open="true" sodipodi:rx="1.1333569" sodipodi:ry="1.0653899" sodipodi:start="4.7996554" sodipodi:type="arc" style="fill:none;stroke:#646464;stroke-width:0.5;" d="
	M408.5,54.9c0.6,0,1,0.5,1,1.1s-0.4,1-1,1.1"/>
<path id="path4230-0_1_" sodipodi:cx="201.32703" sodipodi:cy="1044.3516" sodipodi:end="1.4835299" sodipodi:open="true" sodipodi:rx="2.2667139" sodipodi:ry="2.1307797" sodipodi:start="4.7996554" sodipodi:type="arc" style="fill:none;stroke:#646464;stroke-width:0.6;" d="
	M409.5,53.8c1.2,0.1,2.1,1,2.1,2.1s-0.9,2-2.1,2.1"/>
<path id="path4230-0-7_1_" sodipodi:cx="201.63358" sodipodi:cy="1044.3519" sodipodi:end="1.4835299" sodipodi:open="true" sodipodi:rx="4.5334277" sodipodi:ry="4.2615595" sodipodi:start="4.7996554" sodipodi:type="arc" style="fill:none;stroke:#646464;stroke-width:0.7;" d="
	M410,51.7c2.3,0.2,4.1,2,4.1,4.2s-1.8,4.1-4.1,4.2"/>
<path id="path4262_1_" inkscape:flatsided="true" inkscape:randomized="0" inkscape:rounded="0" inkscape:transform-center-x="1.3333156" inkscape:transform-center-y="-0.00016308799" sodipodi:arg1="3.1415927" sodipodi:arg2="4.1887902" sodipodi:cx="73" sodipodi:cy="1040.3621" sodipodi:r1="2" sodipodi:r2="1" sodipodi:sides="3" sodipodi:type="star" style="fill:#646464;" d="
	M420,56l8-7v14L420,56z"/>
<rect id="rect4264_1_" x="420" y="53" style="fill:#646464;" width="4" height="6"/>
<path id="path4266_1_" inkscape:flatsided="true" inkscape:randomized="0" inkscape:rounded="0" inkscape:transform-center-x="1.3333156" inkscape:transform-center-y="-0.00016308799" sodipodi:arg1="3.1415927" sodipodi:arg2="4.1887902" sodipodi:cx="73" sodipodi:cy="1040.3621" sodipodi:r1="2" sodipodi:r2="1" sodipodi:sides="3" sodipodi:type="star" style="fill:#646464;" d="
	M436,56l8-7v14L436,56z"/>
<rect id="rect4268_1_" x="436" y="53" style="fill:#646464;" width="4" height="6"/>
<path id="path4276_1_" inkscape:connector-curvature="0" style="fill:none;stroke:#FF0000;" d="M418,50l12,12"/>
<polygon points="3,13 3,2 14,7.5 "/>
<rect x="20" y="3" width="3" height="9"/>
<rect x="25" y="3" width="3" height="9"/>
<rect x="36" y="3" width="8" height="9"/>
<rect x="50" y="4" width="1" height="7"/>
<polygon points="52,7.5 56,4 56,11 "/>
<polygon points="57,7.5 61,4 61,11 "/>
<polygon points="67,7.5 71,4 71,11 "/>
<polygon points="72,7.5 76,4 76,11 "/>
<rect x="108" y="4" width="1" height="7"/>
<polygon points="107,7.5 103,11 103,4 "/>
<polygon points="102,7.5 98,11 98,4 "/>
<polygon points="93,7.5 89,11 89,4 "/>
<polygon points="88,7.5 84,11 84,4 "/>
<rect x="116" y="4" width="2" height="7"/>
<path d="M121,11h-1V4h1V11z M125,7.5l-4,3.5V4L125,7.5z"/>
<polygon points="400,8 408,1 408,15 "/>
<path d="M404,11h-4V5h4V11z"/>
<path style="fill:none;stroke:#000000;stroke-width:0.5;" d="M408.5,6.9c0.6,0,1,0.5,1,1.1s-0.4,1-1,1.1"/>
<path style="fill:none;stroke:#000000;stroke-width:0.6;" d="M409.5,5.9c1.2,0.1,2.1,1,2.1,2.1s-0.9,2-2.1,2.1"/>
<path style="fill:none;stroke:#000000;stroke-width:0.7;" d="M410,3.7c2.3,0.2,4.1,2,4.1,4.2s-1.8,4.1-4.1,4.2"/>
<path d="M420,8l8-7v14L420,8z"/>
<path d="M424,11h-4V5h4V11z M436,8l8-7v14L436,8z"/>
<path d="M440,11h-4V5h4V11z"/>
<path style="fill:none;stroke:#FF0000;" d="M418,2l12,12"/>
<polygon style="fill:#7F7F7F;" points="3,29 3,18 14,23.5 "/>
<rect x="20" y="19" style="fill:#7F7F7F;" width="3" height="9"/>
<rect x="25" y="19" style="fill:#7F7F7F;" width="3" height="9"/>
<rect x="36" y="19" style="fill:#7F7F7F;" width="8" height="9"/>
<rect x="50" y="20" style="fill:#7F7F7F;" width="1" height="7"/>
<polygon style="fill:#7F7F7F;" points="52,23.5 56,20 56,27 "/>
<polygon style="fill:#7F7F7F;" points="57,23.5 61,20 61,27 "/>
<polygon style="fill:#7F7F7F;" points="67,23.5 71,20 71,27 "/>
<polygon style="fill:#7F7F7F;" points="72,23.5 76,20 76,27 "/>
<rect x="108" y="20" style="fill:#7F7F7F;" width="1" height="7"/>
<polygon style="fill:#7F7F7F;" points="107,23.5 103,27 103,20 "/>
<polygon style="fill:#7F7F7F;" points="102,23.5 98,27 98,20 "/>
<polygon style="fill:#7F7F7F;" points="93,23.5 89,27 89,20 "/>
<polygon style="fill:#7F7F7F;" points="88,23.5 84,27 84,20 "/>
<rect x="116" y="20" style="fill:#7F7F7F;" width="2" height="7"/>
<path style="fill:#7F7F7F;" d="M121,27h-1v-7h1V27z M125,23.5l-4,3.5v-7L125,23.5z"/>
<polygon style="fill:#7F7F7F;" points="400,24 408,17 408,31 "/>
<path style="fill:#7F7F7F;" d="M404,27h-4v-6h4V27z"/>
<path style="fill:none;stroke:#7F7F7F;stroke-width:0.5;" d="M408.5,22.9c0.6,0,1,0.5,1,1.1s-0.4,1-1,1.1"/>
<path style="fill:none;stroke:#7F7F7F;stroke-width:0.6;" d="M409.5,21.9c1.2,0.1,2.1,1,2.1,2.1s-0.9,2-2.1,2.1"/>
<path style="fill:none;stroke:#7F7F7F;stroke-width:0.7;" d="M410,19.7c2.3,0.2,4.1,2,4.1,4.2s-1.8,4.1-4.1,4.2"/>
<path style="fill:#7F7F7F;" d="M420,24l8-7v14L420,24z"/>
<path style="fill:#7F7F7F;" d="M424,27h-4v-6h4V27z M436,24l8-7v14L436,24z"/>
<path style="fill:#7F7F7F;" d="M440,27h-4v-6h4V27z"/>
<path style="fill:none;stroke:#FF0000;" d="M418,18l12,12"/>
<polygon points="448,13 480,2 480,13 "/>
<polygon style="fill:#7F7F7F;" points="448,29 480,18 480,29 "/>
<polygon style="fill:#C8C8C8;" points="448,45 480,34 480,45 "/>
<polygon style="fill:#646464;" points="448,61 480,50 480,61 "/>
</svg>
