<?xml version="1.0" encoding="utf-8"?>
<!-- Generator: Adobe Illustrator 25.2.0, SVG Export Plug-In . SVG Version: 6.00 Build 0)  -->
<svg version="1.1"
	 id="svg3341" inkscape:export-filename="D:\src\mpc-hc\src\mpc-hc\res\toolbar2.png" xmlns:cc="http://creativecommons.org/ns#" xmlns:dc="http://purl.org/dc/elements/1.1/" xmlns:inkscape="http://www.inkscape.org/namespaces/inkscape" xmlns:rdf="http://www.w3.org/1999/02/22-rdf-syntax-ns#" xmlns:sodipodi="http://sodipodi.sourceforge.net/DTD/sodipodi-0.dtd" xmlns:svg="http://www.w3.org/2000/svg"
	 xmlns="http://www.w3.org/2000/svg" xmlns:xlink="http://www.w3.org/1999/xlink" x="0px" y="0px" viewBox="0 0 272 64"
	 style="enable-background:new 0 0 272 64;" xml:space="preserve">
<sodipodi:namedview  bordercolor="#666666" borderopacity="1.0" id="base" inkscape:current-layer="layer1" inkscape:cx="144.97634" inkscape:cy="-0.056865311" inkscape:document-units="px" inkscape:pageopacity="0.0" inkscape:pageshadow="2" inkscape:snap-grids="true" inkscape:window-height="966" inkscape:window-maximized="1" inkscape:window-width="1680" inkscape:window-x="-8" inkscape:window-y="-8" inkscape:zoom="2.0875" pagecolor="#ffffff" showgrid="true" units="px">
	<inkscape:grid  id="grid3353" type="xygrid"></inkscape:grid>
</sodipodi:namedview>
<g id="layer1" transform="translate(0,-1036.3621)" inkscape:groupmode="layer" inkscape:label="Calque 1">
	
		<path id="path4159" inkscape:flatsided="true" inkscape:randomized="0" inkscape:rounded="0" inkscape:transform-center-x="-1.833329" inkscape:transform-center-y="-6.7848101e-005" sodipodi:arg1="2.0943951" sodipodi:arg2="3.1415927" sodipodi:cx="3" sodipodi:cy="1039.3621" sodipodi:r1="4.472136" sodipodi:r2="2.236068" sodipodi:sides="3" sodipodi:type="star" style="fill:#C8C8C8;" d="
		M3,1081.4v-11l11,5.5L3,1081.4z"/>
	<rect id="rect4161" x="20" y="1071.4" style="fill:#C8C8C8;" width="3" height="9"/>
	<rect id="rect4163" x="25" y="1071.4" style="fill:#C8C8C8;" width="3" height="9"/>
	<rect id="rect4165" x="36" y="1071.4" style="fill:#C8C8C8;" width="8" height="9"/>
	<rect id="rect4167" x="66" y="1072.4" style="fill:#C8C8C8;" width="1" height="7"/>
	
		<path id="path4169" inkscape:flatsided="true" inkscape:randomized="0" inkscape:rounded="0" inkscape:transform-center-x="0.66666139" inkscape:transform-center-y="-3.0343961e-005" sodipodi:arg1="3.1415927" sodipodi:arg2="4.1887902" sodipodi:cx="73" sodipodi:cy="1040.3621" sodipodi:r1="2" sodipodi:r2="1" sodipodi:sides="3" sodipodi:type="star" style="fill:#C8C8C8;" d="
		M68,1075.9l4-3.5v7L68,1075.9z"/>
	
		<path id="path4171" inkscape:flatsided="true" inkscape:randomized="0" inkscape:rounded="0" inkscape:transform-center-x="0.66666139" inkscape:transform-center-y="-3.0343961e-005" sodipodi:arg1="3.1415927" sodipodi:arg2="4.1887902" sodipodi:cx="73" sodipodi:cy="1040.3621" sodipodi:r1="2" sodipodi:r2="1" sodipodi:sides="3" sodipodi:type="star" style="fill:#C8C8C8;" d="
		M73,1075.9l4-3.5v7L73,1075.9z"/>
	
		<path id="path4173" inkscape:flatsided="true" inkscape:randomized="0" inkscape:rounded="0" inkscape:transform-center-x="0.66666139" inkscape:transform-center-y="-3.0343961e-005" sodipodi:arg1="3.1415927" sodipodi:arg2="4.1887902" sodipodi:cx="73" sodipodi:cy="1040.3621" sodipodi:r1="2" sodipodi:r2="1" sodipodi:sides="3" sodipodi:type="star" style="fill:#C8C8C8;" d="
		M83,1075.9l4-3.5v7L83,1075.9z"/>
	
		<path id="path4175" inkscape:flatsided="true" inkscape:randomized="0" inkscape:rounded="0" inkscape:transform-center-x="0.66666139" inkscape:transform-center-y="-3.0343961e-005" sodipodi:arg1="3.1415927" sodipodi:arg2="4.1887902" sodipodi:cx="73" sodipodi:cy="1040.3621" sodipodi:r1="2" sodipodi:r2="1" sodipodi:sides="3" sodipodi:type="star" style="fill:#C8C8C8;" d="
		M88,1075.9l4-3.5v7L88,1075.9z"/>
	<rect id="rect4177" x="124" y="1072.4" style="fill:#C8C8C8;" width="1" height="7"/>
	
		<path id="path4179" inkscape:flatsided="true" inkscape:randomized="0" inkscape:rounded="0" inkscape:transform-center-x="-0.666658" sodipodi:arg1="3.1415927" sodipodi:arg2="4.1887902" sodipodi:cx="73" sodipodi:cy="1040.3621" sodipodi:r1="2" sodipodi:r2="1" sodipodi:sides="3" sodipodi:type="star" style="fill:#C8C8C8;" d="
		M123,1075.9l-4,3.5v-7L123,1075.9z"/>
	
		<path id="path4181" inkscape:flatsided="true" inkscape:randomized="0" inkscape:rounded="0" inkscape:transform-center-x="-0.666658" sodipodi:arg1="3.1415927" sodipodi:arg2="4.1887902" sodipodi:cx="73" sodipodi:cy="1040.3621" sodipodi:r1="2" sodipodi:r2="1" sodipodi:sides="3" sodipodi:type="star" style="fill:#C8C8C8;" d="
		M118,1075.9l-4,3.5v-7L118,1075.9z"/>
	
		<path id="path4183" inkscape:flatsided="true" inkscape:randomized="0" inkscape:rounded="0" inkscape:transform-center-x="-0.666658" sodipodi:arg1="3.1415927" sodipodi:arg2="4.1887902" sodipodi:cx="73" sodipodi:cy="1040.3621" sodipodi:r1="2" sodipodi:r2="1" sodipodi:sides="3" sodipodi:type="star" style="fill:#C8C8C8;" d="
		M109,1075.9l-4,3.5v-7L109,1075.9z"/>
	
		<path id="path4185" inkscape:flatsided="true" inkscape:randomized="0" inkscape:rounded="0" inkscape:transform-center-x="-0.666658" sodipodi:arg1="3.1415927" sodipodi:arg2="4.1887902" sodipodi:cx="73" sodipodi:cy="1040.3621" sodipodi:r1="2" sodipodi:r2="1" sodipodi:sides="3" sodipodi:type="star" style="fill:#C8C8C8;" d="
		M104,1075.9l-4,3.5v-7L104,1075.9z"/>
	<rect id="rect4187" x="148" y="1072.4" style="fill:#C8C8C8;" width="2" height="7"/>
	<path style="fill:#C8C8C8;" d="M152,1072.4h1v7h-1V1072.4z M157,1075.9l-4,3.5v-7L157,1075.9z"/>
	
		<path id="path4179-5" inkscape:flatsided="true" inkscape:randomized="0" inkscape:rounded="0" inkscape:transform-center-x="1.3333156" inkscape:transform-center-y="-0.00016308799" sodipodi:arg1="3.1415927" sodipodi:arg2="4.1887902" sodipodi:cx="73" sodipodi:cy="1040.3621" sodipodi:r1="2" sodipodi:r2="1" sodipodi:sides="3" sodipodi:type="star" style="fill:#C8C8C8;" d="
		M192,1076.4l8-7v14L192,1076.4z"/>
	<rect id="rect4187-3" x="192" y="1073.4" style="fill:#C8C8C8;" width="4" height="6"/>
	<rect id="rect4181" x="224" y="1020.4" style="fill-rule:evenodd;clip-rule:evenodd;fill:#0000FF;" width="16" height="16"/>
	<rect id="rect4181-4" x="208" y="1020.4" style="fill-rule:evenodd;clip-rule:evenodd;fill:#F600FF;" width="16" height="16"/>
	<rect id="rect4181-4-8" x="192" y="1020.4" style="fill-rule:evenodd;clip-rule:evenodd;fill:#7200FF;" width="16" height="16"/>
	
		<path id="path4230" sodipodi:cx="200.42171" sodipodi:cy="1044.3516" sodipodi:end="1.4835299" sodipodi:open="true" sodipodi:rx="1.1333569" sodipodi:ry="1.0653899" sodipodi:start="4.7996554" sodipodi:type="arc" style="fill:none;stroke:#C8C8C8;stroke-width:0.5;" d="
		M200.5,1075.3c0.6,0,1,0.5,1,1.1s-0.4,1-1,1.1"/>
	
		<path id="path4230-0" sodipodi:cx="201.32703" sodipodi:cy="1044.3516" sodipodi:end="1.4835299" sodipodi:open="true" sodipodi:rx="2.2667139" sodipodi:ry="2.1307797" sodipodi:start="4.7996554" sodipodi:type="arc" style="fill:none;stroke:#C8C8C8;stroke-width:0.6;" d="
		M201.5,1074.2c1.2,0.1,2.1,1,2.1,2.1s-0.9,2-2.1,2.1"/>
	
		<path id="path4230-0-7" sodipodi:cx="201.63358" sodipodi:cy="1044.3519" sodipodi:end="1.4835299" sodipodi:open="true" sodipodi:rx="4.5334277" sodipodi:ry="4.2615595" sodipodi:start="4.7996554" sodipodi:type="arc" style="fill:none;stroke:#C8C8C8;stroke-width:0.7;" d="
		M202,1072.1c2.3,0.2,4.1,2,4.1,4.2s-1.8,4.1-4.1,4.2"/>
	
		<path id="path4262" inkscape:flatsided="true" inkscape:randomized="0" inkscape:rounded="0" inkscape:transform-center-x="1.3333156" inkscape:transform-center-y="-0.00016308799" sodipodi:arg1="3.1415927" sodipodi:arg2="4.1887902" sodipodi:cx="73" sodipodi:cy="1040.3621" sodipodi:r1="2" sodipodi:r2="1" sodipodi:sides="3" sodipodi:type="star" style="fill:#C8C8C8;" d="
		M212,1076.4l8-7v14L212,1076.4z"/>
	<rect id="rect4264" x="212" y="1073.4" style="fill:#C8C8C8;" width="4" height="6"/>
	
		<path id="path4266" inkscape:flatsided="true" inkscape:randomized="0" inkscape:rounded="0" inkscape:transform-center-x="1.3333156" inkscape:transform-center-y="-0.00016308799" sodipodi:arg1="3.1415927" sodipodi:arg2="4.1887902" sodipodi:cx="73" sodipodi:cy="1040.3621" sodipodi:r1="2" sodipodi:r2="1" sodipodi:sides="3" sodipodi:type="star" style="fill:#C8C8C8;" d="
		M228,1076.4l8-7v14L228,1076.4z"/>
	<rect id="rect4268" x="228" y="1073.4" style="fill:#C8C8C8;" width="4" height="6"/>
	<path id="path4276" inkscape:connector-curvature="0" style="fill:none;stroke:#FF0000;" d="M210,1070.4l12,12"/>
</g>
<path id="path4159_1_" inkscape:flatsided="true" inkscape:randomized="0" inkscape:rounded="0" inkscape:transform-center-x="-1.833329" inkscape:transform-center-y="-6.7848101e-005" sodipodi:arg1="2.0943951" sodipodi:arg2="3.1415927" sodipodi:cx="3" sodipodi:cy="1039.3621" sodipodi:r1="4.472136" sodipodi:r2="2.236068" sodipodi:sides="3" sodipodi:type="star" style="fill:#646464;" d="
	M3,61V50l11,5.5L3,61z"/>
<rect id="rect4161_1_" x="20" y="51" style="fill:#646464;" width="3" height="9"/>
<rect id="rect4163_1_" x="25" y="51" style="fill:#646464;" width="3" height="9"/>
<rect id="rect4165_1_" x="36" y="51" style="fill:#646464;" width="8" height="9"/>
<rect id="rect4167_1_" x="66" y="52" style="fill:#646464;" width="1" height="7"/>
<path id="path4169_1_" inkscape:flatsided="true" inkscape:randomized="0" inkscape:rounded="0" inkscape:transform-center-x="0.66666139" inkscape:transform-center-y="-3.0343961e-005" sodipodi:arg1="3.1415927" sodipodi:arg2="4.1887902" sodipodi:cx="73" sodipodi:cy="1040.3621" sodipodi:r1="2" sodipodi:r2="1" sodipodi:sides="3" sodipodi:type="star" style="fill:#646464;" d="
	M68,55.5l4-3.5v7L68,55.5z"/>
<path id="path4171_1_" inkscape:flatsided="true" inkscape:randomized="0" inkscape:rounded="0" inkscape:transform-center-x="0.66666139" inkscape:transform-center-y="-3.0343961e-005" sodipodi:arg1="3.1415927" sodipodi:arg2="4.1887902" sodipodi:cx="73" sodipodi:cy="1040.3621" sodipodi:r1="2" sodipodi:r2="1" sodipodi:sides="3" sodipodi:type="star" style="fill:#646464;" d="
	M73,55.5l4-3.5v7L73,55.5z"/>
<path id="path4173_1_" inkscape:flatsided="true" inkscape:randomized="0" inkscape:rounded="0" inkscape:transform-center-x="0.66666139" inkscape:transform-center-y="-3.0343961e-005" sodipodi:arg1="3.1415927" sodipodi:arg2="4.1887902" sodipodi:cx="73" sodipodi:cy="1040.3621" sodipodi:r1="2" sodipodi:r2="1" sodipodi:sides="3" sodipodi:type="star" style="fill:#646464;" d="
	M83,55.5l4-3.5v7L83,55.5z"/>
<path id="path4175_1_" inkscape:flatsided="true" inkscape:randomized="0" inkscape:rounded="0" inkscape:transform-center-x="0.66666139" inkscape:transform-center-y="-3.0343961e-005" sodipodi:arg1="3.1415927" sodipodi:arg2="4.1887902" sodipodi:cx="73" sodipodi:cy="1040.3621" sodipodi:r1="2" sodipodi:r2="1" sodipodi:sides="3" sodipodi:type="star" style="fill:#646464;" d="
	M88,55.5l4-3.5v7L88,55.5z"/>
<rect id="rect4177_1_" x="124" y="52" style="fill:#646464;" width="1" height="7"/>
<path id="path4179_1_" inkscape:flatsided="true" inkscape:randomized="0" inkscape:rounded="0" inkscape:transform-center-x="-0.666658" sodipodi:arg1="3.1415927" sodipodi:arg2="4.1887902" sodipodi:cx="73" sodipodi:cy="1040.3621" sodipodi:r1="2" sodipodi:r2="1" sodipodi:sides="3" sodipodi:type="star" style="fill:#646464;" d="
	M123,55.5l-4,3.5v-7L123,55.5z"/>
<path id="path4181_1_" inkscape:flatsided="true" inkscape:randomized="0" inkscape:rounded="0" inkscape:transform-center-x="-0.666658" sodipodi:arg1="3.1415927" sodipodi:arg2="4.1887902" sodipodi:cx="73" sodipodi:cy="1040.3621" sodipodi:r1="2" sodipodi:r2="1" sodipodi:sides="3" sodipodi:type="star" style="fill:#646464;" d="
	M118,55.5l-4,3.5v-7L118,55.5z"/>
<path id="path4183_1_" inkscape:flatsided="true" inkscape:randomized="0" inkscape:rounded="0" inkscape:transform-center-x="-0.666658" sodipodi:arg1="3.1415927" sodipodi:arg2="4.1887902" sodipodi:cx="73" sodipodi:cy="1040.3621" sodipodi:r1="2" sodipodi:r2="1" sodipodi:sides="3" sodipodi:type="star" style="fill:#646464;" d="
	M109,55.5l-4,3.5v-7L109,55.5z"/>
<path id="path4185_1_" inkscape:flatsided="true" inkscape:randomized="0" inkscape:rounded="0" inkscape:transform-center-x="-0.666658" sodipodi:arg1="3.1415927" sodipodi:arg2="4.1887902" sodipodi:cx="73" sodipodi:cy="1040.3621" sodipodi:r1="2" sodipodi:r2="1" sodipodi:sides="3" sodipodi:type="star" style="fill:#646464;" d="
	M104,55.5l-4,3.5v-7L104,55.5z"/>
<rect id="rect4187_1_" x="148" y="52" style="fill:#646464;" width="2" height="7"/>
<path style="fill:#646464;" d="M152,52h1v7h-1V52z M157,55.5l-4,3.5v-7L157,55.5z"/>
<path id="path4179-5_1_" inkscape:flatsided="true" inkscape:randomized="0" inkscape:rounded="0" inkscape:transform-center-x="1.3333156" inkscape:transform-center-y="-0.00016308799" sodipodi:arg1="3.1415927" sodipodi:arg2="4.1887902" sodipodi:cx="73" sodipodi:cy="1040.3621" sodipodi:r1="2" sodipodi:r2="1" sodipodi:sides="3" sodipodi:type="star" style="fill:#646464;" d="
	M192,56l8-7v14L192,56z"/>
<rect id="rect4187-3_1_" x="192" y="53" style="fill:#646464;" width="4" height="6"/>
<path id="path4230_1_" sodipodi:cx="200.42171" sodipodi:cy="1044.3516" sodipodi:end="1.4835299" sodipodi:open="true" sodipodi:rx="1.1333569" sodipodi:ry="1.0653899" sodipodi:start="4.7996554" sodipodi:type="arc" style="fill:none;stroke:#646464;stroke-width:0.5;" d="
	M200.5,54.9c0.6,0,1,0.5,1,1.1s-0.4,1-1,1.1"/>
<path id="path4230-0_1_" sodipodi:cx="201.32703" sodipodi:cy="1044.3516" sodipodi:end="1.4835299" sodipodi:open="true" sodipodi:rx="2.2667139" sodipodi:ry="2.1307797" sodipodi:start="4.7996554" sodipodi:type="arc" style="fill:none;stroke:#646464;stroke-width:0.6;" d="
	M201.5,53.8c1.2,0.1,2.1,1,2.1,2.1s-0.9,2-2.1,2.1"/>
<path id="path4230-0-7_1_" sodipodi:cx="201.63358" sodipodi:cy="1044.3519" sodipodi:end="1.4835299" sodipodi:open="true" sodipodi:rx="4.5334277" sodipodi:ry="4.2615595" sodipodi:start="4.7996554" sodipodi:type="arc" style="fill:none;stroke:#646464;stroke-width:0.7;" d="
	M202,51.7c2.3,0.2,4.1,2,4.1,4.2s-1.8,4.1-4.1,4.2"/>
<path id="path4262_1_" inkscape:flatsided="true" inkscape:randomized="0" inkscape:rounded="0" inkscape:transform-center-x="1.3333156" inkscape:transform-center-y="-0.00016308799" sodipodi:arg1="3.1415927" sodipodi:arg2="4.1887902" sodipodi:cx="73" sodipodi:cy="1040.3621" sodipodi:r1="2" sodipodi:r2="1" sodipodi:sides="3" sodipodi:type="star" style="fill:#646464;" d="
	M212,56l8-7v14L212,56z"/>
<rect id="rect4264_1_" x="212" y="53" style="fill:#646464;" width="4" height="6"/>
<path id="path4266_1_" inkscape:flatsided="true" inkscape:randomized="0" inkscape:rounded="0" inkscape:transform-center-x="1.3333156" inkscape:transform-center-y="-0.00016308799" sodipodi:arg1="3.1415927" sodipodi:arg2="4.1887902" sodipodi:cx="73" sodipodi:cy="1040.3621" sodipodi:r1="2" sodipodi:r2="1" sodipodi:sides="3" sodipodi:type="star" style="fill:#646464;" d="
	M228,56l8-7v14L228,56z"/>
<rect id="rect4268_1_" x="228" y="53" style="fill:#646464;" width="4" height="6"/>
<path id="path4276_1_" inkscape:connector-curvature="0" style="fill:none;stroke:#FF0000;" d="M210,50l12,12"/>
<polygon points="3,13 3,2 14,7.5 "/>
<rect x="20" y="3" width="3" height="9"/>
<rect x="25" y="3" width="3" height="9"/>
<rect x="36" y="3" width="8" height="9"/>
<rect x="66" y="4" width="1" height="7"/>
<polygon points="68,7.5 72,4 72,11 "/>
<polygon points="73,7.5 77,4 77,11 "/>
<polygon points="83,7.5 87,4 87,11 "/>
<polygon points="88,7.5 92,4 92,11 "/>
<rect x="124" y="4" width="1" height="7"/>
<polygon points="123,7.5 119,11 119,4 "/>
<polygon points="118,7.5 114,11 114,4 "/>
<polygon points="109,7.5 105,11 105,4 "/>
<polygon points="104,7.5 100,11 100,4 "/>
<rect x="148" y="4" width="2" height="7"/>
<path d="M153,11h-1V4h1V11z M157,7.5l-4,3.5V4L157,7.5z"/>
<polygon points="192,8 200,1 200,15 "/>
<path d="M196,11h-4V5h4V11z"/>
<path style="fill:none;stroke:#000000;stroke-width:0.5;" d="M200.5,6.9c0.6,0,1,0.5,1,1.1s-0.4,1-1,1.1"/>
<path style="fill:none;stroke:#000000;stroke-width:0.6;" d="M201.5,5.9c1.2,0.1,2.1,1,2.1,2.1s-0.9,2-2.1,2.1"/>
<path style="fill:none;stroke:#000000;stroke-width:0.7;" d="M202,3.7c2.3,0.2,4.1,2,4.1,4.2s-1.8,4.1-4.1,4.2"/>
<path d="M212,8l8-7v14L212,8z"/>
<path d="M216,11h-4V5h4V11z M228,8l8-7v14L228,8z"/>
<path d="M232,11h-4V5h4V11z"/>
<path style="fill:none;stroke:#FF0000;" d="M210,2l12,12"/>
<polygon style="fill:#7F7F7F;" points="3,29 3,18 14,23.5 "/>
<rect x="20" y="19" style="fill:#7F7F7F;" width="3" height="9"/>
<rect x="25" y="19" style="fill:#7F7F7F;" width="3" height="9"/>
<rect x="36" y="19" style="fill:#7F7F7F;" width="8" height="9"/>
<rect x="66" y="20" style="fill:#7F7F7F;" width="1" height="7"/>
<polygon style="fill:#7F7F7F;" points="68,23.5 72,20 72,27 "/>
<polygon style="fill:#7F7F7F;" points="73,23.5 77,20 77,27 "/>
<polygon style="fill:#7F7F7F;" points="83,23.5 87,20 87,27 "/>
<polygon style="fill:#7F7F7F;" points="88,23.5 92,20 92,27 "/>
<rect x="124" y="20" style="fill:#7F7F7F;" width="1" height="7"/>
<polygon style="fill:#7F7F7F;" points="123,23.5 119,27 119,20 "/>
<polygon style="fill:#7F7F7F;" points="118,23.5 114,27 114,20 "/>
<polygon style="fill:#7F7F7F;" points="109,23.5 105,27 105,20 "/>
<polygon style="fill:#7F7F7F;" points="104,23.5 100,27 100,20 "/>
<rect x="148" y="20" style="fill:#7F7F7F;" width="2" height="7"/>
<path style="fill:#7F7F7F;" d="M153,27h-1v-7h1V27z M157,23.5l-4,3.5v-7L157,23.5z"/>
<polygon style="fill:#7F7F7F;" points="192,24 200,17 200,31 "/>
<path style="fill:#7F7F7F;" d="M196,27h-4v-6h4V27z"/>
<path style="fill:none;stroke:#7F7F7F;stroke-width:0.5;" d="M200.5,22.9c0.6,0,1,0.5,1,1.1s-0.4,1-1,1.1"/>
<path style="fill:none;stroke:#7F7F7F;stroke-width:0.6;" d="M201.5,21.9c1.2,0.1,2.1,1,2.1,2.1s-0.9,2-2.1,2.1"/>
<path style="fill:none;stroke:#7F7F7F;stroke-width:0.7;" d="M202,19.7c2.3,0.2,4.1,2,4.1,4.2s-1.8,4.1-4.1,4.2"/>
<path style="fill:#7F7F7F;" d="M212,24l8-7v14L212,24z"/>
<path style="fill:#7F7F7F;" d="M216,27h-4v-6h4V27z M228,24l8-7v14L228,24z"/>
<path style="fill:#7F7F7F;" d="M232,27h-4v-6h4V27z"/>
<path style="fill:none;stroke:#FF0000;" d="M210,18l12,12"/>
<polygon points="240,13 272,2 272,13 "/>
<polygon style="fill:#7F7F7F;" points="240,29 272,18 272,29 "/>
<polygon style="fill:#C8C8C8;" points="240,45 272,34 272,45 "/>
<polygon style="fill:#646464;" points="240,61 272,50 272,61 "/>
</svg>
