<?xml version="1.0" encoding="utf-8"?>
<!-- Generator: Adobe Illustrator 25.2.0, SVG Export Plug-In . SVG Version: 6.00 Build 0)  -->
<svg version="1.1"
	 id="svg3341" xmlns:cc="http://creativecommons.org/ns#" xmlns:dc="http://purl.org/dc/elements/1.1/" xmlns:inkscape="http://www.inkscape.org/namespaces/inkscape" xmlns:rdf="http://www.w3.org/1999/02/22-rdf-syntax-ns#" xmlns:sodipodi="http://sodipodi.sourceforge.net/DTD/sodipodi-0.dtd" xmlns:svg="http://www.w3.org/2000/svg"
	 xmlns="http://www.w3.org/2000/svg" xmlns:xlink="http://www.w3.org/1999/xlink" x="0px" y="0px" viewBox="0 0 1248 192"
	 style="enable-background:new 0 0 1248 192;" xml:space="preserve">
<sodipodi:namedview  bordercolor="#666666" borderopacity="1.0" id="base" inkscape:current-layer="layer1" inkscape:cx="144.97634" inkscape:cy="-0.056865311" inkscape:document-units="px" inkscape:pageopacity="0.0" inkscape:pageshadow="2" inkscape:snap-grids="true" inkscape:window-height="966" inkscape:window-maximized="1" inkscape:window-width="1680" inkscape:window-x="-8" inkscape:window-y="-8" inkscape:zoom="2.0875" pagecolor="#ffffff" showgrid="true" units="px">
	<inkscape:grid  id="grid3353" type="xygrid"></inkscape:grid>
</sodipodi:namedview>
<path id="path4159" inkscape:flatsided="true" inkscape:randomized="0" inkscape:rounded="0" inkscape:transform-center-x="-1.833329" inkscape:transform-center-y="-6.7848101e-005" sodipodi:arg1="2.0943951" sodipodi:arg2="3.1415927" sodipodi:cx="3" sodipodi:cy="1039.3621" sodipodi:r1="4.472136" sodipodi:r2="2.236068" sodipodi:sides="3" sodipodi:type="star" style="fill:#C8C8C8;" d="
	M9,135v-33l33,16.5L9,135z"/>
<rect id="rect4161" x="60" y="105" style="fill:#C8C8C8;" width="9" height="27"/>
<rect id="rect4163" x="75" y="105" style="fill:#C8C8C8;" width="9" height="27"/>
<rect id="rect4165" x="108" y="105" style="fill:#C8C8C8;" width="24" height="27"/>
<rect id="rect4167" x="150" y="108" style="fill:#C8C8C8;" width="3" height="21"/>
<path id="path4169" inkscape:flatsided="true" inkscape:randomized="0" inkscape:rounded="0" inkscape:transform-center-x="0.66666139" inkscape:transform-center-y="-3.0343961e-005" sodipodi:arg1="3.1415927" sodipodi:arg2="4.1887902" sodipodi:cx="73" sodipodi:cy="1040.3621" sodipodi:r1="2" sodipodi:r2="1" sodipodi:sides="3" sodipodi:type="star" style="fill:#C8C8C8;" d="
	M156,118.5l12-10.5v21L156,118.5z"/>
<path id="path4171" inkscape:flatsided="true" inkscape:randomized="0" inkscape:rounded="0" inkscape:transform-center-x="0.66666139" inkscape:transform-center-y="-3.0343961e-005" sodipodi:arg1="3.1415927" sodipodi:arg2="4.1887902" sodipodi:cx="73" sodipodi:cy="1040.3621" sodipodi:r1="2" sodipodi:r2="1" sodipodi:sides="3" sodipodi:type="star" style="fill:#C8C8C8;" d="
	M171,118.5l12-10.5v21L171,118.5z"/>
<path id="path4173" inkscape:flatsided="true" inkscape:randomized="0" inkscape:rounded="0" inkscape:transform-center-x="0.66666139" inkscape:transform-center-y="-3.0343961e-005" sodipodi:arg1="3.1415927" sodipodi:arg2="4.1887902" sodipodi:cx="73" sodipodi:cy="1040.3621" sodipodi:r1="2" sodipodi:r2="1" sodipodi:sides="3" sodipodi:type="star" style="fill:#C8C8C8;" d="
	M345,118.5l12-10.5v21L345,118.5z"/>
<path id="path4175" inkscape:flatsided="true" inkscape:randomized="0" inkscape:rounded="0" inkscape:transform-center-x="0.66666139" inkscape:transform-center-y="-3.0343961e-005" sodipodi:arg1="3.1415927" sodipodi:arg2="4.1887902" sodipodi:cx="73" sodipodi:cy="1040.3621" sodipodi:r1="2" sodipodi:r2="1" sodipodi:sides="3" sodipodi:type="star" style="fill:#C8C8C8;" d="
	M360,118.5l12-10.5v21L360,118.5z"/>
<rect id="rect4177" x="228" y="108" style="fill:#C8C8C8;" width="3" height="21"/>
<path id="path4179" inkscape:flatsided="true" inkscape:randomized="0" inkscape:rounded="0" inkscape:transform-center-x="-0.666658" sodipodi:arg1="3.1415927" sodipodi:arg2="4.1887902" sodipodi:cx="73" sodipodi:cy="1040.3621" sodipodi:r1="2" sodipodi:r2="1" sodipodi:sides="3" sodipodi:type="star" style="fill:#C8C8C8;" d="
	M225,118.5L213,129v-21L225,118.5z"/>
<path id="path4181" inkscape:flatsided="true" inkscape:randomized="0" inkscape:rounded="0" inkscape:transform-center-x="-0.666658" sodipodi:arg1="3.1415927" sodipodi:arg2="4.1887902" sodipodi:cx="73" sodipodi:cy="1040.3621" sodipodi:r1="2" sodipodi:r2="1" sodipodi:sides="3" sodipodi:type="star" style="fill:#C8C8C8;" d="
	M210,118.5L198,129v-21L210,118.5z"/>
<path id="path4183" inkscape:flatsided="true" inkscape:randomized="0" inkscape:rounded="0" inkscape:transform-center-x="-0.666658" sodipodi:arg1="3.1415927" sodipodi:arg2="4.1887902" sodipodi:cx="73" sodipodi:cy="1040.3621" sodipodi:r1="2" sodipodi:r2="1" sodipodi:sides="3" sodipodi:type="star" style="fill:#C8C8C8;" d="
	M423,118.5L411,129v-21L423,118.5z"/>
<path id="path4185" inkscape:flatsided="true" inkscape:randomized="0" inkscape:rounded="0" inkscape:transform-center-x="-0.666658" sodipodi:arg1="3.1415927" sodipodi:arg2="4.1887902" sodipodi:cx="73" sodipodi:cy="1040.3621" sodipodi:r1="2" sodipodi:r2="1" sodipodi:sides="3" sodipodi:type="star" style="fill:#C8C8C8;" d="
	M408,118.5L396,129v-21L408,118.5z"/>
<rect id="rect4187" x="444" y="108" style="fill:#C8C8C8;" width="6" height="21"/>
<path style="fill:#C8C8C8;" d="M456,108h3v21h-3V108z M471,118.5L459,129v-21L471,118.5z"/>
<path id="path4179-5" inkscape:flatsided="true" inkscape:randomized="0" inkscape:rounded="0" inkscape:transform-center-x="1.3333156" inkscape:transform-center-y="-0.00016308799" sodipodi:arg1="3.1415927" sodipodi:arg2="4.1887902" sodipodi:cx="73" sodipodi:cy="1040.3621" sodipodi:r1="2" sodipodi:r2="1" sodipodi:sides="3" sodipodi:type="star" style="fill:#C8C8C8;" d="
	M1152,120l24-21v42L1152,120z"/>
<rect id="rect4187-3" x="1152" y="111" style="fill:#C8C8C8;" width="12" height="18"/>
<rect id="rect4181-4" x="1200" y="-48" style="fill-rule:evenodd;clip-rule:evenodd;fill:#F600FF;" width="48" height="48"/>
<rect id="rect4181-4-8" x="1152" y="-48" style="fill-rule:evenodd;clip-rule:evenodd;fill:#7200FF;" width="48" height="48"/>
<path id="path4230" sodipodi:cx="200.42171" sodipodi:cy="1044.3516" sodipodi:end="1.4835299" sodipodi:open="true" sodipodi:rx="1.1333569" sodipodi:ry="1.0653899" sodipodi:start="4.7996554" sodipodi:type="arc" style="fill:none;stroke:#C8C8C8;stroke-width:0.5;" d="
	M1177.5,116.7c1.8,0,3,1.5,3,3.3s-1.2,3-3,3.3"/>
<path id="path4230-0" sodipodi:cx="201.32703" sodipodi:cy="1044.3516" sodipodi:end="1.4835299" sodipodi:open="true" sodipodi:rx="2.2667139" sodipodi:ry="2.1307797" sodipodi:start="4.7996554" sodipodi:type="arc" style="fill:none;stroke:#C8C8C8;stroke-width:0.6;" d="
	M1180.5,113.4c3.6,0.3,6.3,3,6.3,6.3s-2.7,6-6.3,6.3"/>
<path id="path4230-0-7" sodipodi:cx="201.63358" sodipodi:cy="1044.3519" sodipodi:end="1.4835299" sodipodi:open="true" sodipodi:rx="4.5334277" sodipodi:ry="4.2615595" sodipodi:start="4.7996554" sodipodi:type="arc" style="fill:none;stroke:#C8C8C8;stroke-width:0.7;" d="
	M1182,107.1c6.9,0.6,12.3,6,12.3,12.6c0,6.6-5.4,12.3-12.3,12.6"/>
<path id="path4262" inkscape:flatsided="true" inkscape:randomized="0" inkscape:rounded="0" inkscape:transform-center-x="1.3333156" inkscape:transform-center-y="-0.00016308799" sodipodi:arg1="3.1415927" sodipodi:arg2="4.1887902" sodipodi:cx="73" sodipodi:cy="1040.3621" sodipodi:r1="2" sodipodi:r2="1" sodipodi:sides="3" sodipodi:type="star" style="fill:#C8C8C8;" d="
	M1212,120l24-21v42L1212,120z"/>
<rect id="rect4264" x="1212" y="111" style="fill:#C8C8C8;" width="12" height="18"/>
<path style="fill:#C8C8C8;" d="M1212,168l24-21v42L1212,168z M1212,159h12v18h-12V159z"/>
<path id="path4276" inkscape:connector-curvature="0" style="fill:none;stroke:#FF0000;" d="M1206,102l36,36"/>
<path id="path4159_1_" inkscape:flatsided="true" inkscape:randomized="0" inkscape:rounded="0" inkscape:transform-center-x="-1.833329" inkscape:transform-center-y="-6.7848101e-005" sodipodi:arg1="2.0943951" sodipodi:arg2="3.1415927" sodipodi:cx="3" sodipodi:cy="1039.3621" sodipodi:r1="4.472136" sodipodi:r2="2.236068" sodipodi:sides="3" sodipodi:type="star" style="fill:#646464;" d="
	M9,183v-33l33,16.5L9,183z"/>
<rect id="rect4161_1_" x="60" y="153" style="fill:#646464;" width="9" height="27"/>
<rect id="rect4163_1_" x="75" y="153" style="fill:#646464;" width="9" height="27"/>
<rect id="rect4165_1_" x="108" y="153" style="fill:#646464;" width="24" height="27"/>
<rect id="rect4167_1_" x="150" y="156" style="fill:#646464;" width="3" height="21"/>
<path id="path4169_1_" inkscape:flatsided="true" inkscape:randomized="0" inkscape:rounded="0" inkscape:transform-center-x="0.66666139" inkscape:transform-center-y="-3.0343961e-005" sodipodi:arg1="3.1415927" sodipodi:arg2="4.1887902" sodipodi:cx="73" sodipodi:cy="1040.3621" sodipodi:r1="2" sodipodi:r2="1" sodipodi:sides="3" sodipodi:type="star" style="fill:#646464;" d="
	M156,166.5l12-10.5v21L156,166.5z"/>
<path id="path4171_1_" inkscape:flatsided="true" inkscape:randomized="0" inkscape:rounded="0" inkscape:transform-center-x="0.66666139" inkscape:transform-center-y="-3.0343961e-005" sodipodi:arg1="3.1415927" sodipodi:arg2="4.1887902" sodipodi:cx="73" sodipodi:cy="1040.3621" sodipodi:r1="2" sodipodi:r2="1" sodipodi:sides="3" sodipodi:type="star" style="fill:#646464;" d="
	M171,166.5l12-10.5v21L171,166.5z"/>
<path id="path4173_1_" inkscape:flatsided="true" inkscape:randomized="0" inkscape:rounded="0" inkscape:transform-center-x="0.66666139" inkscape:transform-center-y="-3.0343961e-005" sodipodi:arg1="3.1415927" sodipodi:arg2="4.1887902" sodipodi:cx="73" sodipodi:cy="1040.3621" sodipodi:r1="2" sodipodi:r2="1" sodipodi:sides="3" sodipodi:type="star" style="fill:#646464;" d="
	M345,166.5l12-10.5v21L345,166.5z"/>
<path id="path4175_1_" inkscape:flatsided="true" inkscape:randomized="0" inkscape:rounded="0" inkscape:transform-center-x="0.66666139" inkscape:transform-center-y="-3.0343961e-005" sodipodi:arg1="3.1415927" sodipodi:arg2="4.1887902" sodipodi:cx="73" sodipodi:cy="1040.3621" sodipodi:r1="2" sodipodi:r2="1" sodipodi:sides="3" sodipodi:type="star" style="fill:#646464;" d="
	M360,166.5l12-10.5v21L360,166.5z"/>
<rect id="rect4177_1_" x="228" y="156" style="fill:#646464;" width="3" height="21"/>
<path id="path4179_1_" inkscape:flatsided="true" inkscape:randomized="0" inkscape:rounded="0" inkscape:transform-center-x="-0.666658" sodipodi:arg1="3.1415927" sodipodi:arg2="4.1887902" sodipodi:cx="73" sodipodi:cy="1040.3621" sodipodi:r1="2" sodipodi:r2="1" sodipodi:sides="3" sodipodi:type="star" style="fill:#646464;" d="
	M225,166.5L213,177v-21L225,166.5z"/>
<path id="path4181_1_" inkscape:flatsided="true" inkscape:randomized="0" inkscape:rounded="0" inkscape:transform-center-x="-0.666658" sodipodi:arg1="3.1415927" sodipodi:arg2="4.1887902" sodipodi:cx="73" sodipodi:cy="1040.3621" sodipodi:r1="2" sodipodi:r2="1" sodipodi:sides="3" sodipodi:type="star" style="fill:#646464;" d="
	M210,166.5L198,177v-21L210,166.5z"/>
<path id="path4183_1_" inkscape:flatsided="true" inkscape:randomized="0" inkscape:rounded="0" inkscape:transform-center-x="-0.666658" sodipodi:arg1="3.1415927" sodipodi:arg2="4.1887902" sodipodi:cx="73" sodipodi:cy="1040.3621" sodipodi:r1="2" sodipodi:r2="1" sodipodi:sides="3" sodipodi:type="star" style="fill:#646464;" d="
	M423,166.5L411,177v-21L423,166.5z"/>
<path id="path4185_1_" inkscape:flatsided="true" inkscape:randomized="0" inkscape:rounded="0" inkscape:transform-center-x="-0.666658" sodipodi:arg1="3.1415927" sodipodi:arg2="4.1887902" sodipodi:cx="73" sodipodi:cy="1040.3621" sodipodi:r1="2" sodipodi:r2="1" sodipodi:sides="3" sodipodi:type="star" style="fill:#646464;" d="
	M408,166.5L396,177v-21L408,166.5z"/>
<rect id="rect4187_1_" x="444" y="156" style="fill:#646464;" width="6" height="21"/>
<path style="fill:#646464;" d="M456,156h3v21h-3V156z M471,166.5L459,177v-21L471,166.5z"/>
<polygon points="9,39 9,6 42,22.5 "/>
<rect x="60" y="9" width="9" height="27"/>
<rect x="75" y="9" width="9" height="27"/>
<rect x="108" y="9" width="24" height="27"/>
<rect x="150" y="12" width="3" height="21"/>
<polygon points="156,22.5 168,12 168,33 "/>
<polygon points="171,22.5 183,12 183,33 "/>
<polygon points="345,22.5 357,12 357,33 "/>
<polygon points="360,22.5 372,12 372,33 "/>
<rect x="228" y="12" width="3" height="21"/>
<polygon points="225,22.5 213,33 213,12 "/>
<polygon points="210,22.5 198,33 198,12 "/>
<polygon points="423,22.5 411,33 411,12 "/>
<polygon points="408,22.5 396,33 396,12 "/>
<rect x="444" y="12" width="6" height="21"/>
<path d="M459,33h-3V12h3V33z M471,22.5L459,33V12L471,22.5z"/>
<polygon points="1152,24 1176,3 1176,45 "/>
<path d="M1164,33h-12V15h12V33z"/>
<path style="fill:none;stroke:#000000;stroke-width:0.5;" d="M1177.5,20.7c1.8,0,3,1.5,3,3.3c0,1.8-1.2,3-3,3.3"/>
<path style="fill:none;stroke:#000000;stroke-width:0.6;" d="M1180.5,17.7c3.6,0.3,6.3,3,6.3,6.3s-2.7,6-6.3,6.3"/>
<path style="fill:none;stroke:#000000;stroke-width:0.7;" d="M1182,11.1c6.9,0.6,12.3,6,12.3,12.6s-5.4,12.3-12.3,12.6"/>
<path d="M1212,24l24-21v42L1212,24z"/>
<rect x="1212" y="15" width="12" height="18"/>
<path d="M1212,72l24-21v42L1212,72z M1224,81h-12V63h12V81z"/>
<path style="fill:none;stroke:#FF0000;" d="M1206,6l36,36"/>
<polygon style="fill:#7F7F7F;" points="9,87 9,54 42,70.5 "/>
<rect x="60" y="57" style="fill:#7F7F7F;" width="9" height="27"/>
<rect x="75" y="57" style="fill:#7F7F7F;" width="9" height="27"/>
<rect x="108" y="57" style="fill:#7F7F7F;" width="24" height="27"/>
<rect x="150" y="60" style="fill:#7F7F7F;" width="3" height="21"/>
<polygon style="fill:#7F7F7F;" points="156,70.5 168,60 168,81 "/>
<polygon style="fill:#7F7F7F;" points="171,70.5 183,60 183,81 "/>
<polygon style="fill:#7F7F7F;" points="345,70.5 357,60 357,81 "/>
<polygon style="fill:#7F7F7F;" points="360,70.5 372,60 372,81 "/>
<rect x="228" y="60" style="fill:#7F7F7F;" width="3" height="21"/>
<polygon style="fill:#7F7F7F;" points="225,70.5 213,81 213,60 "/>
<polygon style="fill:#7F7F7F;" points="210,70.5 198,81 198,60 "/>
<polygon style="fill:#7F7F7F;" points="423,70.5 411,81 411,60 "/>
<polygon style="fill:#7F7F7F;" points="408,70.5 396,81 396,60 "/>
<rect x="444" y="60" style="fill:#7F7F7F;" width="6" height="21"/>
<path style="fill:#7F7F7F;" d="M459,81h-3V60h3V81z M471,70.5L459,81V60L471,70.5z"/>
<rect x="768" y="-48" width="48" height="48"/>
<rect id="rect4165_47_" x="240" y="18" width="3" height="9"/>
<polygon style="fill:#7F7F7F;" points="1152,72 1176,51 1176,93 "/>
<path style="fill:#7F7F7F;" d="M1164,81h-12V63h12V81z"/>
<path style="fill:none;stroke:#7F7F7F;stroke-width:0.5;" d="M1177.5,68.7c1.8,0,3,1.5,3,3.3s-1.2,3-3,3.3"/>
<path style="fill:none;stroke:#7F7F7F;stroke-width:0.6;" d="M1180.5,65.7c3.6,0.3,6.3,3,6.3,6.3s-2.7,6-6.3,6.3"/>
<path id="path4179-5_1_" inkscape:flatsided="true" inkscape:randomized="0" inkscape:rounded="0" inkscape:transform-center-x="1.3333156" inkscape:transform-center-y="-0.00016308799" sodipodi:arg1="3.1415927" sodipodi:arg2="4.1887902" sodipodi:cx="73" sodipodi:cy="1040.3621" sodipodi:r1="2" sodipodi:r2="1" sodipodi:sides="3" sodipodi:type="star" style="fill:#646464;" d="
	M1152,168l24-21v42L1152,168z"/>
<rect id="rect4187-3_1_" x="1152" y="159" style="fill:#646464;" width="12" height="18"/>
<path id="path4230_1_" sodipodi:cx="200.42171" sodipodi:cy="1044.3516" sodipodi:end="1.4835299" sodipodi:open="true" sodipodi:rx="1.1333569" sodipodi:ry="1.0653899" sodipodi:start="4.7996554" sodipodi:type="arc" style="fill:none;stroke:#646464;stroke-width:0.5;" d="
	M1177.5,164.7c1.8,0,3,1.5,3,3.3c0,1.8-1.2,3-3,3.3"/>
<path id="path4230-0_1_" sodipodi:cx="201.32703" sodipodi:cy="1044.3516" sodipodi:end="1.4835299" sodipodi:open="true" sodipodi:rx="2.2667139" sodipodi:ry="2.1307797" sodipodi:start="4.7996554" sodipodi:type="arc" style="fill:none;stroke:#646464;stroke-width:0.6;" d="
	M1180.5,161.4c3.6,0.3,6.3,3,6.3,6.3c0,3.3-2.7,6-6.3,6.3"/>
<g>
	<path d="M311.1,29.4c-0.6,0.3-2.1,0.9-4.2,0.9c-4.5,0-7.2-3-7.2-7.5s3-7.8,7.8-7.8c1.5,0,3,0.3,3.6,0.6l-0.6,2.1
		c-0.6-0.3-1.5-0.6-3-0.6c-3.3,0-5.1,2.4-5.1,5.4c0,3.3,2.1,5.4,5.1,5.4c1.5,0,2.4-0.3,3.3-0.6L311.1,29.4z"/>
	<path d="M324.6,29.4c-0.6,0.3-2.1,0.9-4.2,0.9c-4.5,0-7.2-3-7.2-7.5s3-7.8,7.8-7.8c1.5,0,3,0.3,3.6,0.6l-0.6,2.1
		c-0.6-0.3-1.5-0.6-3-0.6c-3.3,0-5.1,2.4-5.1,5.4c0,3.3,2.1,5.4,5.1,5.4c1.5,0,2.4-0.3,3.3-0.6L324.6,29.4z"/>
</g>
<g>
	<path style="fill:#7F7F7F;" d="M311.1,77.4c-0.6,0.3-2.1,0.9-4.2,0.9c-4.5,0-7.2-3-7.2-7.5s3-7.8,7.8-7.8c1.5,0,3,0.3,3.6,0.6
		l-0.6,2.1c-0.6-0.3-1.5-0.6-3-0.6c-3.3,0-5.1,2.4-5.1,5.4c0,3.3,2.1,5.4,5.1,5.4c1.5,0,2.4-0.3,3.3-0.6L311.1,77.4z"/>
	<path style="fill:#7F7F7F;" d="M324.6,77.4c-0.6,0.3-2.1,0.9-4.2,0.9c-4.5,0-7.2-3-7.2-7.5s3-7.8,7.8-7.8c1.5,0,3,0.3,3.6,0.6
		l-0.6,2.1c-0.6-0.3-1.5-0.6-3-0.6c-3.3,0-5.1,2.4-5.1,5.4c0,3.3,2.1,5.4,5.1,5.4c1.5,0,2.4-0.3,3.3-0.6L324.6,77.4z"/>
</g>
<g>
	<path style="fill:#C8C8C8;" d="M311.1,125.4c-0.6,0.3-2.1,0.9-4.2,0.9c-4.5,0-7.2-3-7.2-7.5s3-7.8,7.8-7.8c1.5,0,3,0.3,3.6,0.6
		l-0.6,2.1c-0.6-0.3-1.5-0.6-3-0.6c-3.3,0-5.1,2.4-5.1,5.4c0,3.3,2.1,5.4,5.1,5.4c1.5,0,2.4-0.3,3.3-0.6L311.1,125.4z"/>
	<path style="fill:#C8C8C8;" d="M324.6,125.4c-0.6,0.3-2.1,0.9-4.2,0.9c-4.5,0-7.2-3-7.2-7.5s3-7.8,7.8-7.8c1.5,0,3,0.3,3.6,0.6
		l-0.6,2.1c-0.6-0.3-1.5-0.6-3-0.6c-3.3,0-5.1,2.4-5.1,5.4c0,3.3,2.1,5.4,5.1,5.4c1.5,0,2.4-0.3,3.3-0.6L324.6,125.4z"/>
</g>
<g>
	<path style="fill:#646464;" d="M311.1,173.4c-0.6,0.3-2.1,0.9-4.2,0.9c-4.5,0-7.2-3-7.2-7.5s3-7.8,7.8-7.8c1.5,0,3,0.3,3.6,0.6
		l-0.6,2.1c-0.6-0.3-1.5-0.6-3-0.6c-3.3,0-5.1,2.4-5.1,5.4c0,3.3,2.1,5.4,5.1,5.4c1.5,0,2.4-0.3,3.3-0.6L311.1,173.4z"/>
	<path style="fill:#646464;" d="M324.6,173.4c-0.6,0.3-2.1,0.9-4.2,0.9c-4.5,0-7.2-3-7.2-7.5s3-7.8,7.8-7.8c1.5,0,3,0.3,3.6,0.6
		l-0.6,2.1c-0.6-0.3-1.5-0.6-3-0.6c-3.3,0-5.1,2.4-5.1,5.4c0,3.3,2.1,5.4,5.1,5.4c1.5,0,2.4-0.3,3.3-0.6L324.6,173.4z"/>
</g>
<rect x="492" y="30" width="24" height="6"/>
<path d="M516,21v3h-24v-3H516z M504,9l12,12h-24L504,9z"/>
<rect id="rect4165_6_" x="537" y="9" width="3" height="30"/>
<rect id="rect4165_7_" x="534" y="12" width="9" height="3"/>
<rect id="rect4165_48_" x="546" y="30" width="9" height="3"/>
<rect id="rect4165_49_" x="558" y="24" width="9" height="3"/>
<g>
	<polyline style="fill:none;stroke:#000000;stroke-width:3;stroke-miterlimit:10;" points="675,64.5 684.3,64.5 698.7,82.5 
		708,82.5 	"/>
</g>
<path id="path4276_2_" inkscape:connector-curvature="0" style="fill:none;stroke:#000000;" d="M730.5,58.5l27,27"/>
<rect id="rect4165_103_" x="633" y="108" style="fill:#C8C8C8;" width="30" height="3"/>
<rect id="rect4165_102_" x="633" y="117" style="fill:#C8C8C8;" width="30" height="3"/>
<rect id="rect4165_97_" x="633" y="126" style="fill:#C8C8C8;" width="15" height="3"/>
<polygon style="fill:#C8C8C8;" points="663,129 654,135 654,123 "/>
<line style="fill:none;stroke:#C8C8C8;stroke-miterlimit:10;" x1="652.5" y1="172.5" x2="661.5" y2="181.5"/>
<line style="fill:none;stroke:#C8C8C8;stroke-miterlimit:10;" x1="652.5" y1="181.5" x2="661.5" y2="172.5"/>
<rect id="rect4165_17_" x="633" y="156" style="fill:#C8C8C8;" width="30" height="3"/>
<rect id="rect4165_16_" x="633" y="165" style="fill:#C8C8C8;" width="30" height="3"/>
<rect id="rect4165_10_" x="633" y="174" style="fill:#C8C8C8;" width="15" height="3"/>
<rect id="rect4165_105_" x="633" y="12" width="30" height="3"/>
<rect id="rect4165_104_" x="633" y="21" width="30" height="3"/>
<rect id="rect4165_101_" x="633" y="30" width="15" height="3"/>
<polygon points="663,33 654,39 654,27 "/>
<line style="fill:none;stroke:#000000;stroke-miterlimit:10;" x1="652.5" y1="76.5" x2="661.5" y2="85.5"/>
<line style="fill:none;stroke:#000000;stroke-miterlimit:10;" x1="652.5" y1="85.5" x2="661.5" y2="76.5"/>
<rect id="rect4165_100_" x="633" y="60" width="30" height="3"/>
<rect id="rect4165_99_" x="633" y="69" width="30" height="3"/>
<rect id="rect4165_98_" x="633" y="78" width="15" height="3"/>
<rect id="rect4165_67_" x="585" y="36" width="12" height="3"/>
<rect id="rect4165_66_" x="585" y="27" width="3" height="12"/>
<rect id="rect4165_73_" x="585" y="9" width="3" height="12"/>
<rect id="rect4165_106_" x="603" y="36" width="12" height="3"/>
<rect id="rect4165_68_" x="585" y="9" width="12" height="3"/>
<rect id="rect4165_69_" x="603" y="9" width="12" height="3"/>
<rect id="rect4165_70_" x="612" y="9" width="3" height="12"/>
<rect id="rect4165_71_" x="612" y="27" width="3" height="12"/>
<rect id="rect4165_137_" x="585" y="36" width="12" height="3"/>
<rect id="rect4165_136_" x="585" y="27" width="3" height="12"/>
<rect id="rect4165_135_" x="585" y="9" width="3" height="12"/>
<rect id="rect4165_134_" x="603" y="36" width="12" height="3"/>
<rect id="rect4165_109_" x="585" y="9" width="12" height="3"/>
<rect id="rect4165_108_" x="603" y="9" width="12" height="3"/>
<rect id="rect4165_107_" x="612" y="9" width="3" height="12"/>
<rect id="rect4165_72_" x="612" y="27" width="3" height="12"/>
<rect id="rect4165_88_" x="585" y="132" style="fill:#C8C8C8;" width="12" height="3"/>
<rect id="rect4165_87_" x="585" y="123" style="fill:#C8C8C8;" width="3" height="12"/>
<rect id="rect4165_86_" x="585" y="105" style="fill:#C8C8C8;" width="3" height="12"/>
<rect id="rect4165_85_" x="603" y="132" style="fill:#C8C8C8;" width="12" height="3"/>
<rect id="rect4165_84_" x="585" y="105" style="fill:#C8C8C8;" width="12" height="3"/>
<rect id="rect4165_83_" x="603" y="105" style="fill:#C8C8C8;" width="12" height="3"/>
<rect id="rect4165_82_" x="612" y="105" style="fill:#C8C8C8;" width="3" height="12"/>
<rect id="rect4165_81_" x="612" y="123" style="fill:#C8C8C8;" width="3" height="12"/>
<rect id="rect4165_80_" x="585" y="132" style="fill:#C8C8C8;" width="12" height="3"/>
<rect id="rect4165_79_" x="585" y="123" style="fill:#C8C8C8;" width="3" height="12"/>
<rect id="rect4165_78_" x="585" y="105" style="fill:#C8C8C8;" width="3" height="12"/>
<rect id="rect4165_77_" x="603" y="132" style="fill:#C8C8C8;" width="12" height="3"/>
<rect id="rect4165_76_" x="585" y="105" style="fill:#C8C8C8;" width="12" height="3"/>
<rect id="rect4165_75_" x="603" y="105" style="fill:#C8C8C8;" width="12" height="3"/>
<rect id="rect4165_74_" x="612" y="105" style="fill:#C8C8C8;" width="3" height="12"/>
<rect id="rect4165_11_" x="612" y="123" style="fill:#C8C8C8;" width="3" height="12"/>
<rect id="rect4165_145_" x="585" y="75" width="12" height="3"/>
<rect id="rect4165_144_" x="594" y="75" width="3" height="12"/>
<rect id="rect4165_143_" x="594" y="57" width="3" height="12"/>
<rect id="rect4165_142_" x="603" y="75" width="12" height="3"/>
<rect id="rect4165_141_" x="585" y="66" width="12" height="3"/>
<rect id="rect4165_140_" x="603" y="66" width="12" height="3"/>
<rect id="rect4165_139_" x="603" y="57" width="3" height="12"/>
<rect id="rect4165_138_" x="603" y="75" width="3" height="12"/>
<rect id="rect4165_96_" x="585" y="75" width="12" height="3"/>
<rect id="rect4165_95_" x="594" y="75" width="3" height="12"/>
<rect id="rect4165_94_" x="594" y="57" width="3" height="12"/>
<rect id="rect4165_93_" x="603" y="75" width="12" height="3"/>
<rect id="rect4165_92_" x="585" y="66" width="12" height="3"/>
<rect id="rect4165_91_" x="603" y="66" width="12" height="3"/>
<rect id="rect4165_90_" x="603" y="57" width="3" height="12"/>
<rect id="rect4165_89_" x="603" y="75" width="3" height="12"/>
<rect id="rect4165_161_" x="585" y="171" style="fill:#C8C8C8;" width="12" height="3"/>
<rect id="rect4165_160_" x="594" y="171" style="fill:#C8C8C8;" width="3" height="12"/>
<rect id="rect4165_159_" x="594" y="153" style="fill:#C8C8C8;" width="3" height="12"/>
<rect id="rect4165_158_" x="603" y="171" style="fill:#C8C8C8;" width="12" height="3"/>
<rect id="rect4165_157_" x="585" y="162" style="fill:#C8C8C8;" width="12" height="3"/>
<rect id="rect4165_156_" x="603" y="162" style="fill:#C8C8C8;" width="12" height="3"/>
<rect id="rect4165_155_" x="603" y="153" style="fill:#C8C8C8;" width="3" height="12"/>
<rect id="rect4165_154_" x="603" y="171" style="fill:#C8C8C8;" width="3" height="12"/>
<rect id="rect4165_153_" x="585" y="171" style="fill:#C8C8C8;" width="12" height="3"/>
<rect id="rect4165_152_" x="594" y="171" style="fill:#C8C8C8;" width="3" height="12"/>
<rect id="rect4165_151_" x="594" y="153" style="fill:#C8C8C8;" width="3" height="12"/>
<rect id="rect4165_150_" x="603" y="171" style="fill:#C8C8C8;" width="12" height="3"/>
<rect id="rect4165_149_" x="585" y="162" style="fill:#C8C8C8;" width="12" height="3"/>
<rect id="rect4165_148_" x="603" y="162" style="fill:#C8C8C8;" width="12" height="3"/>
<rect id="rect4165_147_" x="603" y="153" style="fill:#C8C8C8;" width="3" height="12"/>
<rect id="rect4165_146_" x="603" y="171" style="fill:#C8C8C8;" width="3" height="12"/>
<rect id="rect4165_4_" x="549" y="9" width="3" height="30"/>
<rect id="rect4165_5_" x="561" y="9" width="3" height="30"/>
<rect id="rect4165_53_" x="537" y="57" style="fill:#7F7F7F;" width="3" height="30"/>
<rect id="rect4165_52_" x="534" y="60" style="fill:#7F7F7F;" width="9" height="3"/>
<rect id="rect4165_51_" x="546" y="78" style="fill:#7F7F7F;" width="9" height="3"/>
<rect id="rect4165_50_" x="558" y="72" style="fill:#7F7F7F;" width="9" height="3"/>
<rect id="rect4165_9_" x="549" y="57" style="fill:#7F7F7F;" width="3" height="30"/>
<rect id="rect4165_8_" x="561" y="57" style="fill:#7F7F7F;" width="3" height="30"/>
<rect id="rect4165_59_" x="537" y="105" style="fill:#C8C8C8;" width="3" height="30"/>
<rect id="rect4165_58_" x="534" y="108" style="fill:#C8C8C8;" width="9" height="3"/>
<rect id="rect4165_57_" x="546" y="126" style="fill:#C8C8C8;" width="9" height="3"/>
<rect id="rect4165_56_" x="558" y="120" style="fill:#C8C8C8;" width="9" height="3"/>
<rect id="rect4165_55_" x="549" y="105" style="fill:#C8C8C8;" width="3" height="30"/>
<rect id="rect4165_54_" x="561" y="105" style="fill:#C8C8C8;" width="3" height="30"/>
<rect id="rect4165_65_" x="537" y="153" style="fill:#646464;" width="3" height="30"/>
<rect id="rect4165_64_" x="534" y="156" style="fill:#646464;" width="9" height="3"/>
<rect id="rect4165_63_" x="546" y="174" style="fill:#646464;" width="9" height="3"/>
<rect id="rect4165_62_" x="558" y="168" style="fill:#646464;" width="9" height="3"/>
<rect id="rect4165_61_" x="549" y="153" style="fill:#646464;" width="3" height="30"/>
<rect id="rect4165_60_" x="561" y="153" style="fill:#646464;" width="3" height="30"/>
<rect x="492" y="78" style="fill:#7F7F7F;" width="24" height="6"/>
<path style="fill:#7F7F7F;" d="M516,69v3h-24v-3H516z M504,57l12,12h-24L504,57z"/>
<rect x="492" y="126" style="fill:#C8C8C8;" width="24" height="6"/>
<path style="fill:#C8C8C8;" d="M516,117v3h-24v-3H516z M504,105l12,12h-24L504,105z"/>
<rect x="492" y="174" style="fill:#646464;" width="24" height="6"/>
<path style="fill:#646464;" d="M516,165v3h-24v-3H516z M504,153l12,12h-24L504,153z"/>
<polygon points="717,82.5 708,90 708,75 "/>
<g>
	<polyline style="fill:none;stroke:#000000;stroke-width:3;stroke-miterlimit:10;" points="708,64.5 698.7,64.5 684.3,82.5 
		675,82.5 	"/>
</g>
<polygon points="708,72 708,57 717,64.5 "/>
<g>
	<polyline style="fill:none;stroke:#C8C8C8;stroke-width:3;stroke-miterlimit:10;" points="675,160.5 684.3,160.5 698.7,178.5 
		708,178.5 	"/>
</g>
<polygon style="fill:#C8C8C8;" points="717,178.5 708,186 708,171 "/>
<g>
	<polyline style="fill:none;stroke:#C8C8C8;stroke-width:3;stroke-miterlimit:10;" points="708,160.5 698.7,160.5 684.3,178.5 
		675,178.5 	"/>
</g>
<polygon style="fill:#C8C8C8;" points="708,168 708,153 717,160.5 "/>
<path d="M675,15h33v3h-33V15z M708,24V9l9,7.5L708,24z"/>
<path d="M675,33h33v3h-33V33z M717,34.5l-9,7.5V27L717,34.5z"/>
<path style="fill:#C8C8C8;" d="M675,111h33v3h-33V111z M708,120v-15l9,7.5L708,120z"/>
<path style="fill:#C8C8C8;" d="M675,129h33v3h-33V129z M717,130.5l-9,7.5v-15L717,130.5z"/>
<path d="M741,33h21v3h-21V33z M759,15h3v18h-3V15z M756,12h6v3h-6V12z M741,27v15l-9-7.5L741,27z"/>
<path d="M726,33h6v3h-6V33z M726,12h21v3h-21V12z M747,21V6l9,7.5L747,21z M726,15h3v18h-3V15z"/>
<path style="fill:#C8C8C8;" d="M741,129h21v3h-21V129z M759,111h3v18h-3V111z M756,108h6v3h-6V108z M741,123v15l-9-7.5L741,123z"/>
<path style="fill:#C8C8C8;" d="M726,129h6v3h-6V129z M726,108h21v3h-21V108z M747,117v-15l9,7.5L747,117z M726,111h3v18h-3V111z"/>
<rect id="rect4165_120_" x="741" y="81" width="21" height="3"/>
<rect id="rect4165_119_" x="759" y="63" width="3" height="18"/>
<rect id="rect4165_118_" x="726" y="81" width="6" height="3"/>
<rect id="rect4165_117_" x="726" y="60" width="21" height="3"/>
<rect id="rect4165_116_" x="756" y="60" width="6" height="3"/>
<polygon points="747,69 747,54 756,61.5 "/>
<polygon points="741,75 741,90 732,82.5 "/>
<rect id="rect4165_115_" x="726" y="63" width="3" height="18"/>
<path id="path4276_1_" inkscape:connector-curvature="0" style="fill:none;stroke:#C8C8C8;" d="M730.5,154.5l27,27"/>
<rect id="rect4165_124_" x="741" y="177" style="fill:#C8C8C8;" width="21" height="3"/>
<rect id="rect4165_123_" x="759" y="159" style="fill:#C8C8C8;" width="3" height="18"/>
<rect id="rect4165_121_" x="726" y="177" style="fill:#C8C8C8;" width="6" height="3"/>
<rect id="rect4165_114_" x="726" y="156" style="fill:#C8C8C8;" width="21" height="3"/>
<rect id="rect4165_113_" x="756" y="156" style="fill:#C8C8C8;" width="6" height="3"/>
<polygon style="fill:#C8C8C8;" points="747,165 747,150 756,157.5 "/>
<polygon style="fill:#C8C8C8;" points="741,171 741,186 732,178.5 "/>
<rect id="rect4165_112_" x="726" y="159" style="fill:#C8C8C8;" width="3" height="18"/>
<rect id="rect4165_44_" x="246" y="15" width="3" height="15"/>
<rect id="rect4165_45_" x="252" y="9" width="3" height="27"/>
<rect id="rect4165_163_" x="264" y="3" width="3" height="39"/>
<rect id="rect4165_162_" x="258" y="12" width="3" height="21"/>
<rect id="rect4165_46_" x="270" y="12" width="3" height="21"/>
<rect id="rect4165_164_" x="276" y="9" width="3" height="27"/>
<rect id="rect4165_168_" x="282" y="15" width="3" height="15"/>
<rect id="rect4165_169_" x="240" y="114" style="fill:#C8C8C8;" width="3" height="9"/>
<rect id="rect4165_167_" x="246" y="111" style="fill:#C8C8C8;" width="3" height="15"/>
<rect id="rect4165_166_" x="252" y="105" style="fill:#C8C8C8;" width="3" height="27"/>
<rect id="rect4165_165_" x="264" y="99" style="fill:#C8C8C8;" width="3" height="39"/>
<rect id="rect4165_39_" x="258" y="108" style="fill:#C8C8C8;" width="3" height="21"/>
<rect id="rect4165_38_" x="270" y="108" style="fill:#C8C8C8;" width="3" height="21"/>
<rect id="rect4165_37_" x="276" y="105" style="fill:#C8C8C8;" width="3" height="27"/>
<rect id="rect4165_36_" x="282" y="111" style="fill:#C8C8C8;" width="3" height="15"/>
<rect id="rect4165_43_" x="240" y="66" style="fill:#7F7F7F;" width="3" height="9"/>
<rect id="rect4165_42_" x="246" y="63" style="fill:#7F7F7F;" width="3" height="15"/>
<rect id="rect4165_41_" x="252" y="57" style="fill:#7F7F7F;" width="3" height="27"/>
<rect id="rect4165_40_" x="264" y="51" style="fill:#7F7F7F;" width="3" height="39"/>
<rect id="rect4165_31_" x="258" y="60" style="fill:#7F7F7F;" width="3" height="21"/>
<rect id="rect4165_30_" x="270" y="60" style="fill:#7F7F7F;" width="3" height="21"/>
<rect id="rect4165_3_" x="276" y="57" style="fill:#7F7F7F;" width="3" height="27"/>
<rect id="rect4165_2_" x="282" y="63" style="fill:#7F7F7F;" width="3" height="15"/>
<rect id="rect4165_177_" x="240" y="162" style="fill:#646464;" width="3" height="9"/>
<rect id="rect4165_176_" x="246" y="159" style="fill:#646464;" width="3" height="15"/>
<rect id="rect4165_175_" x="252" y="153" style="fill:#646464;" width="3" height="27"/>
<rect id="rect4165_174_" x="264" y="147" style="fill:#646464;" width="3" height="39"/>
<rect id="rect4165_173_" x="258" y="156" style="fill:#646464;" width="3" height="21"/>
<rect id="rect4165_172_" x="270" y="156" style="fill:#646464;" width="3" height="21"/>
<rect id="rect4165_171_" x="276" y="153" style="fill:#646464;" width="3" height="27"/>
<rect id="rect4165_170_" x="282" y="159" style="fill:#646464;" width="3" height="15"/>
<path d="M771,12h39v3h-39V12z M801,21h15l-7.5,9L801,21z M771,15h3v15h-3V15z M807,15h3v6h-3V15z"/>
<rect id="rect4165_181_" x="771" y="33" width="3" height="3"/>
<rect id="rect4165_182_" x="777" y="33" width="3" height="3"/>
<rect id="rect4165_183_" x="783" y="33" width="3" height="3"/>
<rect id="rect4165_184_" x="789" y="33" width="3" height="3"/>
<rect id="rect4165_185_" x="795" y="33" width="3" height="3"/>
<rect id="rect4165_186_" x="801" y="33" width="3" height="3"/>
<rect id="rect4165_187_" x="807" y="33" width="3" height="3"/>
<path style="fill:#7F7F7F;" d="M771,60h39v3h-39V60z M801,69h15l-7.5,9L801,69z M771,63h3v15h-3V63z M807,63h3v6h-3V63z"/>
<rect id="rect4165_192_" x="771" y="81" style="fill:#7F7F7F;" width="3" height="3"/>
<rect id="rect4165_191_" x="777" y="81" style="fill:#7F7F7F;" width="3" height="3"/>
<rect id="rect4165_190_" x="783" y="81" style="fill:#7F7F7F;" width="3" height="3"/>
<rect id="rect4165_189_" x="789" y="81" style="fill:#7F7F7F;" width="3" height="3"/>
<rect id="rect4165_188_" x="795" y="81" style="fill:#7F7F7F;" width="3" height="3"/>
<rect id="rect4165_29_" x="801" y="81" style="fill:#7F7F7F;" width="3" height="3"/>
<rect id="rect4165_28_" x="807" y="81" style="fill:#7F7F7F;" width="3" height="3"/>
<path style="fill:#C8C8C8;" d="M771,108h39v3h-39V108z M801,117h15l-7.5,9L801,117z M771,111h3v15h-3V111z M807,111h3v6h-3V111z"/>
<rect id="rect4165_202_" x="771" y="129" style="fill:#C8C8C8;" width="3" height="3"/>
<rect id="rect4165_201_" x="777" y="129" style="fill:#C8C8C8;" width="3" height="3"/>
<rect id="rect4165_200_" x="783" y="129" style="fill:#C8C8C8;" width="3" height="3"/>
<rect id="rect4165_199_" x="789" y="129" style="fill:#C8C8C8;" width="3" height="3"/>
<rect id="rect4165_198_" x="795" y="129" style="fill:#C8C8C8;" width="3" height="3"/>
<rect id="rect4165_197_" x="801" y="129" style="fill:#C8C8C8;" width="3" height="3"/>
<rect id="rect4165_196_" x="807" y="129" style="fill:#C8C8C8;" width="3" height="3"/>
<path style="fill:#646464;" d="M771,156h39v3h-39V156z M801,165h15l-7.5,9L801,165z M771,159h3v15h-3V159z M807,159h3v6h-3V159z"/>
<rect id="rect4165_212_" x="771" y="177" style="fill:#646464;" width="3" height="3"/>
<rect id="rect4165_211_" x="777" y="177" style="fill:#646464;" width="3" height="3"/>
<rect id="rect4165_210_" x="783" y="177" style="fill:#646464;" width="3" height="3"/>
<rect id="rect4165_209_" x="789" y="177" style="fill:#646464;" width="3" height="3"/>
<rect id="rect4165_208_" x="795" y="177" style="fill:#646464;" width="3" height="3"/>
<rect id="rect4165_207_" x="801" y="177" style="fill:#646464;" width="3" height="3"/>
<rect id="rect4165_206_" x="807" y="177" style="fill:#646464;" width="3" height="3"/>
<path d="M861,15h-39v-3h39V15z M823.5,30l-7.5-9h15L823.5,30z M861,30h-3V15h3V30z M825,21h-3v-6h3V21z"/>
<rect id="rect4165_250_" x="858" y="33" width="3" height="3"/>
<rect id="rect4165_249_" x="852" y="33" width="3" height="3"/>
<rect id="rect4165_248_" x="846" y="33" width="3" height="3"/>
<rect id="rect4165_247_" x="840" y="33" width="3" height="3"/>
<rect id="rect4165_246_" x="834" y="33" width="3" height="3"/>
<rect id="rect4165_245_" x="828" y="33" width="3" height="3"/>
<rect id="rect4165_244_" x="822" y="33" width="3" height="3"/>
<path style="fill:#7F7F7F;" d="M861,63h-39v-3h39V63z M823.5,78l-7.5-9h15L823.5,78z M861,78h-3V63h3V78z M825,69h-3v-6h3V69z"/>
<rect id="rect4165_240_" x="858" y="81" style="fill:#7F7F7F;" width="3" height="3"/>
<rect id="rect4165_239_" x="852" y="81" style="fill:#7F7F7F;" width="3" height="3"/>
<rect id="rect4165_238_" x="846" y="81" style="fill:#7F7F7F;" width="3" height="3"/>
<rect id="rect4165_237_" x="840" y="81" style="fill:#7F7F7F;" width="3" height="3"/>
<rect id="rect4165_236_" x="834" y="81" style="fill:#7F7F7F;" width="3" height="3"/>
<rect id="rect4165_235_" x="828" y="81" style="fill:#7F7F7F;" width="3" height="3"/>
<rect id="rect4165_234_" x="822" y="81" style="fill:#7F7F7F;" width="3" height="3"/>
<path style="fill:#C8C8C8;" d="M861,111h-39v-3h39V111z M823.5,126l-7.5-9h15L823.5,126z M861,126h-3v-15h3V126z M825,117h-3v-6h3
	V117z"/>
<rect id="rect4165_230_" x="858" y="129" style="fill:#C8C8C8;" width="3" height="3"/>
<rect id="rect4165_229_" x="852" y="129" style="fill:#C8C8C8;" width="3" height="3"/>
<rect id="rect4165_228_" x="846" y="129" style="fill:#C8C8C8;" width="3" height="3"/>
<rect id="rect4165_227_" x="840" y="129" style="fill:#C8C8C8;" width="3" height="3"/>
<rect id="rect4165_226_" x="834" y="129" style="fill:#C8C8C8;" width="3" height="3"/>
<rect id="rect4165_225_" x="828" y="129" style="fill:#C8C8C8;" width="3" height="3"/>
<rect id="rect4165_224_" x="822" y="129" style="fill:#C8C8C8;" width="3" height="3"/>
<path style="fill:#646464;" d="M861,159h-39v-3h39V159z M823.5,174l-7.5-9h15L823.5,174z M861,174h-3v-15h3V174z M825,165h-3v-6h3
	V165z"/>
<rect id="rect4165_220_" x="858" y="177" style="fill:#646464;" width="3" height="3"/>
<rect id="rect4165_219_" x="852" y="177" style="fill:#646464;" width="3" height="3"/>
<rect id="rect4165_218_" x="846" y="177" style="fill:#646464;" width="3" height="3"/>
<rect id="rect4165_217_" x="840" y="177" style="fill:#646464;" width="3" height="3"/>
<rect id="rect4165_216_" x="834" y="177" style="fill:#646464;" width="3" height="3"/>
<rect id="rect4165_27_" x="828" y="177" style="fill:#646464;" width="3" height="3"/>
<rect id="rect4165_26_" x="822" y="177" style="fill:#646464;" width="3" height="3"/>
<rect x="960" y="-48" style="fill:#7F7F7F;" width="48" height="48"/>
<text transform="matrix(1 0 0 1 884.0859 36.4805)" style="fill:#FFFFFF; font-family:'ArialMT'; font-size:33.1188px;">i</text>
<path style="fill:#C8C8C8;" d="M888,132h-3v-3h3V132z M882,132h-3v-3h3V132z M894,126h-3v-3h3V126z M888,126h-3v-3h3V126z M882,126
	h-3v-3h3V126z M900,126h-3v-3h3V126z M882,120h-3v-3h3V120z M894,132h-3v-3h3V132z M888,114h-3v-3h3V114z M882,114h-3v-3h3V114z
	 M873,138h-3v-33h3V138z M894,102v3h-24v-3H894z M909,141h-3v-24h3V141z M906,138v3h-36v-3H906z M897,114h-3v-12h3V114z M909,114v3
	h-15v-3H909z M897,114v-12l12,12H897z"/>
<path d="M888,36h-3v-3h3V36z M882,36h-3v-3h3V36z M894,30h-3v-3h3V30z M888,30h-3v-3h3V30z M882,30h-3v-3h3V30z M900,30h-3v-3h3V30z
	 M882,24h-3v-3h3V24z M894,36h-3v-3h3V36z M888,18h-3v-3h3V18z M882,18h-3v-3h3V18z M873,42h-3V9h3V42z M894,6v3h-24V6H894z M909,45
	h-3V21h3V45z M906,42v3h-36v-3H906z M897,18h-3V6h3V18z M909,18v3h-15v-3H909z M897,18V6l12,12H897z"/>
<path style="fill:#7F7F7F;" d="M888,84h-3v-3h3V84z M882,84h-3v-3h3V84z M894,78h-3v-3h3V78z M888,78h-3v-3h3V78z M882,78h-3v-3h3
	V78z M900,78h-3v-3h3V78z M882,72h-3v-3h3V72z M894,84h-3v-3h3V84z M888,66h-3v-3h3V66z M882,66h-3v-3h3V66z M873,90h-3V57h3V90z
	 M894,54v3h-24v-3H894z M909,93h-3V69h3V93z M906,90v3h-36v-3H906z M897,66h-3V54h3V66z M909,66v3h-15v-3H909z M897,66V54l12,12H897
	z"/>
<path style="fill:#646464;" d="M888,180h-3v-3h3V180z M882,180h-3v-3h3V180z M894,174h-3v-3h3V174z M888,174h-3v-3h3V174z M882,174
	h-3v-3h3V174z M900,174h-3v-3h3V174z M882,168h-3v-3h3V168z M894,180h-3v-3h3V180z M888,162h-3v-3h3V162z M882,162h-3v-3h3V162z
	 M873,186h-3v-33h3V186z M894,150v3h-24v-3H894z M909,189h-3v-24h3V189z M906,186v3h-36v-3H906z M897,162h-3v-12h3V162z M909,162v3
	h-15v-3H909z M897,162v-12l12,12H897z"/>
<line style="fill:none;stroke:#000000;stroke-width:3;stroke-miterlimit:10;" x1="921" y1="39" x2="951" y2="9"/>
<line style="fill:none;stroke:#000000;stroke-width:3;stroke-miterlimit:10;" x1="921" y1="9" x2="951" y2="39"/>
<line style="fill:none;stroke:#C8C8C8;stroke-width:3;stroke-miterlimit:10;" x1="921" y1="135" x2="951" y2="105"/>
<line style="fill:none;stroke:#C8C8C8;stroke-width:3;stroke-miterlimit:10;" x1="921" y1="105" x2="951" y2="135"/>
<line style="fill:none;stroke:#000000;stroke-width:3;stroke-miterlimit:10;" x1="921" y1="87" x2="951" y2="57"/>
<line style="fill:none;stroke:#000000;stroke-width:3;stroke-miterlimit:10;" x1="921" y1="57" x2="951" y2="87"/>
<line style="fill:none;stroke:#C8C8C8;stroke-width:3;stroke-miterlimit:10;" x1="921" y1="183" x2="951" y2="153"/>
<line style="fill:none;stroke:#C8C8C8;stroke-width:3;stroke-miterlimit:10;" x1="921" y1="153" x2="951" y2="183"/>
<path style="fill:#C8C8C8;" d="M1143,105h-33v-3h33V105z M1143,138h-33v-3h33V138z M1113,135h-3v-30h3V135z M1146,138h-3v-36h3V138z
	 M1131,135h-3v-30h3V135z M1128,135h-3v-30h3V135z M1113,123v-3h30v3H1113z M1113,120v-3h30v3H1113z M1116,135h-3v-30h3V135z
	 M1143,135h-3v-30h3V135z M1113,108v-3h30v3H1113z M1113,135v-3h30v3H1113z"/>
<path style="fill:#C8C8C8;" d="M999,105h-33v-3h33V105z M999,138h-33v-3h33V138z M969,135h-3v-30h3V135z M1002,138h-3v-36h3V138z
	 M987,135h-3v-30h3V135z M984,135h-3v-30h3V135z M969,123v-3h30v3H969z M969,120v-3h30v3H969z M972,135h-3v-30h3V135z M999,135h-3
	v-30h3V135z M969,108v-3h30v3H969z M969,135v-3h30v3H969z M996,117h-9v-9h9V117z M981,132h-9v-9h9V132z M996,132h-9v-9h9V132z"/>
<path style="fill:#C8C8C8;" d="M1047,105h-33v-3h33V105z M1047,138h-33v-3h33V138z M1017,135h-3v-30h3V135z M1050,138h-3v-36h3V138z
	 M1035,135h-3v-30h3V135z M1032,135h-3v-30h3V135z M1017,123v-3h30v3H1017z M1017,120v-3h30v3H1017z M1020,135h-3v-30h3V135z
	 M1047,135h-3v-30h3V135z M1017,108v-3h30v3H1017z M1017,135v-3h30v3H1017z M1029,132h-9v-9h9V132z M1044,117h-9v-9h9V117z"/>
<path style="fill:#C8C8C8;" d="M1095,135v-33h3v33H1095z M1062,135v-33h3v33H1062z M1065,105v-3h30v3H1065z M1062,138v-3h36v3H1062z
	 M1065,123v-3h30v3H1065z M1065,120v-3h30v3H1065z M1077,105h3v30h-3V105z M1080,105h3v30h-3V105z M1065,108v-3h30v3H1065z
	 M1065,135v-3h30v3H1065z M1092,105h3v30h-3V105z M1065,105h3v30h-3V105z M1068,132v-9h9v9H1068z"/>
<path style="fill:#646464;" d="M1143,153h-33v-3h33V153z M1143,186h-33v-3h33V186z M1113,183h-3v-30h3V183z M1146,186h-3v-36h3V186z
	 M1131,183h-3v-30h3V183z M1128,183h-3v-30h3V183z M1113,171v-3h30v3H1113z M1113,168v-3h30v3H1113z M1116,183h-3v-30h3V183z
	 M1143,183h-3v-30h3V183z M1113,156v-3h30v3H1113z M1113,183v-3h30v3H1113z"/>
<path style="fill:#646464;" d="M999,153h-33v-3h33V153z M999,186h-33v-3h33V186z M969,183h-3v-30h3V183z M1002,186h-3v-36h3V186z
	 M987,183h-3v-30h3V183z M984,183h-3v-30h3V183z M969,171v-3h30v3H969z M969,168v-3h30v3H969z M972,183h-3v-30h3V183z M999,183h-3
	v-30h3V183z M969,156v-3h30v3H969z M969,183v-3h30v3H969z M996,165h-9v-9h9V165z M981,180h-9v-9h9V180z M996,180h-9v-9h9V180z"/>
<path style="fill:#646464;" d="M1047,153h-33v-3h33V153z M1047,186h-33v-3h33V186z M1017,183h-3v-30h3V183z M1050,186h-3v-36h3V186z
	 M1035,183h-3v-30h3V183z M1032,183h-3v-30h3V183z M1017,171v-3h30v3H1017z M1017,168v-3h30v3H1017z M1020,183h-3v-30h3V183z
	 M1047,183h-3v-30h3V183z M1017,156v-3h30v3H1017z M1017,183v-3h30v3H1017z M1029,180h-9v-9h9V180z M1044,165h-9v-9h9V165z"/>
<path style="fill:#646464;" d="M1095,183v-33h3v33H1095z M1062,183v-33h3v33H1062z M1065,153v-3h30v3H1065z M1062,186v-3h36v3H1062z
	 M1065,171v-3h30v3H1065z M1065,168v-3h30v3H1065z M1077,153h3v30h-3V153z M1080,153h3v30h-3V153z M1065,156v-3h30v3H1065z
	 M1065,183v-3h30v3H1065z M1092,153h3v30h-3V153z M1065,153h3v30h-3V153z M1068,180v-9h9v9H1068z"/>
<path style="fill:#7F7F7F;" d="M1143,57h-33v-3h33V57z M1143,90h-33v-3h33V90z M1113,87h-3V57h3V87z M1146,90h-3V54h3V90z M1131,87
	h-3V57h3V87z M1128,87h-3V57h3V87z M1113,75v-3h30v3H1113z M1113,72v-3h30v3H1113z M1116,87h-3V57h3V87z M1143,87h-3V57h3V87z
	 M1113,60v-3h30v3H1113z M1113,87v-3h30v3H1113z"/>
<path style="fill:#7F7F7F;" d="M999,57h-33v-3h33V57z M999,90h-33v-3h33V90z M969,87h-3V57h3V87z M1002,90h-3V54h3V90z M987,87h-3
	V57h3V87z M984,87h-3V57h3V87z M969,75v-3h30v3H969z M969,72v-3h30v3H969z M972,87h-3V57h3V87z M999,87h-3V57h3V87z M969,60v-3h30v3
	H969z M969,87v-3h30v3H969z M996,69h-9v-9h9V69z M981,84h-9v-9h9V84z M996,84h-9v-9h9V84z"/>
<path style="fill:#7F7F7F;" d="M1047,57h-33v-3h33V57z M1047,90h-33v-3h33V90z M1017,87h-3V57h3V87z M1050,90h-3V54h3V90z M1035,87
	h-3V57h3V87z M1032,87h-3V57h3V87z M1017,75v-3h30v3H1017z M1017,72v-3h30v3H1017z M1020,87h-3V57h3V87z M1047,87h-3V57h3V87z
	 M1017,60v-3h30v3H1017z M1017,87v-3h30v3H1017z M1029,84h-9v-9h9V84z M1044,69h-9v-9h9V69z"/>
<path style="fill:#7F7F7F;" d="M1095,87V54h3v33H1095z M1062,87V54h3v33H1062z M1065,57v-3h30v3H1065z M1062,90v-3h36v3H1062z
	 M1065,75v-3h30v3H1065z M1065,72v-3h30v3H1065z M1077,57h3v30h-3V57z M1080,57h3v30h-3V57z M1065,60v-3h30v3H1065z M1065,87v-3h30
	v3H1065z M1092,57h3v30h-3V57z M1065,57h3v30h-3V57z M1068,84v-9h9v9H1068z"/>
<path d="M1143,9h-33V6h33V9z M1143,42h-33v-3h33V42z M1113,39h-3V9h3V39z M1146,42h-3V6h3V42z M1131,39h-3V9h3V39z M1128,39h-3V9h3
	V39z M1113,27v-3h30v3H1113z M1113,24v-3h30v3H1113z M1116,39h-3V9h3V39z M1143,39h-3V9h3V39z M1113,12V9h30v3H1113z M1113,39v-3h30
	v3H1113z"/>
<path d="M999,9h-33V6h33V9z M999,42h-33v-3h33V42z M969,39h-3V9h3V39z M1002,42h-3V6h3V42z M987,39h-3V9h3V39z M984,39h-3V9h3V39z
	 M969,27v-3h30v3H969z M969,24v-3h30v3H969z M972,39h-3V9h3V39z M999,39h-3V9h3V39z M969,12V9h30v3H969z M969,39v-3h30v3H969z
	 M996,21h-9v-9h9V21z M981,36h-9v-9h9V36z M996,36h-9v-9h9V36z"/>
<path d="M1047,9h-33V6h33V9z M1047,42h-33v-3h33V42z M1017,39h-3V9h3V39z M1050,42h-3V6h3V42z M1035,39h-3V9h3V39z M1032,39h-3V9h3
	V39z M1017,27v-3h30v3H1017z M1017,24v-3h30v3H1017z M1020,39h-3V9h3V39z M1047,39h-3V9h3V39z M1017,12V9h30v3H1017z M1017,39v-3h30
	v3H1017z M1029,36h-9v-9h9V36z M1044,21h-9v-9h9V21z"/>
<path d="M1095,39V6h3v33H1095z M1062,39V6h3v33H1062z M1065,9V6h30v3H1065z M1062,42v-3h36v3H1062z M1065,27v-3h30v3H1065z M1065,24
	v-3h30v3H1065z M1077,9h3v30h-3V9z M1080,9h3v30h-3V9z M1065,12V9h30v3H1065z M1065,39v-3h30v3H1065z M1092,9h3v30h-3V9z M1065,9h3
	v30h-3V9z M1068,36v-9h9v9H1068z"/>
</svg>
