<?xml version="1.0" encoding="utf-8"?>
<!-- Generator: Adobe Illustrator 25.2.0, SVG Export Plug-In . SVG Version: 6.00 Build 0)  -->
<svg version="1.1"
	 id="svg3341" xmlns:cc="http://creativecommons.org/ns#" xmlns:dc="http://purl.org/dc/elements/1.1/" xmlns:inkscape="http://www.inkscape.org/namespaces/inkscape" xmlns:rdf="http://www.w3.org/1999/02/22-rdf-syntax-ns#" xmlns:sodipodi="http://sodipodi.sourceforge.net/DTD/sodipodi-0.dtd" xmlns:svg="http://www.w3.org/2000/svg"
	 xmlns="http://www.w3.org/2000/svg" xmlns:xlink="http://www.w3.org/1999/xlink" x="0px" y="0px" viewBox="0 0 416 64"
	 style="enable-background:new 0 0 416 64;" xml:space="preserve">
<sodipodi:namedview  bordercolor="#666666" borderopacity="1.0" id="base" inkscape:current-layer="layer1" inkscape:cx="144.97634" inkscape:cy="-0.056865311" inkscape:document-units="px" inkscape:pageopacity="0.0" inkscape:pageshadow="2" inkscape:snap-grids="true" inkscape:window-height="966" inkscape:window-maximized="1" inkscape:window-width="1680" inkscape:window-x="-8" inkscape:window-y="-8" inkscape:zoom="2.0875" pagecolor="#ffffff" showgrid="true" units="px">
	<inkscape:grid  id="grid3353" type="xygrid"></inkscape:grid>
</sodipodi:namedview>
<path id="path4159" inkscape:flatsided="true" inkscape:randomized="0" inkscape:rounded="0" inkscape:transform-center-x="-1.833329" inkscape:transform-center-y="-6.7848101e-005" sodipodi:arg1="2.0943951" sodipodi:arg2="3.1415927" sodipodi:cx="3" sodipodi:cy="1039.3621" sodipodi:r1="4.472136" sodipodi:r2="2.236068" sodipodi:sides="3" sodipodi:type="star" style="fill:#C8C8C8;" d="
	M3,45V34l11,5.5L3,45z"/>
<rect id="rect4161" x="20" y="35" style="fill:#C8C8C8;" width="3" height="9"/>
<rect id="rect4163" x="25" y="35" style="fill:#C8C8C8;" width="3" height="9"/>
<rect id="rect4165" x="36" y="35" style="fill:#C8C8C8;" width="8" height="9"/>
<rect id="rect4167" x="50" y="36" style="fill:#C8C8C8;" width="1" height="7"/>
<path id="path4169" inkscape:flatsided="true" inkscape:randomized="0" inkscape:rounded="0" inkscape:transform-center-x="0.66666139" inkscape:transform-center-y="-3.0343961e-005" sodipodi:arg1="3.1415927" sodipodi:arg2="4.1887902" sodipodi:cx="73" sodipodi:cy="1040.3621" sodipodi:r1="2" sodipodi:r2="1" sodipodi:sides="3" sodipodi:type="star" style="fill:#C8C8C8;" d="
	M52,39.5l4-3.5v7L52,39.5z"/>
<path id="path4171" inkscape:flatsided="true" inkscape:randomized="0" inkscape:rounded="0" inkscape:transform-center-x="0.66666139" inkscape:transform-center-y="-3.0343961e-005" sodipodi:arg1="3.1415927" sodipodi:arg2="4.1887902" sodipodi:cx="73" sodipodi:cy="1040.3621" sodipodi:r1="2" sodipodi:r2="1" sodipodi:sides="3" sodipodi:type="star" style="fill:#C8C8C8;" d="
	M57,39.5l4-3.5v7L57,39.5z"/>
<path id="path4173" inkscape:flatsided="true" inkscape:randomized="0" inkscape:rounded="0" inkscape:transform-center-x="0.66666139" inkscape:transform-center-y="-3.0343961e-005" sodipodi:arg1="3.1415927" sodipodi:arg2="4.1887902" sodipodi:cx="73" sodipodi:cy="1040.3621" sodipodi:r1="2" sodipodi:r2="1" sodipodi:sides="3" sodipodi:type="star" style="fill:#C8C8C8;" d="
	M115,39.5l4-3.5v7L115,39.5z"/>
<path id="path4175" inkscape:flatsided="true" inkscape:randomized="0" inkscape:rounded="0" inkscape:transform-center-x="0.66666139" inkscape:transform-center-y="-3.0343961e-005" sodipodi:arg1="3.1415927" sodipodi:arg2="4.1887902" sodipodi:cx="73" sodipodi:cy="1040.3621" sodipodi:r1="2" sodipodi:r2="1" sodipodi:sides="3" sodipodi:type="star" style="fill:#C8C8C8;" d="
	M120,39.5l4-3.5v7L120,39.5z"/>
<rect id="rect4177" x="76" y="36" style="fill:#C8C8C8;" width="1" height="7"/>
<path id="path4179" inkscape:flatsided="true" inkscape:randomized="0" inkscape:rounded="0" inkscape:transform-center-x="-0.666658" sodipodi:arg1="3.1415927" sodipodi:arg2="4.1887902" sodipodi:cx="73" sodipodi:cy="1040.3621" sodipodi:r1="2" sodipodi:r2="1" sodipodi:sides="3" sodipodi:type="star" style="fill:#C8C8C8;" d="
	M75,39.5L71,43v-7L75,39.5z"/>
<path id="path4181" inkscape:flatsided="true" inkscape:randomized="0" inkscape:rounded="0" inkscape:transform-center-x="-0.666658" sodipodi:arg1="3.1415927" sodipodi:arg2="4.1887902" sodipodi:cx="73" sodipodi:cy="1040.3621" sodipodi:r1="2" sodipodi:r2="1" sodipodi:sides="3" sodipodi:type="star" style="fill:#C8C8C8;" d="
	M70,39.5L66,43v-7L70,39.5z"/>
<path id="path4183" inkscape:flatsided="true" inkscape:randomized="0" inkscape:rounded="0" inkscape:transform-center-x="-0.666658" sodipodi:arg1="3.1415927" sodipodi:arg2="4.1887902" sodipodi:cx="73" sodipodi:cy="1040.3621" sodipodi:r1="2" sodipodi:r2="1" sodipodi:sides="3" sodipodi:type="star" style="fill:#C8C8C8;" d="
	M141,39.5l-4,3.5v-7L141,39.5z"/>
<path id="path4185" inkscape:flatsided="true" inkscape:randomized="0" inkscape:rounded="0" inkscape:transform-center-x="-0.666658" sodipodi:arg1="3.1415927" sodipodi:arg2="4.1887902" sodipodi:cx="73" sodipodi:cy="1040.3621" sodipodi:r1="2" sodipodi:r2="1" sodipodi:sides="3" sodipodi:type="star" style="fill:#C8C8C8;" d="
	M136,39.5l-4,3.5v-7L136,39.5z"/>
<rect id="rect4187" x="148" y="36" style="fill:#C8C8C8;" width="2" height="7"/>
<path style="fill:#C8C8C8;" d="M152,36h1v7h-1V36z M157,39.5l-4,3.5v-7L157,39.5z"/>
<path id="path4179-5" inkscape:flatsided="true" inkscape:randomized="0" inkscape:rounded="0" inkscape:transform-center-x="1.3333156" inkscape:transform-center-y="-0.00016308799" sodipodi:arg1="3.1415927" sodipodi:arg2="4.1887902" sodipodi:cx="73" sodipodi:cy="1040.3621" sodipodi:r1="2" sodipodi:r2="1" sodipodi:sides="3" sodipodi:type="star" style="fill:#C8C8C8;" d="
	M384,40l8-7v14L384,40z"/>
<rect id="rect4187-3" x="384" y="37" style="fill:#C8C8C8;" width="4" height="6"/>
<rect id="rect4181-4" x="400" y="-16" style="fill-rule:evenodd;clip-rule:evenodd;fill:#F600FF;" width="16" height="16"/>
<rect id="rect4181-4-8" x="384" y="-16" style="fill-rule:evenodd;clip-rule:evenodd;fill:#7200FF;" width="16" height="16"/>
<path id="path4230" sodipodi:cx="200.42171" sodipodi:cy="1044.3516" sodipodi:end="1.4835299" sodipodi:open="true" sodipodi:rx="1.1333569" sodipodi:ry="1.0653899" sodipodi:start="4.7996554" sodipodi:type="arc" style="fill:none;stroke:#C8C8C8;stroke-width:0.5;" d="
	M392.5,38.9c0.6,0,1,0.5,1,1.1s-0.4,1-1,1.1"/>
<path id="path4230-0" sodipodi:cx="201.32703" sodipodi:cy="1044.3516" sodipodi:end="1.4835299" sodipodi:open="true" sodipodi:rx="2.2667139" sodipodi:ry="2.1307797" sodipodi:start="4.7996554" sodipodi:type="arc" style="fill:none;stroke:#C8C8C8;stroke-width:0.6;" d="
	M393.5,37.8c1.2,0.1,2.1,1,2.1,2.1s-0.9,2-2.1,2.1"/>
<path id="path4230-0-7" sodipodi:cx="201.63358" sodipodi:cy="1044.3519" sodipodi:end="1.4835299" sodipodi:open="true" sodipodi:rx="4.5334277" sodipodi:ry="4.2615595" sodipodi:start="4.7996554" sodipodi:type="arc" style="fill:none;stroke:#C8C8C8;stroke-width:0.7;" d="
	M394,35.7c2.3,0.2,4.1,2,4.1,4.2s-1.8,4.1-4.1,4.2"/>
<path id="path4262" inkscape:flatsided="true" inkscape:randomized="0" inkscape:rounded="0" inkscape:transform-center-x="1.3333156" inkscape:transform-center-y="-0.00016308799" sodipodi:arg1="3.1415927" sodipodi:arg2="4.1887902" sodipodi:cx="73" sodipodi:cy="1040.3621" sodipodi:r1="2" sodipodi:r2="1" sodipodi:sides="3" sodipodi:type="star" style="fill:#C8C8C8;" d="
	M404,40l8-7v14L404,40z"/>
<rect id="rect4264" x="404" y="37" style="fill:#C8C8C8;" width="4" height="6"/>
<path style="fill:#C8C8C8;" d="M404,56l8-7v14L404,56z M404,53h4v6h-4V53z"/>
<path id="path4276" inkscape:connector-curvature="0" style="fill:none;stroke:#FF0000;" d="M402,34l12,12"/>
<path id="path4159_1_" inkscape:flatsided="true" inkscape:randomized="0" inkscape:rounded="0" inkscape:transform-center-x="-1.833329" inkscape:transform-center-y="-6.7848101e-005" sodipodi:arg1="2.0943951" sodipodi:arg2="3.1415927" sodipodi:cx="3" sodipodi:cy="1039.3621" sodipodi:r1="4.472136" sodipodi:r2="2.236068" sodipodi:sides="3" sodipodi:type="star" style="fill:#646464;" d="
	M3,61V50l11,5.5L3,61z"/>
<rect id="rect4161_1_" x="20" y="51" style="fill:#646464;" width="3" height="9"/>
<rect id="rect4163_1_" x="25" y="51" style="fill:#646464;" width="3" height="9"/>
<rect id="rect4165_1_" x="36" y="51" style="fill:#646464;" width="8" height="9"/>
<rect id="rect4167_1_" x="50" y="52" style="fill:#646464;" width="1" height="7"/>
<path id="path4169_1_" inkscape:flatsided="true" inkscape:randomized="0" inkscape:rounded="0" inkscape:transform-center-x="0.66666139" inkscape:transform-center-y="-3.0343961e-005" sodipodi:arg1="3.1415927" sodipodi:arg2="4.1887902" sodipodi:cx="73" sodipodi:cy="1040.3621" sodipodi:r1="2" sodipodi:r2="1" sodipodi:sides="3" sodipodi:type="star" style="fill:#646464;" d="
	M52,55.5l4-3.5v7L52,55.5z"/>
<path id="path4171_1_" inkscape:flatsided="true" inkscape:randomized="0" inkscape:rounded="0" inkscape:transform-center-x="0.66666139" inkscape:transform-center-y="-3.0343961e-005" sodipodi:arg1="3.1415927" sodipodi:arg2="4.1887902" sodipodi:cx="73" sodipodi:cy="1040.3621" sodipodi:r1="2" sodipodi:r2="1" sodipodi:sides="3" sodipodi:type="star" style="fill:#646464;" d="
	M57,55.5l4-3.5v7L57,55.5z"/>
<path id="path4173_1_" inkscape:flatsided="true" inkscape:randomized="0" inkscape:rounded="0" inkscape:transform-center-x="0.66666139" inkscape:transform-center-y="-3.0343961e-005" sodipodi:arg1="3.1415927" sodipodi:arg2="4.1887902" sodipodi:cx="73" sodipodi:cy="1040.3621" sodipodi:r1="2" sodipodi:r2="1" sodipodi:sides="3" sodipodi:type="star" style="fill:#646464;" d="
	M115,55.5l4-3.5v7L115,55.5z"/>
<path id="path4175_1_" inkscape:flatsided="true" inkscape:randomized="0" inkscape:rounded="0" inkscape:transform-center-x="0.66666139" inkscape:transform-center-y="-3.0343961e-005" sodipodi:arg1="3.1415927" sodipodi:arg2="4.1887902" sodipodi:cx="73" sodipodi:cy="1040.3621" sodipodi:r1="2" sodipodi:r2="1" sodipodi:sides="3" sodipodi:type="star" style="fill:#646464;" d="
	M120,55.5l4-3.5v7L120,55.5z"/>
<rect id="rect4177_1_" x="76" y="52" style="fill:#646464;" width="1" height="7"/>
<path id="path4179_1_" inkscape:flatsided="true" inkscape:randomized="0" inkscape:rounded="0" inkscape:transform-center-x="-0.666658" sodipodi:arg1="3.1415927" sodipodi:arg2="4.1887902" sodipodi:cx="73" sodipodi:cy="1040.3621" sodipodi:r1="2" sodipodi:r2="1" sodipodi:sides="3" sodipodi:type="star" style="fill:#646464;" d="
	M75,55.5L71,59v-7L75,55.5z"/>
<path id="path4181_1_" inkscape:flatsided="true" inkscape:randomized="0" inkscape:rounded="0" inkscape:transform-center-x="-0.666658" sodipodi:arg1="3.1415927" sodipodi:arg2="4.1887902" sodipodi:cx="73" sodipodi:cy="1040.3621" sodipodi:r1="2" sodipodi:r2="1" sodipodi:sides="3" sodipodi:type="star" style="fill:#646464;" d="
	M70,55.5L66,59v-7L70,55.5z"/>
<path id="path4183_1_" inkscape:flatsided="true" inkscape:randomized="0" inkscape:rounded="0" inkscape:transform-center-x="-0.666658" sodipodi:arg1="3.1415927" sodipodi:arg2="4.1887902" sodipodi:cx="73" sodipodi:cy="1040.3621" sodipodi:r1="2" sodipodi:r2="1" sodipodi:sides="3" sodipodi:type="star" style="fill:#646464;" d="
	M141,55.5l-4,3.5v-7L141,55.5z"/>
<path id="path4185_1_" inkscape:flatsided="true" inkscape:randomized="0" inkscape:rounded="0" inkscape:transform-center-x="-0.666658" sodipodi:arg1="3.1415927" sodipodi:arg2="4.1887902" sodipodi:cx="73" sodipodi:cy="1040.3621" sodipodi:r1="2" sodipodi:r2="1" sodipodi:sides="3" sodipodi:type="star" style="fill:#646464;" d="
	M136,55.5l-4,3.5v-7L136,55.5z"/>
<rect id="rect4187_1_" x="148" y="52" style="fill:#646464;" width="2" height="7"/>
<path style="fill:#646464;" d="M152,52h1v7h-1V52z M157,55.5l-4,3.5v-7L157,55.5z"/>
<polygon points="3,13 3,2 14,7.5 "/>
<rect x="20" y="3" width="3" height="9"/>
<rect x="25" y="3" width="3" height="9"/>
<rect x="36" y="3" width="8" height="9"/>
<rect x="50" y="4" width="1" height="7"/>
<polygon points="52,7.5 56,4 56,11 "/>
<polygon points="57,7.5 61,4 61,11 "/>
<polygon points="115,7.5 119,4 119,11 "/>
<polygon points="120,7.5 124,4 124,11 "/>
<rect x="76" y="4" width="1" height="7"/>
<polygon points="75,7.5 71,11 71,4 "/>
<polygon points="70,7.5 66,11 66,4 "/>
<polygon points="141,7.5 137,11 137,4 "/>
<polygon points="136,7.5 132,11 132,4 "/>
<rect x="148" y="4" width="2" height="7"/>
<path d="M153,11h-1V4h1V11z M157,7.5l-4,3.5V4L157,7.5z"/>
<polygon points="384,8 392,1 392,15 "/>
<path d="M388,11h-4V5h4V11z"/>
<path style="fill:none;stroke:#000000;stroke-width:0.5;" d="M392.5,6.9c0.6,0,1,0.5,1,1.1s-0.4,1-1,1.1"/>
<path style="fill:none;stroke:#000000;stroke-width:0.6;" d="M393.5,5.9c1.2,0.1,2.1,1,2.1,2.1s-0.9,2-2.1,2.1"/>
<path style="fill:none;stroke:#000000;stroke-width:0.7;" d="M394,3.7c2.3,0.2,4.1,2,4.1,4.2s-1.8,4.1-4.1,4.2"/>
<path d="M404,8l8-7v14L404,8z"/>
<rect x="404" y="5" width="4" height="6"/>
<path d="M404,24l8-7v14L404,24z M408,27h-4v-6h4V27z"/>
<path style="fill:none;stroke:#FF0000;" d="M402,2l12,12"/>
<polygon style="fill:#7F7F7F;" points="3,29 3,18 14,23.5 "/>
<rect x="20" y="19" style="fill:#7F7F7F;" width="3" height="9"/>
<rect x="25" y="19" style="fill:#7F7F7F;" width="3" height="9"/>
<rect x="36" y="19" style="fill:#7F7F7F;" width="8" height="9"/>
<rect x="50" y="20" style="fill:#7F7F7F;" width="1" height="7"/>
<polygon style="fill:#7F7F7F;" points="52,23.5 56,20 56,27 "/>
<polygon style="fill:#7F7F7F;" points="57,23.5 61,20 61,27 "/>
<polygon style="fill:#7F7F7F;" points="115,23.5 119,20 119,27 "/>
<polygon style="fill:#7F7F7F;" points="120,23.5 124,20 124,27 "/>
<rect x="76" y="20" style="fill:#7F7F7F;" width="1" height="7"/>
<polygon style="fill:#7F7F7F;" points="75,23.5 71,27 71,20 "/>
<polygon style="fill:#7F7F7F;" points="70,23.5 66,27 66,20 "/>
<polygon style="fill:#7F7F7F;" points="141,23.5 137,27 137,20 "/>
<polygon style="fill:#7F7F7F;" points="136,23.5 132,27 132,20 "/>
<rect x="148" y="20" style="fill:#7F7F7F;" width="2" height="7"/>
<path style="fill:#7F7F7F;" d="M153,27h-1v-7h1V27z M157,23.5l-4,3.5v-7L157,23.5z"/>
<rect x="256" y="-16" width="16" height="16"/>
<rect id="rect4165_21_" x="324" y="35" style="fill:#C8C8C8;" width="8" height="9"/>
<rect id="rect4165_20_" x="324" y="51" style="fill:#646464;" width="8" height="9"/>
<rect x="324" y="3" width="8" height="9"/>
<rect x="324" y="19" style="fill:#7F7F7F;" width="8" height="9"/>
<rect id="rect4165_19_" x="340" y="35" style="fill:#C8C8C8;" width="8" height="9"/>
<rect id="rect4165_18_" x="340" y="51" style="fill:#646464;" width="8" height="9"/>
<rect x="340" y="3" width="8" height="9"/>
<rect x="340" y="19" style="fill:#7F7F7F;" width="8" height="9"/>
<rect id="rect4165_35_" x="356" y="35" style="fill:#C8C8C8;" width="8" height="9"/>
<rect id="rect4165_34_" x="356" y="51" style="fill:#646464;" width="8" height="9"/>
<rect x="356" y="3" width="8" height="9"/>
<rect x="356" y="19" style="fill:#7F7F7F;" width="8" height="9"/>
<rect id="rect4165_33_" x="372" y="35" style="fill:#C8C8C8;" width="8" height="9"/>
<rect id="rect4165_32_" x="372" y="51" style="fill:#646464;" width="8" height="9"/>
<rect x="372" y="3" width="8" height="9"/>
<rect x="372" y="19" style="fill:#7F7F7F;" width="8" height="9"/>
<rect id="rect4165_47_" x="80" y="6" width="1" height="3"/>
<polygon style="fill:#7F7F7F;" points="384,24 392,17 392,31 "/>
<path style="fill:#7F7F7F;" d="M388,27h-4v-6h4V27z"/>
<path style="fill:none;stroke:#7F7F7F;stroke-width:0.5;" d="M392.5,22.9c0.6,0,1,0.5,1,1.1s-0.4,1-1,1.1"/>
<path style="fill:none;stroke:#7F7F7F;stroke-width:0.6;" d="M393.5,21.9c1.2,0.1,2.1,1,2.1,2.1s-0.9,2-2.1,2.1"/>
<path id="path4179-5_1_" inkscape:flatsided="true" inkscape:randomized="0" inkscape:rounded="0" inkscape:transform-center-x="1.3333156" inkscape:transform-center-y="-0.00016308799" sodipodi:arg1="3.1415927" sodipodi:arg2="4.1887902" sodipodi:cx="73" sodipodi:cy="1040.3621" sodipodi:r1="2" sodipodi:r2="1" sodipodi:sides="3" sodipodi:type="star" style="fill:#646464;" d="
	M384,56l8-7v14L384,56z"/>
<rect id="rect4187-3_1_" x="384" y="53" style="fill:#646464;" width="4" height="6"/>
<path id="path4230_1_" sodipodi:cx="200.42171" sodipodi:cy="1044.3516" sodipodi:end="1.4835299" sodipodi:open="true" sodipodi:rx="1.1333569" sodipodi:ry="1.0653899" sodipodi:start="4.7996554" sodipodi:type="arc" style="fill:none;stroke:#646464;stroke-width:0.5;" d="
	M392.5,54.9c0.6,0,1,0.5,1,1.1s-0.4,1-1,1.1"/>
<path id="path4230-0_1_" sodipodi:cx="201.32703" sodipodi:cy="1044.3516" sodipodi:end="1.4835299" sodipodi:open="true" sodipodi:rx="2.2667139" sodipodi:ry="2.1307797" sodipodi:start="4.7996554" sodipodi:type="arc" style="fill:none;stroke:#646464;stroke-width:0.6;" d="
	M393.5,53.8c1.2,0.1,2.1,1,2.1,2.1s-0.9,2-2.1,2.1"/>
<g>
	<path d="M103.7,9.8c-0.2,0.1-0.7,0.3-1.4,0.3c-1.5,0-2.4-1-2.4-2.5s1-2.6,2.6-2.6c0.5,0,1,0.1,1.2,0.2l-0.2,0.7
		c-0.2-0.1-0.5-0.2-1-0.2c-1.1,0-1.7,0.8-1.7,1.8c0,1.1,0.7,1.8,1.7,1.8c0.5,0,0.8-0.1,1.1-0.2L103.7,9.8z"/>
	<path d="M108.2,9.8c-0.2,0.1-0.7,0.3-1.4,0.3c-1.5,0-2.4-1-2.4-2.5s1-2.6,2.6-2.6c0.5,0,1,0.1,1.2,0.2L108,5.9
		c-0.2-0.1-0.5-0.2-1-0.2c-1.1,0-1.7,0.8-1.7,1.8c0,1.1,0.7,1.8,1.7,1.8c0.5,0,0.8-0.1,1.1-0.2L108.2,9.8z"/>
</g>
<g>
	<path style="fill:#7F7F7F;" d="M103.7,25.8c-0.2,0.1-0.7,0.3-1.4,0.3c-1.5,0-2.4-1-2.4-2.5s1-2.6,2.6-2.6c0.5,0,1,0.1,1.2,0.2
		l-0.2,0.7c-0.2-0.1-0.5-0.2-1-0.2c-1.1,0-1.7,0.8-1.7,1.8c0,1.1,0.7,1.8,1.7,1.8c0.5,0,0.8-0.1,1.1-0.2L103.7,25.8z"/>
	<path style="fill:#7F7F7F;" d="M108.2,25.8c-0.2,0.1-0.7,0.3-1.4,0.3c-1.5,0-2.4-1-2.4-2.5s1-2.6,2.6-2.6c0.5,0,1,0.1,1.2,0.2
		l-0.2,0.7c-0.2-0.1-0.5-0.2-1-0.2c-1.1,0-1.7,0.8-1.7,1.8c0,1.1,0.7,1.8,1.7,1.8c0.5,0,0.8-0.1,1.1-0.2L108.2,25.8z"/>
</g>
<g>
	<path style="fill:#C8C8C8;" d="M103.7,41.8c-0.2,0.1-0.7,0.3-1.4,0.3c-1.5,0-2.4-1-2.4-2.5s1-2.6,2.6-2.6c0.5,0,1,0.1,1.2,0.2
		l-0.2,0.7c-0.2-0.1-0.5-0.2-1-0.2c-1.1,0-1.7,0.8-1.7,1.8c0,1.1,0.7,1.8,1.7,1.8c0.5,0,0.8-0.1,1.1-0.2L103.7,41.8z"/>
	<path style="fill:#C8C8C8;" d="M108.2,41.8c-0.2,0.1-0.7,0.3-1.4,0.3c-1.5,0-2.4-1-2.4-2.5s1-2.6,2.6-2.6c0.5,0,1,0.1,1.2,0.2
		l-0.2,0.7c-0.2-0.1-0.5-0.2-1-0.2c-1.1,0-1.7,0.8-1.7,1.8c0,1.1,0.7,1.8,1.7,1.8c0.5,0,0.8-0.1,1.1-0.2L108.2,41.8z"/>
</g>
<g>
	<path style="fill:#646464;" d="M103.7,57.8c-0.2,0.1-0.7,0.3-1.4,0.3c-1.5,0-2.4-1-2.4-2.5s1-2.6,2.6-2.6c0.5,0,1,0.1,1.2,0.2
		l-0.2,0.7c-0.2-0.1-0.5-0.2-1-0.2c-1.1,0-1.7,0.8-1.7,1.8c0,1.1,0.7,1.8,1.7,1.8c0.5,0,0.8-0.1,1.1-0.2L103.7,57.8z"/>
	<path style="fill:#646464;" d="M108.2,57.8c-0.2,0.1-0.7,0.3-1.4,0.3c-1.5,0-2.4-1-2.4-2.5s1-2.6,2.6-2.6c0.5,0,1,0.1,1.2,0.2
		l-0.2,0.7c-0.2-0.1-0.5-0.2-1-0.2c-1.1,0-1.7,0.8-1.7,1.8c0,1.1,0.7,1.8,1.7,1.8c0.5,0,0.8-0.1,1.1-0.2L108.2,57.8z"/>
</g>
<rect x="164" y="10" width="8" height="2"/>
<path d="M172,7v1h-8V7H172z M168,3l4,4h-8L168,3z"/>
<rect id="rect4165_6_" x="179" y="3" width="1" height="10"/>
<rect id="rect4165_7_" x="178" y="4" width="3" height="1"/>
<rect id="rect4165_48_" x="182" y="10" width="3" height="1"/>
<rect id="rect4165_49_" x="186" y="8" width="3" height="1"/>
<g>
	<polyline style="fill:none;stroke:#000000;stroke-miterlimit:10;" points="225,21.5 228.1,21.5 232.9,27.5 236,27.5 	"/>
</g>
<path id="path4276_2_" inkscape:connector-curvature="0" style="fill:none;stroke:#000000;" d="M243.5,19.5l9,9"/>
<rect id="rect4165_103_" x="211" y="36" style="fill:#C8C8C8;" width="10" height="1"/>
<rect id="rect4165_102_" x="211" y="39" style="fill:#C8C8C8;" width="10" height="1"/>
<rect id="rect4165_97_" x="211" y="42" style="fill:#C8C8C8;" width="5" height="1"/>
<polygon style="fill:#C8C8C8;" points="221,43 218,45 218,41 "/>
<line style="fill:none;stroke:#C8C8C8;stroke-miterlimit:10;" x1="217.5" y1="57.5" x2="220.5" y2="60.5"/>
<line style="fill:none;stroke:#C8C8C8;stroke-miterlimit:10;" x1="217.5" y1="60.5" x2="220.5" y2="57.5"/>
<rect id="rect4165_17_" x="211" y="52" style="fill:#C8C8C8;" width="10" height="1"/>
<rect id="rect4165_16_" x="211" y="55" style="fill:#C8C8C8;" width="10" height="1"/>
<rect id="rect4165_10_" x="211" y="58" style="fill:#C8C8C8;" width="5" height="1"/>
<rect id="rect4165_105_" x="211" y="4" width="10" height="1"/>
<rect id="rect4165_104_" x="211" y="7" width="10" height="1"/>
<rect id="rect4165_101_" x="211" y="10" width="5" height="1"/>
<polygon points="221,11 218,13 218,9 "/>
<line style="fill:none;stroke:#000000;stroke-miterlimit:10;" x1="217.5" y1="25.5" x2="220.5" y2="28.5"/>
<line style="fill:none;stroke:#000000;stroke-miterlimit:10;" x1="217.5" y1="28.5" x2="220.5" y2="25.5"/>
<rect id="rect4165_100_" x="211" y="20" width="10" height="1"/>
<rect id="rect4165_99_" x="211" y="23" width="10" height="1"/>
<rect id="rect4165_98_" x="211" y="26" width="5" height="1"/>
<rect id="rect4165_67_" x="195" y="12" width="4" height="1"/>
<rect id="rect4165_66_" x="195" y="9" width="1" height="4"/>
<rect id="rect4165_73_" x="195" y="3" width="1" height="4"/>
<rect id="rect4165_106_" x="201" y="12" width="4" height="1"/>
<rect id="rect4165_68_" x="195" y="3" width="4" height="1"/>
<rect id="rect4165_69_" x="201" y="3" width="4" height="1"/>
<rect id="rect4165_70_" x="204" y="3" width="1" height="4"/>
<rect id="rect4165_71_" x="204" y="9" width="1" height="4"/>
<rect id="rect4165_137_" x="195" y="12" width="4" height="1"/>
<rect id="rect4165_136_" x="195" y="9" width="1" height="4"/>
<rect id="rect4165_135_" x="195" y="3" width="1" height="4"/>
<rect id="rect4165_134_" x="201" y="12" width="4" height="1"/>
<rect id="rect4165_109_" x="195" y="3" width="4" height="1"/>
<rect id="rect4165_108_" x="201" y="3" width="4" height="1"/>
<rect id="rect4165_107_" x="204" y="3" width="1" height="4"/>
<rect id="rect4165_72_" x="204" y="9" width="1" height="4"/>
<rect id="rect4165_88_" x="195" y="44" style="fill:#C8C8C8;" width="4" height="1"/>
<rect id="rect4165_87_" x="195" y="41" style="fill:#C8C8C8;" width="1" height="4"/>
<rect id="rect4165_86_" x="195" y="35" style="fill:#C8C8C8;" width="1" height="4"/>
<rect id="rect4165_85_" x="201" y="44" style="fill:#C8C8C8;" width="4" height="1"/>
<rect id="rect4165_84_" x="195" y="35" style="fill:#C8C8C8;" width="4" height="1"/>
<rect id="rect4165_83_" x="201" y="35" style="fill:#C8C8C8;" width="4" height="1"/>
<rect id="rect4165_82_" x="204" y="35" style="fill:#C8C8C8;" width="1" height="4"/>
<rect id="rect4165_81_" x="204" y="41" style="fill:#C8C8C8;" width="1" height="4"/>
<rect id="rect4165_80_" x="195" y="44" style="fill:#C8C8C8;" width="4" height="1"/>
<rect id="rect4165_79_" x="195" y="41" style="fill:#C8C8C8;" width="1" height="4"/>
<rect id="rect4165_78_" x="195" y="35" style="fill:#C8C8C8;" width="1" height="4"/>
<rect id="rect4165_77_" x="201" y="44" style="fill:#C8C8C8;" width="4" height="1"/>
<rect id="rect4165_76_" x="195" y="35" style="fill:#C8C8C8;" width="4" height="1"/>
<rect id="rect4165_75_" x="201" y="35" style="fill:#C8C8C8;" width="4" height="1"/>
<rect id="rect4165_74_" x="204" y="35" style="fill:#C8C8C8;" width="1" height="4"/>
<rect id="rect4165_11_" x="204" y="41" style="fill:#C8C8C8;" width="1" height="4"/>
<rect id="rect4165_145_" x="195" y="25" width="4" height="1"/>
<rect id="rect4165_144_" x="198" y="25" width="1" height="4"/>
<rect id="rect4165_143_" x="198" y="19" width="1" height="4"/>
<rect id="rect4165_142_" x="201" y="25" width="4" height="1"/>
<rect id="rect4165_141_" x="195" y="22" width="4" height="1"/>
<rect id="rect4165_140_" x="201" y="22" width="4" height="1"/>
<rect id="rect4165_139_" x="201" y="19" width="1" height="4"/>
<rect id="rect4165_138_" x="201" y="25" width="1" height="4"/>
<rect id="rect4165_96_" x="195" y="25" width="4" height="1"/>
<rect id="rect4165_95_" x="198" y="25" width="1" height="4"/>
<rect id="rect4165_94_" x="198" y="19" width="1" height="4"/>
<rect id="rect4165_93_" x="201" y="25" width="4" height="1"/>
<rect id="rect4165_92_" x="195" y="22" width="4" height="1"/>
<rect id="rect4165_91_" x="201" y="22" width="4" height="1"/>
<rect id="rect4165_90_" x="201" y="19" width="1" height="4"/>
<rect id="rect4165_89_" x="201" y="25" width="1" height="4"/>
<rect id="rect4165_161_" x="195" y="57" style="fill:#C8C8C8;" width="4" height="1"/>
<rect id="rect4165_160_" x="198" y="57" style="fill:#C8C8C8;" width="1" height="4"/>
<rect id="rect4165_159_" x="198" y="51" style="fill:#C8C8C8;" width="1" height="4"/>
<rect id="rect4165_158_" x="201" y="57" style="fill:#C8C8C8;" width="4" height="1"/>
<rect id="rect4165_157_" x="195" y="54" style="fill:#C8C8C8;" width="4" height="1"/>
<rect id="rect4165_156_" x="201" y="54" style="fill:#C8C8C8;" width="4" height="1"/>
<rect id="rect4165_155_" x="201" y="51" style="fill:#C8C8C8;" width="1" height="4"/>
<rect id="rect4165_154_" x="201" y="57" style="fill:#C8C8C8;" width="1" height="4"/>
<rect id="rect4165_153_" x="195" y="57" style="fill:#C8C8C8;" width="4" height="1"/>
<rect id="rect4165_152_" x="198" y="57" style="fill:#C8C8C8;" width="1" height="4"/>
<rect id="rect4165_151_" x="198" y="51" style="fill:#C8C8C8;" width="1" height="4"/>
<rect id="rect4165_150_" x="201" y="57" style="fill:#C8C8C8;" width="4" height="1"/>
<rect id="rect4165_149_" x="195" y="54" style="fill:#C8C8C8;" width="4" height="1"/>
<rect id="rect4165_148_" x="201" y="54" style="fill:#C8C8C8;" width="4" height="1"/>
<rect id="rect4165_147_" x="201" y="51" style="fill:#C8C8C8;" width="1" height="4"/>
<rect id="rect4165_146_" x="201" y="57" style="fill:#C8C8C8;" width="1" height="4"/>
<rect id="rect4165_4_" x="183" y="3" width="1" height="10"/>
<rect id="rect4165_5_" x="187" y="3" width="1" height="10"/>
<rect id="rect4165_53_" x="179" y="19" style="fill:#7F7F7F;" width="1" height="10"/>
<rect id="rect4165_52_" x="178" y="20" style="fill:#7F7F7F;" width="3" height="1"/>
<rect id="rect4165_51_" x="182" y="26" style="fill:#7F7F7F;" width="3" height="1"/>
<rect id="rect4165_50_" x="186" y="24" style="fill:#7F7F7F;" width="3" height="1"/>
<rect id="rect4165_9_" x="183" y="19" style="fill:#7F7F7F;" width="1" height="10"/>
<rect id="rect4165_8_" x="187" y="19" style="fill:#7F7F7F;" width="1" height="10"/>
<rect id="rect4165_59_" x="179" y="35" style="fill:#C8C8C8;" width="1" height="10"/>
<rect id="rect4165_58_" x="178" y="36" style="fill:#C8C8C8;" width="3" height="1"/>
<rect id="rect4165_57_" x="182" y="42" style="fill:#C8C8C8;" width="3" height="1"/>
<rect id="rect4165_56_" x="186" y="40" style="fill:#C8C8C8;" width="3" height="1"/>
<rect id="rect4165_55_" x="183" y="35" style="fill:#C8C8C8;" width="1" height="10"/>
<rect id="rect4165_54_" x="187" y="35" style="fill:#C8C8C8;" width="1" height="10"/>
<rect id="rect4165_65_" x="179" y="51" style="fill:#646464;" width="1" height="10"/>
<rect id="rect4165_64_" x="178" y="52" style="fill:#646464;" width="3" height="1"/>
<rect id="rect4165_63_" x="182" y="58" style="fill:#646464;" width="3" height="1"/>
<rect id="rect4165_62_" x="186" y="56" style="fill:#646464;" width="3" height="1"/>
<rect id="rect4165_61_" x="183" y="51" style="fill:#646464;" width="1" height="10"/>
<rect id="rect4165_60_" x="187" y="51" style="fill:#646464;" width="1" height="10"/>
<rect x="164" y="26" style="fill:#7F7F7F;" width="8" height="2"/>
<path style="fill:#7F7F7F;" d="M172,23v1h-8v-1H172z M168,19l4,4h-8L168,19z"/>
<rect x="164" y="42" style="fill:#C8C8C8;" width="8" height="2"/>
<path style="fill:#C8C8C8;" d="M172,39v1h-8v-1H172z M168,35l4,4h-8L168,35z"/>
<rect x="164" y="58" style="fill:#646464;" width="8" height="2"/>
<path style="fill:#646464;" d="M172,55v1h-8v-1H172z M168,51l4,4h-8L168,51z"/>
<polygon points="239,27.5 236,30 236,25 "/>
<g>
	<polyline style="fill:none;stroke:#000000;stroke-miterlimit:10;" points="236,21.5 232.9,21.5 228.1,27.5 225,27.5 	"/>
</g>
<polygon points="236,24 236,19 239,21.5 "/>
<g>
	<polyline style="fill:none;stroke:#C8C8C8;stroke-miterlimit:10;" points="225,53.5 228.1,53.5 232.9,59.5 236,59.5 	"/>
</g>
<polygon style="fill:#C8C8C8;" points="239,59.5 236,62 236,57 "/>
<g>
	<polyline style="fill:none;stroke:#C8C8C8;stroke-miterlimit:10;" points="236,53.5 232.9,53.5 228.1,59.5 225,59.5 	"/>
</g>
<polygon style="fill:#C8C8C8;" points="236,56 236,51 239,53.5 "/>
<path d="M225,5h11v1h-11V5z M236,8V3l3,2.5L236,8z"/>
<path d="M225,11h11v1h-11V11z M239,11.5l-3,2.5V9L239,11.5z"/>
<path style="fill:#C8C8C8;" d="M225,37h11v1h-11V37z M236,40v-5l3,2.5L236,40z"/>
<path style="fill:#C8C8C8;" d="M225,43h11v1h-11V43z M239,43.5l-3,2.5v-5L239,43.5z"/>
<path d="M247,11h7v1h-7V11z M253,5h1v6h-1V5z M252,4h2v1h-2V4z M247,9v5l-3-2.5L247,9z"/>
<path d="M242,11h2v1h-2V11z M242,4h7v1h-7V4z M249,7V2l3,2.5L249,7z M242,5h1v6h-1V5z"/>
<path style="fill:#C8C8C8;" d="M247,43h7v1h-7V43z M253,37h1v6h-1V37z M252,36h2v1h-2V36z M247,41v5l-3-2.5L247,41z"/>
<path style="fill:#C8C8C8;" d="M242,43h2v1h-2V43z M242,36h7v1h-7V36z M249,39v-5l3,2.5L249,39z M242,37h1v6h-1V37z"/>
<rect id="rect4165_120_" x="247" y="27" width="7" height="1"/>
<rect id="rect4165_119_" x="253" y="21" width="1" height="6"/>
<rect id="rect4165_118_" x="242" y="27" width="2" height="1"/>
<rect id="rect4165_117_" x="242" y="20" width="7" height="1"/>
<rect id="rect4165_116_" x="252" y="20" width="2" height="1"/>
<polygon points="249,23 249,18 252,20.5 "/>
<polygon points="247,25 247,30 244,27.5 "/>
<rect id="rect4165_115_" x="242" y="21" width="1" height="6"/>
<path id="path4276_1_" inkscape:connector-curvature="0" style="fill:none;stroke:#C8C8C8;" d="M243.5,51.5l9,9"/>
<rect id="rect4165_124_" x="247" y="59" style="fill:#C8C8C8;" width="7" height="1"/>
<rect id="rect4165_123_" x="253" y="53" style="fill:#C8C8C8;" width="1" height="6"/>
<rect id="rect4165_121_" x="242" y="59" style="fill:#C8C8C8;" width="2" height="1"/>
<rect id="rect4165_114_" x="242" y="52" style="fill:#C8C8C8;" width="7" height="1"/>
<rect id="rect4165_113_" x="252" y="52" style="fill:#C8C8C8;" width="2" height="1"/>
<polygon style="fill:#C8C8C8;" points="249,55 249,50 252,52.5 "/>
<polygon style="fill:#C8C8C8;" points="247,57 247,62 244,59.5 "/>
<rect id="rect4165_112_" x="242" y="53" style="fill:#C8C8C8;" width="1" height="6"/>
<rect id="rect4165_44_" x="82" y="5" width="1" height="5"/>
<rect id="rect4165_45_" x="84" y="3" width="1" height="9"/>
<rect id="rect4165_163_" x="88" y="1" width="1" height="13"/>
<rect id="rect4165_162_" x="86" y="4" width="1" height="7"/>
<rect id="rect4165_46_" x="90" y="4" width="1" height="7"/>
<rect id="rect4165_164_" x="92" y="3" width="1" height="9"/>
<rect id="rect4165_168_" x="94" y="5" width="1" height="5"/>
<rect id="rect4165_169_" x="80" y="38" style="fill:#C8C8C8;" width="1" height="3"/>
<rect id="rect4165_167_" x="82" y="37" style="fill:#C8C8C8;" width="1" height="5"/>
<rect id="rect4165_166_" x="84" y="35" style="fill:#C8C8C8;" width="1" height="9"/>
<rect id="rect4165_165_" x="88" y="33" style="fill:#C8C8C8;" width="1" height="13"/>
<rect id="rect4165_39_" x="86" y="36" style="fill:#C8C8C8;" width="1" height="7"/>
<rect id="rect4165_38_" x="90" y="36" style="fill:#C8C8C8;" width="1" height="7"/>
<rect id="rect4165_37_" x="92" y="35" style="fill:#C8C8C8;" width="1" height="9"/>
<rect id="rect4165_36_" x="94" y="37" style="fill:#C8C8C8;" width="1" height="5"/>
<rect id="rect4165_43_" x="80" y="22" style="fill:#7F7F7F;" width="1" height="3"/>
<rect id="rect4165_42_" x="82" y="21" style="fill:#7F7F7F;" width="1" height="5"/>
<rect id="rect4165_41_" x="84" y="19" style="fill:#7F7F7F;" width="1" height="9"/>
<rect id="rect4165_40_" x="88" y="17" style="fill:#7F7F7F;" width="1" height="13"/>
<rect id="rect4165_31_" x="86" y="20" style="fill:#7F7F7F;" width="1" height="7"/>
<rect id="rect4165_30_" x="90" y="20" style="fill:#7F7F7F;" width="1" height="7"/>
<rect id="rect4165_3_" x="92" y="19" style="fill:#7F7F7F;" width="1" height="9"/>
<rect id="rect4165_2_" x="94" y="21" style="fill:#7F7F7F;" width="1" height="5"/>
<rect id="rect4165_177_" x="80" y="54" style="fill:#646464;" width="1" height="3"/>
<rect id="rect4165_176_" x="82" y="53" style="fill:#646464;" width="1" height="5"/>
<rect id="rect4165_175_" x="84" y="51" style="fill:#646464;" width="1" height="9"/>
<rect id="rect4165_174_" x="88" y="49" style="fill:#646464;" width="1" height="13"/>
<rect id="rect4165_173_" x="86" y="52" style="fill:#646464;" width="1" height="7"/>
<rect id="rect4165_172_" x="90" y="52" style="fill:#646464;" width="1" height="7"/>
<rect id="rect4165_171_" x="92" y="51" style="fill:#646464;" width="1" height="9"/>
<rect id="rect4165_170_" x="94" y="53" style="fill:#646464;" width="1" height="5"/>
<path d="M257,4h13v1h-13V4z M267,7h5l-2.5,3L267,7z M257,5h1v5h-1V5z M269,5h1v2h-1V5z"/>
<rect id="rect4165_181_" x="257" y="11" width="1" height="1"/>
<rect id="rect4165_182_" x="259" y="11" width="1" height="1"/>
<rect id="rect4165_183_" x="261" y="11" width="1" height="1"/>
<rect id="rect4165_184_" x="263" y="11" width="1" height="1"/>
<rect id="rect4165_185_" x="265" y="11" width="1" height="1"/>
<rect id="rect4165_186_" x="267" y="11" width="1" height="1"/>
<rect id="rect4165_187_" x="269" y="11" width="1" height="1"/>
<path style="fill:#7F7F7F;" d="M257,20h13v1h-13V20z M267,23h5l-2.5,3L267,23z M257,21h1v5h-1V21z M269,21h1v2h-1V21z"/>
<rect id="rect4165_192_" x="257" y="27" style="fill:#7F7F7F;" width="1" height="1"/>
<rect id="rect4165_191_" x="259" y="27" style="fill:#7F7F7F;" width="1" height="1"/>
<rect id="rect4165_190_" x="261" y="27" style="fill:#7F7F7F;" width="1" height="1"/>
<rect id="rect4165_189_" x="263" y="27" style="fill:#7F7F7F;" width="1" height="1"/>
<rect id="rect4165_188_" x="265" y="27" style="fill:#7F7F7F;" width="1" height="1"/>
<rect id="rect4165_29_" x="267" y="27" style="fill:#7F7F7F;" width="1" height="1"/>
<rect id="rect4165_28_" x="269" y="27" style="fill:#7F7F7F;" width="1" height="1"/>
<path style="fill:#C8C8C8;" d="M257,36h13v1h-13V36z M267,39h5l-2.5,3L267,39z M257,37h1v5h-1V37z M269,37h1v2h-1V37z"/>
<rect id="rect4165_202_" x="257" y="43" style="fill:#C8C8C8;" width="1" height="1"/>
<rect id="rect4165_201_" x="259" y="43" style="fill:#C8C8C8;" width="1" height="1"/>
<rect id="rect4165_200_" x="261" y="43" style="fill:#C8C8C8;" width="1" height="1"/>
<rect id="rect4165_199_" x="263" y="43" style="fill:#C8C8C8;" width="1" height="1"/>
<rect id="rect4165_198_" x="265" y="43" style="fill:#C8C8C8;" width="1" height="1"/>
<rect id="rect4165_197_" x="267" y="43" style="fill:#C8C8C8;" width="1" height="1"/>
<rect id="rect4165_196_" x="269" y="43" style="fill:#C8C8C8;" width="1" height="1"/>
<path style="fill:#646464;" d="M257,52h13v1h-13V52z M267,55h5l-2.5,3L267,55z M257,53h1v5h-1V53z M269,53h1v2h-1V53z"/>
<rect id="rect4165_212_" x="257" y="59" style="fill:#646464;" width="1" height="1"/>
<rect id="rect4165_211_" x="259" y="59" style="fill:#646464;" width="1" height="1"/>
<rect id="rect4165_210_" x="261" y="59" style="fill:#646464;" width="1" height="1"/>
<rect id="rect4165_209_" x="263" y="59" style="fill:#646464;" width="1" height="1"/>
<rect id="rect4165_208_" x="265" y="59" style="fill:#646464;" width="1" height="1"/>
<rect id="rect4165_207_" x="267" y="59" style="fill:#646464;" width="1" height="1"/>
<rect id="rect4165_206_" x="269" y="59" style="fill:#646464;" width="1" height="1"/>
<path d="M287,5h-13V4h13V5z M274.5,10L272,7h5L274.5,10z M287,10h-1V5h1V10z M275,7h-1V5h1V7z"/>
<rect id="rect4165_250_" x="286" y="11" width="1" height="1"/>
<rect id="rect4165_249_" x="284" y="11" width="1" height="1"/>
<rect id="rect4165_248_" x="282" y="11" width="1" height="1"/>
<rect id="rect4165_247_" x="280" y="11" width="1" height="1"/>
<rect id="rect4165_246_" x="278" y="11" width="1" height="1"/>
<rect id="rect4165_245_" x="276" y="11" width="1" height="1"/>
<rect id="rect4165_244_" x="274" y="11" width="1" height="1"/>
<path style="fill:#7F7F7F;" d="M287,21h-13v-1h13V21z M274.5,26l-2.5-3h5L274.5,26z M287,26h-1v-5h1V26z M275,23h-1v-2h1V23z"/>
<rect id="rect4165_240_" x="286" y="27" style="fill:#7F7F7F;" width="1" height="1"/>
<rect id="rect4165_239_" x="284" y="27" style="fill:#7F7F7F;" width="1" height="1"/>
<rect id="rect4165_238_" x="282" y="27" style="fill:#7F7F7F;" width="1" height="1"/>
<rect id="rect4165_237_" x="280" y="27" style="fill:#7F7F7F;" width="1" height="1"/>
<rect id="rect4165_236_" x="278" y="27" style="fill:#7F7F7F;" width="1" height="1"/>
<rect id="rect4165_235_" x="276" y="27" style="fill:#7F7F7F;" width="1" height="1"/>
<rect id="rect4165_234_" x="274" y="27" style="fill:#7F7F7F;" width="1" height="1"/>
<path style="fill:#C8C8C8;" d="M287,37h-13v-1h13V37z M274.5,42l-2.5-3h5L274.5,42z M287,42h-1v-5h1V42z M275,39h-1v-2h1V39z"/>
<rect id="rect4165_230_" x="286" y="43" style="fill:#C8C8C8;" width="1" height="1"/>
<rect id="rect4165_229_" x="284" y="43" style="fill:#C8C8C8;" width="1" height="1"/>
<rect id="rect4165_228_" x="282" y="43" style="fill:#C8C8C8;" width="1" height="1"/>
<rect id="rect4165_227_" x="280" y="43" style="fill:#C8C8C8;" width="1" height="1"/>
<rect id="rect4165_226_" x="278" y="43" style="fill:#C8C8C8;" width="1" height="1"/>
<rect id="rect4165_225_" x="276" y="43" style="fill:#C8C8C8;" width="1" height="1"/>
<rect id="rect4165_224_" x="274" y="43" style="fill:#C8C8C8;" width="1" height="1"/>
<path style="fill:#646464;" d="M287,53h-13v-1h13V53z M274.5,58l-2.5-3h5L274.5,58z M287,58h-1v-5h1V58z M275,55h-1v-2h1V55z"/>
<rect id="rect4165_220_" x="286" y="59" style="fill:#646464;" width="1" height="1"/>
<rect id="rect4165_219_" x="284" y="59" style="fill:#646464;" width="1" height="1"/>
<rect id="rect4165_218_" x="282" y="59" style="fill:#646464;" width="1" height="1"/>
<rect id="rect4165_217_" x="280" y="59" style="fill:#646464;" width="1" height="1"/>
<rect id="rect4165_216_" x="278" y="59" style="fill:#646464;" width="1" height="1"/>
<rect id="rect4165_27_" x="276" y="59" style="fill:#646464;" width="1" height="1"/>
<rect id="rect4165_26_" x="274" y="59" style="fill:#646464;" width="1" height="1"/>
<rect x="304" y="-16" style="fill:#7F7F7F;" width="16" height="16"/>
<text transform="matrix(1 0 0 1 294.6953 12.1602)" style="fill:#FFFFFF; font-family:'MyriadPro-Regular'; font-size:11.0396px;">i</text>
<path style="fill:#C8C8C8;" d="M296,44h-1v-1h1V44z M294,44h-1v-1h1V44z M298,42h-1v-1h1V42z M296,42h-1v-1h1V42z M294,42h-1v-1h1
	V42z M300,42h-1v-1h1V42z M294,40h-1v-1h1V40z M298,44h-1v-1h1V44z M296,38h-1v-1h1V38z M294,38h-1v-1h1V38z M291,46h-1V35h1V46z
	 M298,34v1h-8v-1H298z M303,47h-1v-8h1V47z M302,46v1h-12v-1H302z M299,38h-1v-4h1V38z M303,38v1h-5v-1H303z M299,38v-4l4,4H299z"/>
<path d="M296,12h-1v-1h1V12z M294,12h-1v-1h1V12z M298,10h-1V9h1V10z M296,10h-1V9h1V10z M294,10h-1V9h1V10z M300,10h-1V9h1V10z
	 M294,8h-1V7h1V8z M298,12h-1v-1h1V12z M296,6h-1V5h1V6z M294,6h-1V5h1V6z M291,14h-1V3h1V14z M298,2v1h-8V2H298z M303,15h-1V7h1V15
	z M302,14v1h-12v-1H302z M299,6h-1V2h1V6z M303,6v1h-5V6H303z M299,6V2l4,4H299z"/>
<path style="fill:#7F7F7F;" d="M296,28h-1v-1h1V28z M294,28h-1v-1h1V28z M298,26h-1v-1h1V26z M296,26h-1v-1h1V26z M294,26h-1v-1h1
	V26z M300,26h-1v-1h1V26z M294,24h-1v-1h1V24z M298,28h-1v-1h1V28z M296,22h-1v-1h1V22z M294,22h-1v-1h1V22z M291,30h-1V19h1V30z
	 M298,18v1h-8v-1H298z M303,31h-1v-8h1V31z M302,30v1h-12v-1H302z M299,22h-1v-4h1V22z M303,22v1h-5v-1H303z M299,22v-4l4,4H299z"/>
<path style="fill:#646464;" d="M296,60h-1v-1h1V60z M294,60h-1v-1h1V60z M298,58h-1v-1h1V58z M296,58h-1v-1h1V58z M294,58h-1v-1h1
	V58z M300,58h-1v-1h1V58z M294,56h-1v-1h1V56z M298,60h-1v-1h1V60z M296,54h-1v-1h1V54z M294,54h-1v-1h1V54z M291,62h-1V51h1V62z
	 M298,50v1h-8v-1H298z M303,63h-1v-8h1V63z M302,62v1h-12v-1H302z M299,54h-1v-4h1V54z M303,54v1h-5v-1H303z M299,54v-4l4,4H299z"/>
<line style="fill:none;stroke:#000000;stroke-miterlimit:10;" x1="307" y1="13" x2="317" y2="3"/>
<line style="fill:none;stroke:#000000;stroke-miterlimit:10;" x1="307" y1="3" x2="317" y2="13"/>
<line style="fill:none;stroke:#C8C8C8;stroke-miterlimit:10;" x1="307" y1="45" x2="317" y2="35"/>
<line style="fill:none;stroke:#C8C8C8;stroke-miterlimit:10;" x1="307" y1="35" x2="317" y2="45"/>
<line style="fill:none;stroke:#000000;stroke-miterlimit:10;" x1="307" y1="29" x2="317" y2="19"/>
<line style="fill:none;stroke:#000000;stroke-miterlimit:10;" x1="307" y1="19" x2="317" y2="29"/>
<line style="fill:none;stroke:#C8C8C8;stroke-miterlimit:10;" x1="307" y1="61" x2="317" y2="51"/>
<line style="fill:none;stroke:#C8C8C8;stroke-miterlimit:10;" x1="307" y1="51" x2="317" y2="61"/>
</svg>
